<?xml version="1.0" encoding="UTF-8"?><svg id="Layer_2" xmlns="http://www.w3.org/2000/svg" viewBox="0 0 535.34 151.08"><defs><style>.cls-1{fill:#043b05;stroke-width:0px;}</style></defs><g id="Navigation"><path class="cls-1" d="m62.09,148.96c-.71-2.35-.84-4.63.72-6.72.9-1.21.75-2.46.4-3.8-.33-1.2-.58-2.42-.76-3.65-.25-1.59.18-2.92,1.76-3.68.28-.13.5-.37.74-.56.74-.62.98-1.3.78-2.32-.48-2.38-.42-4.66,1.73-6.41.79-.64,1.21-1.61,1.01-2.81-.22.03-.34.04-.44.06-2.66.71-5.3,1.47-8.08,1.46-.27,0-.64.07-.79.25-.86,1.03-1.87,2-2.44,3.18-.97,1.98-1.13,4.19-1.35,6.36-.17,1.81-.42,3.62-1.57,5.12-.3.4-.19.67.12,1.02,1.55,1.78,2.49,3.7,1.97,6.2-.3,1.44-.15,2.92.27,4.36l.03.08.48,1.57c.34.09.68.17,1.02.25,1.55.38,3.12.71,4.72.98l-.08-.12c-.1-.36-.14-.61-.21-.84Z"/><path class="cls-1" d="m104.47,137.41c-1.09-1.14-1.9-2.34-2.35-3.85-.17-.6-.63-1.22-1.14-1.57-.78-.55-1.67-1.04-2.58-1.26-1.21-.3-1.66-1.04-1.78-2.14-.05-.4-.11-.79-.1-1.19.04-1.43-.7-2.25-1.95-2.86-1.57-.76-2.93-1.48-2.57-3.95.09-.61.03-1.25-.06-1.87-.32-2.23-2.55-4.09-4.93-3.78.03.14.04.29.09.41.95,2.05.56,3.95-.61,5.79-1.49,2.36-1.39,3.38.25,5.71.63.92,1.25,1.89,1.66,2.93.75,1.91,2.03,3.13,4.03,3.53,1.46.3,2.68.79,3.23,2.36.19.56.61,1.09,1.04,1.52.91.89,1.94,1.67,2.82,2.57.55.57,1.06,1.26,1.35,1.99.49,1.23.86,2.52,1.3,3.93h0s.16.51.16.51h0s.06-.02.09-.03c.04-.02.07-.03.11-.05,2.05-.77,4.05-1.65,6-2.6,0,0,.02,0,.03-.01.17-.07.34-.15.51-.22,0-.01.01-.03.01-.04.13-.05.26-.12.38-.18l-.25-.17c-1.57-1.84-3.06-3.75-4.73-5.49Z"/><path class="cls-1" d="m41.98,133.35c.74-.29,1.12-.93,1.13-1.74.01-1.02,0-2.04.04-3.06.08-1.83,1.08-3.15,2.67-3.82,1.41-.6,2.99-.83,4.48-1.22,1.47-.38,3.04-.49,4.19-1.69.71-.76,1.46-1.5,2.16-2.27.98-1.08,2.2-1.56,3.65-1.73,2.31-.26,4.59-.63,6.88-1.02.89-.16,1.45-.84,1.92-1.61-5.15.49-10.28,1-15.37,1.72-3.5.5-6.93,1.41-10.18,2.88-.78.35-1.1.84-.97,1.72.25,1.61-.47,2.87-1.72,3.82-1.24.95-2.47,1.87-3.28,3.26-.61,1.04-1.6,1.68-2.65,2.3-2.03,1.2-3.95,2.57-6.12,4-.03.02-.07.04-.1.06.34.22.51.32.67.43.25.17.51.35.76.52.01,0,.02.01.03.03,1.59,1.2,3.23,2.34,4.91,3.4.01,0,.02.01.03.02.18.13.37.25.55.38.4.27.67.45.87.51,0,0,.01,0,.02.01.12.07.23.14.35.21l.26-.82.16-.51.16-.47h0c.79-2.35,1.99-4.33,4.5-5.31Z"/><path class="cls-1" d="m76.71,129.02c-.71-2.4.25-4.19,1.9-5.77.67-.65,1.39-1.26,2.06-1.9.63-.61.8-1.33.46-2.17-1.17-2.88-3.99-3.86-6.36-3.73-.55.03-.97.27-1.15.83-.41,1.23-.87,2.45-1.24,3.69-.32,1.11-.79,2.09-1.78,2.8-1.32.95-1.36,1.19-.79,2.75.11.29.21.6.38.86.45.68.89,1.36,1.41,1.98,1.08,1.3,1.03,2.79.95,4.35-.1,1.97-.25,3.98.01,5.92.23,1.7-.04,3.03-1.19,4.28-.45.49-.67,1.21-.9,1.87-.45,1.28.02,2.52.26,3.76.08.4.14.73.21,1.01l.06.26.27,1.17h0c1.42.08,2.84.12,4.28.12.16,0,.32,0,.48,0l.08-.58c.03-.08.05-.17.05-.27,0-.09.01-.18.02-.27v-.05c.07-.79.11-1.57.17-2.36.06-.73.11-1.46.19-2.18.25-2.2.56-4.43-.15-6.56-.64-1.92-.73-3.72.06-5.61.56-1.33.67-2.78.25-4.17Z"/><path class="cls-1" d="m87.1,146.82c-1.99-4.32-2.79-8.71-.84-13.3.3-.72.19-1.51-.32-2.25-1.35-1.98-2.64-4-3.93-6.03-.49-.76-.73-.88-1.33-.21-1.39,1.51-1.94,3.43-1.96,5.38-.02,1.37-.02,2.69-.44,4-.37,1.13-.73,2.26-.21,3.47.58,1.35.52,2.76.32,4.19-.08.57-.15,1.24.05,1.74.84,2.05.68,4.1.19,6.17-.05.2-.08.41-.12.71l-.05.33s0,.04-.01.06h0c.25-.03.49-.05.74-.08.04,0,.08,0,.12,0,2.95-.15,5.86-.46,8.7-.93,0,0,.01,0,.02,0,.23-.02.46-.05.69-.07,0-.01-.01-.03-.03-.05-.62-1.19-1.14-2.14-1.59-3.11Z"/><path class="cls-1" d="m117.82,135.44c-1.68-1.85-3.67-2.94-6.26-2.82-.49.03-1.16-.28-1.46-.65-1.52-1.9-3.01-3.83-4.36-5.84-.76-1.13-1.67-1.89-2.92-2.31-.56-.19-1.11-.45-1.69-.54-1.79-.31-2.76-1.48-3.51-3.01-.33-.67-.87-1.24-1.41-1.98-.89,2.27-.8,2.77.8,4,1.19.91,1.75,2.07,1.83,3.56.08,1.63.56,3.03,2.31,3.69.75.29,1.44.76,2.12,1.22.38.27.8.61.98,1.01.59,1.28,1.06,2.62,1.61,3.92.19.46.41.97.76,1.31,1.52,1.51,3.08,2.99,4.66,4.43l.45.43c2.49-1.35,4.88-2.84,7.18-4.48,0,0,0,0,0,0,.06-.04.12-.08.16-.11.17-.11.34-.23.51-.35l-.61-.48c-.38-.34-.82-.62-1.15-1Z"/><path class="cls-1" d="m35.17,128.19c.96-1.07,1.96-2.19,3.15-2.94,1.67-1.06,2-2.62,2.23-4.31.05-.43-.03-.87-.06-1.54-1.19.62-2.21,1.09-3.17,1.65-1.44.84-2.77,1.91-4.28,2.57-1.72.75-3.63,1.06-5.39,1.74-2.09.8-4.11,1.78-6.33,2.76-.05.03-.1.05-.16.07,1.69,1.54,3.36,3.06,5.01,4.6.13.12.25.21.38.25.09.08.19.16.28.23l.89-.54c1.17-.65,2.37-1.26,3.54-1.9,1.37-.77,2.82-1.4,3.92-2.62Z"/><path class="cls-1" d="m70.71,139.56c-.37-2.24-.72-4.47-.22-6.74.07-.35.08-.73.05-1.1-.02-.27-.08-.59-.25-.78-.61-.65-1.27-1.26-1.76-1.74-.62.97-1.17,2-1.89,2.9-.39.49-1.02.8-1.59,1.11-.92.49-1.19,1.24-.98,2.2.21,1,.41,2,.67,2.98.54,2.05.54,4.02-.97,5.68-1.23,1.35-1.24,2.75-.49,4.28.05.1.09.21.13.31.12.32.23.65.4.94,0,0,.01.02.01.03h0s.26.6.26.6c1.44.22,2.88.4,4.35.53l.03-.38v-.02c.02-.14.03-.25.02-.36-.19-1.43-.33-2.87-.62-4.28-.23-1.12-.16-2.05.75-2.85.63-.56,1.26-1.16,1.75-1.84.27-.38.43-1,.36-1.46Z"/><path class="cls-1" d="m122.68,131.14c-1.01-.42-2.08-.71-3.12-1.08-1.08-.38-1.87-1.1-2.49-2.07-.25-.38-.61-.89-.98-.96-1.84-.33-3.29-1.47-4.94-2.18-1.43-.6-2.86-1.22-4.66-1.04.25.34.41.57.57.78,1.28,1.69,2.58,3.36,3.84,5.07.55.76,1.24,1.16,2.15,1.35,1.58.34,3.1.86,4.43,1.83,1.07.78,2.13,1.59,3.21,2.34l.61.45c1.21-.92,2.39-1.88,3.54-2.88.01-.01.03-.02.05-.04.1-.08.21-.17.32-.25,0,0,0,0-.01,0-.95-.52-1.7-1-2.51-1.33Z"/><path class="cls-1" d="m53.97,146.87c-.34-1.81-.3-3.62,0-5.46.08-.47-.12-1.06-.37-1.49-.7-1.16-1.48-2.27-2.27-3.38-.48-.67-.46-1.28-.08-1.98.3-.54.6-1.11.74-1.71.55-2.41,1.04-4.85,1.58-7.46-.61.14-1.06.27-1.52.36-1.36.25-2.71.56-4.09.72-1.61.18-2.14.56-2.46,2.16-.25,1.22-.45,2.44-.68,3.67-.24,1.26-.81,2.19-2.09,2.76-.8.36-1.59,1.07-2.01,1.83-.52.96-.87,2.02-1.24,3.07v.03s-.66,1.58-.66,1.58c.12.07.24.14.36.2.09.09.21.17.37.25.97.51,1.94,1,2.92,1.46.29.14.59.28.88.41.41.19.83.38,1.24.57.36.16.71.32,1.07.47,2.84,1.23,5.75,2.29,8.75,3.16l-.45-1.21h0Z"/><path class="cls-1" d="m100.06,146.42c-.45-1.52-.93-3.02-1.45-4.51-.24-.69-.75-1.1-1.49-1.37-.7-.25-1.44-.7-1.89-1.27-.56-.71-.87-1.63-1.25-2.48-.23-.52-.56-.73-1.14-.83-1.3-.22-2.65-.38-3.56-1.54-.32-.4-.7-.76-1.15-1.22-.21,1.01-.3,1.88-.58,2.69-.68,1.96-.61,3.95-.32,5.95.37,2.58,1.96,4.5,3.48,6.45l.54.71.29.4c2.95-.63,5.84-1.44,8.64-2.42l-.11-.5v-.05Z"/><path class="cls-1" d="m129.06,127.86c-1-.67-2.01-1.33-3.02-2-.77-.52-1.61-.97-2.29-1.59-1.94-1.78-4.26-2.73-6.81-3.2-1.54-.28-2.86-.83-3.96-2.06-1.98-2.2-4.52-3.41-7.5-3.36-2.42.05-4.84.36-7.26.56-.1,0-.19.08-.45.21.78.87,1.48,1.71,2.22,2.5,1.33,1.43,2.8,2.3,4.88,1.5,1.85-.71,3.62-.21,5.25.82.45.29.91.58,1.39.82,1.45.75,2.77,1.78,4.49,1.9,1.59.12,2.79.8,3.77,2.12.79,1.06,1.8,2.05,2.91,2.77,1.23.78,2.8,1.02,3.73,2.53,0,0,.01.02.02.03.11-.12.23-.24.34-.36,0,0,.01-.01.02-.02.97-.89,1.92-1.81,2.84-2.77l-.24-.05c-.07-.08-.17-.26-.32-.36Z"/><path class="cls-1" d="m151.06,73.96c-.01-.41-.03-.82-.04-1.24-.01-.38-.03-.75-.05-1.13-.14-2.6-.41-5.22-.82-7.85,0-.04-.01-.08-.02-.12-.06-.35-.11-.7-.17-1.04-.06-.35-.12-.69-.19-1.04-.03-.14-.05-.28-.07-.41-.05-.27-.11-.55-.16-.82,0-.05-.02-.08-.03-.13C142.82,27.71,115.27,2.86,81.48.23c-.02,0-.05,0-.06,0-.08-.01-.16-.02-.23-.02-.42-.03-.84-.06-1.26-.08-.25-.02-.51-.03-.76-.04-.12,0-.23-.01-.35-.02-.17,0-.34-.01-.51-.02-.12,0-.23,0-.35,0-.26-.01-.52-.02-.78-.03-.58-.01-1.16-.02-1.74-.02-13.45.02-26.08,3.55-37.01,9.73-.02.02-.04.03-.06.04-.82.52-1.63,1.07-2.5,1.48-.02,0-.04.02-.06.03h0C14.32,24.59,0,48.4,0,75.54c0,18.31,6.51,35.08,17.35,48.15.64.78,1.31,1.55,1.99,2.31.23.16.48.26.65.21.25-.06.5-.14.75-.21,1.3-.37,2.59-.78,3.85-1.26,1.98-.76,3.93-1.59,5.86-2.44,2.44-1.07,4.89-2.15,6.54-4.4.71-.98,1.63-1.23,2.77-.93.52.14,1.04.29,1.57.36.44.06.92.15,1.33.04.89-.23,1.77-.58,2.64-.89,1.92-.69,3.78-1.61,5.75-2.02,3.9-.8,7.88-1.22,11.8-1.98,2.55-.49,5.07-1.21,7.53-2.01,1.87-.6,3.1-1.94,3.63-3.93,1.07-4.02,1.47-8.03.91-12.19-.52-3.85-1.78-7.41-3.48-10.85-.4-.82-.92-1.54-1.83-1.78-1.19-.32-2.4-.7-3.63-.76-2.54-.14-4.67-.99-6.61-2.68-1.57-1.37-3.37-2.51-5.64-2.36-.27.02-.55-.14-.83-.17-1.82-.21-3.64-.52-5.47-.56-.76-.01-1.79.34-2.27.9-.65.75-1.36,1.22-2.22,1.59-.34.15-.68.41-.88.72-.95,1.44-1.42,3.06-1.61,4.78-.12,1.04-.05,2,.63,2.89.36.46.73,1.07.31,1.87-1.15-.97-2.05-1.97-2.44-3.61-1.65,2.4-3.99,2.33-6.3,2.38-.4,0-.8.04-1.18.13-.38.09-.79.2-1.09.43-.93.7-1.79,1.48-2.7,2.19-.32.25-.71.56-1.09.58-.71.04-1.41.08-2.12.11-2.06.1-4.12.17-6.18.23-.38,0-.76-.24-1.13-.36.2-.29.37-.38.54-.42,2.35-.51,4.69-1.05,7.06-1.47.03,0,.06-.01.08-.02,1.46-.26,2.53-1.02,3.43-2.14.75-.93,1.69-1.55,2.94-1.65,1.58-.13,3.16-.34,4.74-.47.64-.05,1-.28,1.25-.91.36-.91.84-1.79,1.32-2.66.21-.4.53-.73.89-1.22-2.29.3-4.39.24-6.35-.58-1.54-.64-2.99-.75-4.51-.08-.52.23-1.04.45-1.59.6-.27.08-.6-.01-.89-.03h-.01s.01-.05.02-.07c.1-.3.16-.62.32-.89.1-.17.36-.27.56-.37.99-.52,1.99-1.02,2.98-1.53,0-.08.01-.16.02-.25-.93-.11-1.86-.32-2.79-.32-.21,0-.4-.01-.6-.03-1.81-.19-3.13-1.23-4.31-2.6-.22-.25-.55-.48-.87-.57-1.3-.37-2.63-.67-3.94-1.04-.28-.08-.51-.3-.77-.45.23-.23.39-.3.54-.3,2.58.14,5.17.45,7.54,1.5.72.32,1.45.61,2.18.86,1.42.5,2.86.88,4.35,1.19.86.17,1.64.72,2.43,1.15.47.26.89.6,1.32.93.54.42,1.04.44,1.63.06.73-.47,1.52-.64,2.42-.55.97.1,1.74-.43,2.35-1.15.32-.36.61-.75.88-1.15.51-.73,1.16-1.26,2.06-1.35,1.01-.09,2.03-.11,3.04-.15.57-.02,1.15,0,1.82,0-.13-.51-.2-.81-.28-1.11-.78-3.04-.93-3.21-4.02-3.12-1.85.06-3.33-.54-4.2-2.13-.67-1.23-1.67-1.63-2.92-1.87-3.17-.6-6.32-1.04-9.51-.3-.33.08-.65.16-.98.27-1.39.43-2.89.49-4.35.65-.29.04-.62-.24-.93-.37.26-.16.51-.37.79-.46,1.02-.34,2.05-.63,3.08-.93-.3-.22-.58-.26-.85-.29-1.79-.23-3.6-.43-5.39-.69-.49-.06-1.08-.14-1.21-.89.23-.05.41-.11.6-.1,1.92.1,3.84.2,5.77.32,1.27.08,2.54.21,3.81.29.59.04,1.19.06,1.78.06,2.31.03,4.63-.1,6.95-.18.38-.01.75-.13,1.13-.19-.08-.4-.08-.86-.28-1.18-.84-1.33-2.07-2.23-3.44-2.94-.8-.42-1.63-.8-2.4-1.28-1.1-.69-1.79-1.67-2.07-2.97-.07-.35-.16-.69-.27-1.03-.17-.58-.36-1.16-.55-1.73-.12-.38-.34-.73-.51-1.08.54.31.97.69,1.3,1.13.55.71.86,1.54,1.04,2.44.17.88.58,1.58,1.31,1.99,1.63.9,3.3,1.71,5.07,2.61-.29-2.52.02-4.92.61-7.33.25.29.4.6.4.9.03.98.02,1.98,0,2.97-.07,2.83.33,5.57,2.07,7.87,1.11,1.46,2.2,3.06,4.21,3.5,1.05.23,2.1.47,3.16.65.83.14,1.05-.1.73-.86-.51-1.25-1.04-2.5-1.7-3.68-.84-1.52-1.16-2.93-.2-4.55.37-.62.38-1.5.41-2.27.04-.73-.12-1.46-.17-2.2-.01-.21.05-.43.08-.65.1,0,.19-.01.29-.01.8,1.55,1.08,3.25,1.07,5.05.88-1.46,1.24-3.19,2.76-4.32.01,1.14-1.21,4.81-1.72,5.61-.52.83-.86,1.77-.37,2.71,1.75,3.41,3.34,6.87,4.09,10.67.07.38.51.82.89.98,1.43.63,2.81.09,4.25-.21-1.12-3.54-.65-6.9.54-10.2.13.06.19.14.19.21-.12,3.8.44,7.5,1.76,11.07.14.38.37.8.68,1.02,1.7,1.19,3.49,2.18,5.62,2.44,1.46.17,2.9.52,4.33.82.47.1.93.32,1.57.56-.12-.56-.21-.93-.27-1.3-.26-1.55-.62-3.1-.73-4.66-.13-1.89.11-3.8-.05-5.69-.31-3.54-1.44-6.74-4.77-8.58-2.25-1.25-4.54-2.45-6.93-3.38-3.34-1.3-6.43-2.9-8.95-5.53-.49-.51-1.18-.95-1.85-1.11-1.32-.32-2.68-.59-4.02-.55-1.89.05-3.73.03-5.57-.41-.66-.16-1.33-.27-2-.42-1.73-.41-3.45-.62-5.18.05-.36.14-.78.21-1.17.21-.27,0-.54-.17-.81-.26.21-.22.38-.52.64-.64.89-.41,1.81-.76,2.85-1.19-.21-.32-.36-.61-.56-.85-.75-.88-1.6-1.69-2.31-2.59-.2-.26-.4-.53-.57-.81-.97-1.57-1.67-3.32-2.44-5.01-.1-.23.09-.6.15-.9.24.21.52.38.71.62.83,1.03,1.61,2.11,2.46,3.11.03.04.06.08.1.12.78.91,1.71,1.69,2.39,2.66.6.86,1.33,1.37,2.28,1.63,1.85.51,3.71,1,5.59,1.43,1.14.25,2.29.23,3.4-.29,1.45-.67,2.91-.6,4.35.1.16.08.34.09.68.17-.91-2.43-.55-4.69.17-6.94.15-.45.19-.94.23-1.42.12-1.3-.06-2.55-.75-3.67-.38-.62-.88-1.17-1.23-1.81-.97-1.74-1.01-3.49.29-5.08,1.25-1.53,2.6-2.98,3.93-4.44.16-.18.43-.26.65-.38.07.06.14.12.21.19-.34.66-.67,1.32-1.03,1.98-.87,1.65-1.76,3.29-2.65,4.93-.31.56-.28,1.11.1,1.59.86,1.11,1.76,2.18,2.56,3.17,1.24-.97,2.41-1.94,3.63-2.83,1.47-1.08,2.53-2.4,2.8-4.27.06-.45.19-.89.34-1.32.06-.2.26-.36.4-.53.08.03.16.05.25.08v2.66c.08.03.15.05.23.07.19-.22.41-.42.56-.67.79-1.21,1.57-2.42,2.34-3.65,1.02-1.63,2.01-3.28,3.06-4.89.14-.22.53-.28.81-.41.03.28.16.59.06.83-.27.77-.58,1.54-.96,2.26-1.09,2.11-2.2,4.21-3.34,6.28-1.34,2.42-2.81,4.68-5.55,5.86-1.51.65-2.59,1.94-3.07,3.57-.52,1.76-.97,3.55-1.35,5.34-.14.66-.25,1.55.08,2.05.84,1.32,1.79,2.62,2.94,3.67,3.18,2.9,6.89,5.03,10.72,6.95.55.28,1.11.54,1.67.82.05-.06.1-.13.15-.2-.25-.5-.52-.98-.73-1.5-.58-1.44-1.29-2.86-1.63-4.35-.25-1.11-.05-2.35.06-3.52.07-.71.66-1.09,1.19-1.3,0,1.43-.06,2.82.01,4.22.09,1.65.76,3.34,1.36,3.8.4-2.57.43-5.27,2.53-7.26-.78,4.49-.94,8.86,1.7,13,.82-.95,1.6-1.76,2.29-2.66,1.65-2.14,3.56-4.15,3.89-7.02.14-1.15.53-2.31.44-3.43-.21-2.54.45-4.68,2.24-6.5,1.08-1.1,2.03-2.33,2.34-3.87.27-1.35.41-2.74.59-4.11.21-1.59.25-3.17,1.26-4.59.45-.63.42-1.65.49-2.51.04-.55-.16-1.12-.23-1.68-.34-2.88.97-5.51,3.45-6.72-.26.63-.59,1.23-.92,1.83-.73,1.33-1.52,2.7-.67,4.22.81,1.46.59,2.8-.02,4.22-.34.8-.61,1.65-.74,2.51-.3,1.92-.5,3.87-.73,5.81-.02.19.04.4.07.72,1.73-1.3,3.4-2.43,4.44-4.21.8-1.36,1.53-2.77,2.29-4.16.22-.4.46-.79.69-1.19.11.03.21.06.32.1-.12.96-.23,1.92-.35,2.86,1.17-.69,2.27-1.45,3.47-1.98,1.04-.46,1.9-1.05,2.68-1.86.54-.56,1.22-.98,1.85-1.46.05.06.1.13.16.19-.42.6-.84,1.2-1.28,1.78-.73.95-1.52,1.78-2.6,2.38-2.03,1.15-3.81,2.62-5.38,4.37-1.17,1.28-1.94,2.95-3.61,3.76-.54.25-1.02.62-1.53.91-4.41,2.56-5.67,6.65-5.57,11.41,0,.06.09.12.18.23,1.18-1.07,2.54-1.7,4.11-1.88,2.05-.24,4.11-.43,6.15-.78,2.11-.37,4.2-.91,6.29-1.35,1.4-.3,2.41-1.14,3.3-2.2.34-.41.77-.74,1.19-1.08,2.81-2.31,6.13-3.45,9.62-4.23.56-.12,1.13-.49,1.54-.91.94-.95,1.81-1.98,3.17-2.32.47-.12.98-.08,1.47-.12.01.08.03.17.04.25-.08.07-.15.18-.24.21-1.7.49-2.86,1.65-3.86,3.03-.25.34-.68.67-1.08.74-2.98.54-5.63,1.87-8.24,3.3-.69.38-1.29.94-1.93,1.41.25.18.39.19.51.15,2.1-.67,4.19-1.38,6.3-2.03,1.08-.32,2.18-.58,3.29-.78.32-.06.69.18,1.03.28-.23.27-.41.66-.71.8-1.37.62-2.77,1.16-4.15,1.74-.24.1-.47.23-.86.41.28.12.37.19.47.21,2.11.23,4.2.58,6.32.65,1.92.06,3.84-.19,5.77-.28.71-.03,1.42,0,2.13,0,.02.08.05.17.06.25-.48.17-.95.38-1.44.49-3.81.88-7.66,1.18-11.55.65-2.68-.36-5.3-.36-7.88.58-1.06.4-2.15.71-3.24,1.01-3.3.92-6.61,1.79-9.9,2.73-3.31.95-6.26,2.52-8.36,5.34-1.13,1.52-2.22,3.08-3.18,4.7-.82,1.39-1.59,2.83-2.12,4.35-.79,2.28-.58,4.51.7,6.69,1.04,1.78,1.81,3.73,2.7,5.63.38-.79,1.28-1.41,1.31-2.57.03-1.07.1-2.14.23-3.19.06-.49.08-.82-.3-1.21-.84-.87-1.05-1.98-.89-3.16.02-.15.17-.29.37-.59.16.44.29.69.34.95.19,1,.56,1.87,1.35,2.58.24.21.28.75.27,1.13-.02.65-.15,1.31-.23,1.96,1.71-.94,3.34-1.8,4.04-3.68.31-.85.67-1.68,1.1-2.47.5-.92,1.08-1.81,2.04-2.3-.65,1.64-1.46,3.18-1.87,4.82-.54,2.16-1.54,3.93-3.21,5.35-.29.25-.5.61-.69.95-.44.78-.78,1.63-1.28,2.37-.75,1.1-1.02,2.3-.75,3.55.56,2.49,1.21,4.95,1.87,7.41.21.8.55,1.56.84,2.36.21-.11.29-.14.36-.19,2.75-2.09,5.86-3.08,9.3-3.21,1.86-.06,3.69-.32,4.77-2.18.25-.43.62-.81.93-1.21,1.16-1.54,2.24-3.14,3.5-4.59.93-1.08,1.47-2.22,1.37-3.62-.15-1.94-.4-3.89-.53-5.83-.1-1.43-.11-2.86-.12-4.3,0-1.46.22-2.94.04-4.38-.4-3.14-.66-6.25-.02-9.37.07-.32.23-.62.35-.92.09.01.19.03.28.05.03.23.08.46.1.69.23,2.36.37,4.74.71,7.09.31,2.18.87,4.31.48,6.55-.15.84-.03,1.72-.03,2.58.08.01.17.03.25.04.16-.29.28-.59.47-.86.62-.9,1.15-1.9,1.91-2.67,1.85-1.87,4.13-3.21,6.69-3.64,2.02-.34,2.91-1.28,3.5-3.12.74-2.28,2.4-3.94,4.49-5.12.23-.14.57-.08.86-.12-.05.28-.03.6-.17.82-.45.71-1.04,1.35-1.44,2.09-.99,1.83-1.92,3.71-2.86,5.58-.5,1-1.17,1.7-2.39,1.73-.43.01-.89.17-1.3.34-2.55.99-4.61,2.68-6.32,4.75-1.94,2.36-2.27,5.14-1.7,8.09.13-.03.23-.03.29-.08,1.55-1.4,3.52-2.01,5.38-2.84.23-.1.52-.02.78-.03-.11.26-.15.6-.34.77-.66.57-1.36,1.11-2.08,1.6-1.38.93-2.86,1.72-3.85,3.14-.89,1.27-1.87,2.48-2.8,3.73-.08.1-.11.23-.21.46.46,0,.82.01,1.17,0,.93-.03,1.87-.12,2.8-.08.62.03,1.06-.16,1.33-.68.56-1.04,1.46-1.65,2.52-2.04.68-.25,1.41-.45,2.13-.53,3.71-.46,6.08-2.51,7.28-5.99.46-1.33.87-2.7,1.33-4.03.16-.42.43-.8.65-1.2.08.03.17.05.27.08.41,1.91-.17,3.79-.42,5.87.4-.34.63-.56.89-.76,1.79-1.37,3.65-2.66,6.06-2.45.98.08,1.64-.17,2.33-.84,1.02-1,2.15-1.9,3.27-2.81.25-.2.65-.21.98-.32.03.08.06.16.1.25-.25.34-.49.67-.73,1.01-1.65,2.39-3.52,4.31-6.56,5.12-3.07.82-5.55,2.86-7.57,5.36-1.26,1.55-2.77,2.73-4.84,3.03-.65.1-1.28.34-1.94.52.07.17.08.23.11.27.11.08.23.17.36.23,1.55.73,2.65,1.97,3.83,3.16,1.44,1.46,2.99,2.86,4.65,4.08,2.16,1.59,4.48,2.97,6.71,4.47.63.43,1.2.95,1.8,1.42-.06.1-.11.21-.16.31-.5-.12-1.04-.16-1.5-.37-4.13-1.88-8.1-4.04-11.67-6.89-.25-.2-.52-.36-.87-.6-.07.49-.12.82-.16,1.15-.21,1.58-.66,3.05-1.9,4.15-.31.28-.73.44-1.09.65.06-.39.05-.81.21-1.15.86-1.85,1.09-3.79.96-5.8-.06-.91-.43-1.62-1.34-1.98-1.1-.45-2.19-.91-3.28-1.38-.5-.22-.89-.16-1.33.18-1.17.89-2.45,1.41-3.98,1.49-1.68.08-3.14.72-3.69,2.58-.13.45-.41.87-.71,1.25-1.12,1.49-2.77,2.16-4.48,2.56-2.86.68-5.65,1.52-8.18,2.99-1.19.69-2.54,1.59-3.11,2.74-1.55,3.14-1.9,6.59-1.28,10.03.22,1.22.79,2.6,1.66,3.43,1.3,1.25,2.92,2.25,4.56,3.05,3.45,1.68,7.08,2.6,11,2.38,1.54-.09,3.16.27,4.65.71,2.56.76,4.75,2.22,6.67,4.09.94.91,2.02,1.55,3.39,1.76,1.47.23,2.94.62,4.33,1.15.89.34,1.65,1.06,2.46,1.62,1.7,1.17,3.41,2.32,5.07,3.53l.17.12h.03c.42.27.71.26,1.1-.14l.17-.19c.05-.05.09-.1.13-.16h0s0,0,0-.01c5.3-5.99,9.58-12.62,12.78-19.95,2.14-4.88,3.73-9.83,4.79-14.86.13-.63.25-1.26.37-1.89.09-.47.17-.95.25-1.42.05-.32.1-.63.14-.94.23-1.48.4-2.95.53-4.44.03-.32.05-.64.08-.96.05-.6.08-1.19.12-1.79.04-.69.06-1.38.08-2.07.02-.76.03-1.53.02-2.29,0-.41,0-.83-.01-1.24Zm-101.38,2.88c2.36.45,4,1.04,4.33,3.74.06.53.23,1.05.3,1.58.06.49-.21.91-.67.62-1.34-.86-3.03-1.26-3.91-2.75-.43-.75-.71-1.58-1.06-2.37.14-.63.43-.93.99-.82Zm-4.37.96c.62-1.04.98-.94,1.75-.05.83.97,1.28,1.96,1.3,3.23-.19,1.14-.34,2.28-.57,3.41-.14.68-.67.8-1.21.37-1.92-1.57-2.52-4.85-1.28-6.95Zm-7.72,9.33c1.96,1.28,3.32,3.05,3.78,5.4.03.14-.5.56-.58.52-1.63-.93-3.69-1.34-4.41-3.43-.17-.48-.32-.96-.4-1.21,0-1.21.81-1.8,1.61-1.28Zm-7.18,1.74c.32-.65.82-.73,1.37-.22.98.91,1.81,1.96,2.08,3.32.23,1.21.39,2.45.52,3.68.03.25-.13.67-.32.76-.17.08-.58-.1-.76-.29-.86-.82-1.77-1.6-2.46-2.55-.56-.78-.84-1.78-1.21-2.61.3-.84.48-1.5.78-2.09Zm-4.72,3.1c.52-.63.95-.67,1.41.01.55.81.92,1.74.62,2.72-.36,1.19-.84,2.34-1.3,3.49-.06.17-.36.41-.47.38-.23-.08-.53-.28-.6-.49-.32-.96-.56-1.94-.72-2.51.06-1.6.29-2.69,1.06-3.61Zm2.77-11.93c.37-.35.78-.65,1.17-.96.44-.34.88-.17.85.4-.1,2.04-.74,3.87-2.3,5.27-.44.4-.87.27-1.1-.23-.19-.43-.26-.91-.34-1.21.05-1.5.83-2.43,1.72-3.28Zm34.65-19.01c.62-.43,1.2-.91,1.81-1.35.17-.12.45-.28.58-.21.18.1.41.39.39.58-.27,2.36-.7,4.68-2.88,6.14-.32.21-.73.34-1.11.4-.96.14-1.44-.31-1.44-1.54.25-1.57,1.15-2.97,2.64-4.02Zm-5.38-.82c.1.09.12.4.04.52-1.15,1.61-2.23,3.29-4.13,4.15-.2.09-.43.12-.53.14-1.04,0-1.53-.63-1.15-1.46.72-1.54,1.69-2.81,3.6-2.97.55-.05,1.08-.32,1.63-.45.17-.04.43-.03.54.08Zm-4.96-4.66c.68-.54,1.35-1.11,2.04-1.65.17-.13.51-.26.64-.17.15.1.25.43.22.65-.34,2.45-1.62,4.37-3.47,5.93-.54.46-1.01.29-1.21-.39-.08-.27-.08-.56-.12-.84,0-1.53.78-2.62,1.9-3.54Zm-11.15-6.79c.06-.11.43-.17.6-.1,1.95.8,3.33,2.17,4.06,4.17.04.1.04.22.05.29,0,.66-.23.93-.89.78-1.25-.27-2.13-1.04-2.77-2.08-.44-.71-.79-1.5-1.13-2.27-.09-.21-.04-.55.08-.77Zm-.54,4.83c1.39.29,2.91.42,3.95,1.72.44.56.95,1.11.54,1.89-.27.52-1.67.97-2.3.63-.65-.36-1.27-.84-1.74-1.4-.46-.55-.75-1.26-1.07-1.92-.26-.54-.02-.9.63-.92Zm-5.27-3.93c.12-.16.4-.38.51-.33.19.08.41.33.45.53.12.64.16,1.29.22,1.94.05.02.09.03.14.05-.25.74-.42,1.52-.78,2.2-.38.72-.86.69-1.4.06-.63-.75-.65-2.11-.04-3.12.29-.46.58-.91.91-1.33Zm-2.73-1.9c.47-.26.91-.57,1.38-.84.16-.08.39-.16.52-.1.13.06.17.3.26.46.05.05.1.09.16.14-.54,1.19-1.01,2.4-1.66,3.53-.19.33-.95.61-1.29.49-.32-.11-.55-.77-.63-1.22-.19-1.09.27-1.92,1.25-2.45Zm7.41-21.29c1.21-.89,2.27-2.13,4.03-2.18.91.28,1.83.52,2.73.85.47.17.54.49.16.91-1.72,1.87-4.47,2.4-6.69,1.29-.43-.21-.58-.6-.22-.87Zm-5.05-2.56c.36-.65.83-1.29,1.38-1.79.75-.67,1.62-1.22,2.47-1.78.19-.13.55-.16.76-.06.15.06.27.45.22.63-.54,1.85-1.53,3.38-3.28,4.31-.19.1-.42.14-.52.16-.95-.03-1.44-.75-1.03-1.48Zm-3.72-2.22c.32-.27.59-.6.91-.87.25-.22.54-.39.82-.58.11.32.22.65.4,1.17-.39,1.19-.75,2.49-1.27,3.72-.18.41-.77.65-1.17.98-.3-.41-.76-.78-.85-1.24-.25-1.24.16-2.33,1.16-3.17Zm-9.74,2.4c1.05.24,3.36,2.99,3.46,4.09,0,.06,0,.12,0,.17,0,.07,0,.14-.02.21,0,.05-.01.09-.03.14,0,.05-.02.08-.04.12-.01.04-.03.07-.05.1,0,0,0,.01,0,.02-.02.03-.03.06-.06.08-.03.04-.06.08-.1.1-.03.03-.06.05-.1.06-.02.01-.04.02-.06.03-.03.01-.05.02-.08.03-.02,0-.05.01-.07,0-.07.01-.15.01-.23,0-.05,0-.1-.02-.14-.03-.1-.03-.21-.08-.32-.14-1.11-.62-1.89-1.5-2.21-2.75-.13-.52-.36-1.01-.5-1.53-.12-.42-.11-.86.53-.71Zm-.76,5.74c.05-.1.32-.19.43-.14,2,.75,4.01,1.46,5.17,3.45.13.22.23.45.31.69.41,1.19.14,1.57-1.38,1.56-1.3-.04-2.31-.93-3.04-2.18-.54-.93-1-1.89-1.48-2.85-.08-.16-.08-.4-.01-.54Zm1.28,16.89c.32-.08.67-.06,1.01-.08.01-.06.03-.12.05-.17,1.02.27,2.06.52,3.07.84.3.1.63.34.78.61.22.39.43.9.34,1.3-.05.23-.67.42-1.05.48-1.27.19-2.4-.11-3.33-1.07-.33-.34-.78-.56-1.13-.89-.19-.17-.3-.43-.45-.66.23-.12.45-.3.7-.36Zm-.45-7c.05-.11.1-.47.29-.56.17-.09.54.02.73.17,1.37,1.1,2.39,2.46,2.95,4.13.23.68.25,1.39-.47,1.79-.81.46-1.34-.1-1.8-.65-1.13-1.36-1.42-3.03-1.68-4.88Zm-5.43-4c1.44-1.24,4.77-1.39,6.3-.28.67.49.69.83-.06,1.22-.81.41-1.67.74-2.46,1.08-1.37-.43-2.59-.78-3.78-1.22-.45-.17-.31-.54,0-.8Zm-5.28,7.81c1.03-.97,2.52-1.09,3.71-.4.61.35.67.82.12,1.28-.91.75-1.97,1.09-3.19,1.2-.56-.19-1.13-.38-1.7-.57.36-.51.63-1.09,1.07-1.5Zm3.97,31.23c-1.07,1.21-2.4,2.04-4.01,2.38-.86.19-1.7.4-2.57.55-.24.05-.62-.03-.73-.19-.1-.14,0-.56.16-.72,1.42-1.41,2.79-2.87,4.35-4.12.69-.56,1.73-.77,2.65-.97.75-.16,1.18.32,1.33,1.17-.39.64-.69,1.35-1.18,1.9Zm.34,3.71c-.4.62-.72,1.32-1.23,1.82-.57.55-1.3.98-2.01,1.35-.6.31-1.01-.02-.83-.63.44-1.49,1.32-2.68,2.73-3.38.73-.36,1.2-.05,1.33.83Zm-8.55-5.07c.39-.04.81.21,1.21.32-.14.45-.14,1.15-.43,1.33-1.15.69-2.38,1.25-3.61,1.78-.45.19-1,.15-1.66.23-.12-.07-.51-.19-.53-.35-.03-.29.06-.72.27-.87,1.43-1.11,2.86-2.25,4.76-2.44Zm-.88-3.8c.12-.22.36-.43.6-.51,1.7-.63,3.44-.59,5.18-.21.6.14,1.21.33,1.73.65.71.43.62,1.1-.15,1.37-.9.32-1.83.54-2.94.87-1.33-.52-2.75-1.05-4.15-1.62-.14-.06-.32-.43-.26-.54Zm9.26-.49c-1.89-.7-3.32-1.9-4.13-3.78-.29-.69-.17-1.02.69-1.02.36.15.99.32,1.55.63,1.3.71,2.27,1.78,2.97,3.07.15.28.14.85-.05,1.06-.17.18-.73.16-1.04.05Zm-1.09-4.92c-1.25-.36-2.02-1.28-2.37-2.46-.4-1.38-.66-2.8-.94-4.21-.05-.2.08-.51.24-.65.11-.1.47-.1.6,0,2,1.6,3.38,3.62,4.06,6.1.01.05,0,.11.01.17,0,.86-.68,1.32-1.61,1.05Zm-3.65-12.36c-.29-.98-.29-2.06-.37-3.1-.01-.22.08-.51.24-.65.1-.08.44,0,.6.11,1.76,1.32,2.93,3.01,3.34,5.2.03.16.03.34.04.51.05.04.1.08.16.12-.31.42-.56,1.13-.93,1.21-.51.1-1.35-.12-1.63-.51-.63-.86-1.13-1.87-1.44-2.9Zm-6.06,5.84c.1-.14.59-.15.75-.02,1.64,1.32,3.62,2.24,4.85,4.06.12.19.26.37.38.56.69,1.19.27,1.9-1.41,1.9-1.21-.19-2.25-1.17-3.03-2.35-.67-1.03-1.14-2.21-1.65-3.34-.1-.22-.05-.63.11-.82Zm.4,6.36c1.4.4,2.79.86,4.17,1.33.28.1.61.3.73.55.21.42.41.94.34,1.37-.03.19-.72.29-1.12.41-.13.04-.28,0-.45,0-1.13.19-2.05-.24-2.82-1.09-.41-.45-.95-.8-1.35-1.27-.23-.26-.29-.66-.42-1,.32-.11.68-.38.95-.31Zm-4.78,7.92c-.02-.25.14-.66.34-.75,1.14-.52,2.31-.96,3.48-1.43.03.05.07.1.1.15.35.1.71.17,1.04.32.7.34.75.97.13,1.46-.76.61-1.63.89-2.6.8-.62-.05-1.24-.08-1.85-.18-.25-.05-.63-.23-.65-.38Zm1.29,9.11c0-.18.14-.46.29-.53.53-.26,1.08-.51,1.65-.63.99-.23,2-.39,3.01-.5.4-.05.86.04,1.23.2.81.36.87,1.15.08,1.53-.83.4-1.74.6-2.26.78-1.47-.19-2.53-.32-3.59-.49-.16-.03-.41-.23-.41-.35Zm2.18,4.11c.17-.23.29-.56.52-.69,1.93-1.06,3.92-2.03,6.15-2.28.43-.05,1.03.17,1.3.49.15.18-.14.86-.37,1.21-.91,1.35-2.24,1.92-3.84,1.9-.98-.05-1.98-.06-2.95-.17-.29-.03-.54-.3-.8-.47Zm3.41,6.09c-.25-.06-.44-.36-.65-.56.2-.17.38-.42.61-.5,1.85-.61,3.67-1.33,5.68-1,.25.04.56.02.73.16.41.34.93.73,1.03,1.19.05.25-.6.8-1.04.97-.75.3-1.57.41-2.32.6-1.4-.29-2.73-.54-4.04-.86Zm13.09,2.29c.24-.64.83-1.19,1.35-1.67.4-.37.81-.27,1.05.32,1.09,2.68-.23,4.44-2.25,6.15-.15.13-.62.16-.67.06-.2-.3-.29-.69-.45-1.14.3-1.23.52-2.53.97-3.73Zm-3.03-2.11c.65-.27,1.26.23,1.23.84-.1,2.43-1.94,4.83-4.22,5.5-.24.07-.64.08-.77-.06-.16-.19-.24-.58-.17-.84.44-1.52.91-3.06,2.08-4.2.52-.51,1.17-.96,1.85-1.24Zm.79-4.11c-.1.29-.77.38-1.19.56-1.46-.14-2.37-.79-2.9-2.11-.25-.65-.65-1.24-.92-1.89-.1-.25-.14-.67,0-.82.14-.15.59-.16.82-.05,1.5.69,2.89,1.57,3.82,2.98.25.38.5.97.38,1.34Zm4.05-10.33h.01c0-.43-.03-.86.01-1.28.02-.19.12-.47.28-.55.14-.07.46,0,.58.13,1.43,1.43,2.36,3.1,2.32,5.18-.03.96-.6,1.27-1.43.81-1.17-.65-1.57-1.8-1.76-3.03-.06-.41-.01-.85-.01-1.27Zm-1.19,4.44c1.74.63,3.19,1.69,4.35,3.13.02.03.05.06.06.08.03.04.05.07.06.11.02.03.04.07.05.11.03.05.05.11.06.16.02.06.04.11.05.16.03.1.06.18.08.23,0,.12,0,.24-.01.35,0,.1-.02.18-.04.27-.01.08-.04.16-.06.22-.02.05-.05.1-.07.14-.04.06-.08.12-.14.16-.04.03-.08.06-.12.08-.03.01-.05.02-.07.03-.03.01-.05.02-.08.02-.15.05-.33.05-.54.02-1.74-.23-3.23-.84-3.83-2.72-.17-.53-.52-1.01-.68-1.55-.09-.29-.07-.71.09-.93.12-.16.59-.17.84-.08Zm-2.22-8.44c1.01-.59,1.42-.36,1.52.83.01.14.02.29.03.35-.11,2.13-1.2,3.56-2.92,4.55-.52.3-.76,0-.87-.51-.41-1.8.66-4.29,2.25-5.22Zm16.64-2.3c-.41.93-1,1.79-1.64,2.59-.23.3-.8.32-1.35.51-.38-.23-.96-.4-1.09-.73-.13-.34.06-.95.33-1.26.78-.93,1.66-1.78,2.94-2,.83-.14,1.15.13.81.89Zm5.13-4.33c.4,0,.73.23.66.77-.13,1.06-.54,1.96-1.63,2.37-.42.16-.83.4-1.26.49-.19.04-.6-.19-.63-.35-.19-1.07,1.72-3.28,2.86-3.28Zm-6.82,1.65c.84-1.52,1.88-2.83,3.68-3.25.69-.16,1.06.14,1.01.72-.22.97-.75,1.7-1.64,2.14-.76.38-1.53.72-2.31,1.03-.19.07-.5,0-.69-.12-.1-.05-.13-.39-.05-.52Zm-4.98-1.54c1.03-1.2,2.27-2.12,3.84-2.48.8-.18,1.24.48.86,1.22-.47.91-1.3,1.41-2.23,1.7-.63.21-1.33.25-2.12.39-.07-.04-.32-.08-.38-.21-.07-.17-.08-.49.03-.62Zm-1.04,2.19c.17-.06.34-.12.52-.16.07-.02.14-.03.21-.05.13-.03.27-.05.4-.07.3-.05.62-.05.93-.07.17-.01.34-.07.51-.04.29.05.56.15.83.23-.1.25-.16.54-.32.73-.69.8-1.33,1.7-2.18,2.31-.07.05-.14.09-.22.13-.12.06-.25.11-.4.15-.11.03-.23.05-.34.07-.06,0-.13.02-.19.02-.05,0-.08,0-.13.01-.03,0-.05,0-.07,0-.24.01-.49,0-.71-.01-1.06-.08-1.37-.99-.72-1.85.07-.1.15-.19.23-.27.05-.06.1-.12.16-.17,0-.01,0,0,0,0,.07-.08.14-.15.22-.21.12-.11.26-.21.4-.3.07-.05.15-.1.23-.14,0,0,0-.01.01,0,.01-.01.03-.02.04-.03.11-.06.23-.12.34-.17.08-.04.17-.07.25-.1Zm-5.92.01c1.1-1.79,2.6-3.12,4.61-3.82.57-.19.93.05.98.72-.25,1.29-.93,2.36-2.14,2.95-.91.43-1.92.66-2.9.94-.17.05-.49-.04-.58-.17-.1-.14-.08-.46.03-.62Zm-1.21-1.5c.08.19.04.45.05.7,0,.17,0,.37-.03.56-.14.91-.84,1.22-1.59.71-1.39-.93-1.91-2.42-1.55-4.33.12-.63.14-1.28.24-1.9.03-.19.15-.42.3-.54.07-.06.41.08.47.2.73,1.52,1.43,3.06,2.11,4.6Zm-.38-8.11c-.06.63-.51.79-1.13.51-1.96-.89-2.68-2.06-2.56-4.37-.08-.62-.18-1.22-.22-1.84-.01-.22.08-.56.24-.64.16-.09.56-.02.67.12,1,1.25,2.07,2.47,2.86,3.85.36.62.21,1.58.14,2.37Zm1.34-7.95c-.3.44-.94.65-1.24.84-1.85-.23-2.89-1.09-3.59-2.41-.38-.73-.73-1.46-1.05-2.21-.09-.21-.16-.58-.05-.69.16-.16.52-.27.74-.2.64.19,1.33.38,1.87.75,1,.71,1.94,1.54,2.86,2.35.47.41.84,1.02.45,1.57Zm-.84-5.75c-.66-.34-1.32-.51-1.76-.93-.71-.66-1.31-1.46-1.92-2.24-.13-.16-.11-.45-.16-.67.23-.05.48-.17.7-.14,1.44.23,2.76.83,3.85,1.79.34.3.67.97.56,1.32-.11.36-.78.56-1.28.87Zm3.98,13.39c-.02.3-.12.62-.27.89-.38.71-1.03.78-1.57.17-.71-.8-.97-1.76-1.03-2.99.17-.85.35-1.88.6-2.89.13-.49.76-.54.96-.04.61,1.57,1.43,3.1,1.3,4.86Zm6.3-2.92c.49-.11.82.08.69.62-.01.07-.04.16-.08.24-.03.07-.07.15-.12.23-.43.77-1.46,1.8-2.46,2.53-.19.14-.38.27-.56.38-.11.07-.22.14-.32.19-.06.03-.12.06-.18.09-.06.03-.12.06-.17.08-.11.05-.21.08-.31.11-.06.02-.12.03-.18.04-.05,0-.11,0-.17.01-.76.02-1.08-.43-.83-1.15.26-.76.59-1.44,1.08-1.95.06-.06.12-.12.18-.18.06-.06.12-.11.19-.16.07-.05.14-.1.21-.15.09-.06.18-.12.28-.16.05-.03.09-.05.14-.07.13-.06.27-.11.42-.16.07-.03.14-.05.21-.06.06-.01.12-.03.19-.04.09-.02.19-.03.29-.05h.02c.5-.06.98-.28,1.48-.39Zm-1.85-4.01c.25.41.55.91.5,1.32-.03.3-.57.61-.94.8-.31.16-.71.15-1.06.21-.03.05-.06.09-.09.14-.7-.31-1.41-.6-2.1-.93-.51-.25-1-.51-1.48-.81-.19-.12-.36-.38-.39-.58-.02-.14.23-.38.41-.44,1.46-.51,2.94-.82,4.44-.13.25.12.58.21.71.42Zm-.42-12.81c.21-.04.61.36.74.65.32.68.52,1.41.82,2.26-.43,1.28-.84,2.62-1.33,3.93-.21.54-.66.56-.93.01-.98-2.01-1.31-4.08-.25-6.17.16-.32.6-.62.95-.69Zm.25-7.13c-.16.28-.52.57-.82.6-.21.02-.52-.35-.68-.62-1.01-1.71-.96-3.43.02-5.15.3-.54.5-1.15.8-1.68.15-.27.43-.45.65-.67.19.26.47.49.54.78.21.84.34,1.71.45,2.29-.05,1.76-.2,3.19-.97,4.46Zm1.81.18c-.19-.1-.24-.49-.25-.53.12-1.85.73-3.16,2.01-4.13.41-.3.74-.71,1.14-1.02.03-.03.07-.05.11-.06h0s.06-.04.1-.05c.01,0,.03,0,.04-.01.03,0,.06-.02.1-.02.04,0,.08-.01.12-.01.05,0,.09,0,.13.01.12.03.27.32.24.47-.01.08-.03.16-.04.25-.01.08-.03.16-.04.25-.04.24-.08.49-.14.72-.05.23-.12.47-.19.69-.03.09-.05.17-.08.25-.03.11-.08.22-.12.32-.06.16-.13.3-.2.45,0,0,0,.01,0,.02-.08.14-.16.28-.23.41-.09.14-.18.28-.28.41h0c-.22.32-.49.62-.8.89l-.12.1c-.06.05-.12.1-.19.15-.14.11-.29.21-.45.31-.23.14-.63.22-.86.12Zm1.72,3.25c-.32-.09-.63-.17-.83-.32-.04-.03-.07-.06-.1-.09-.03-.03-.05-.06-.06-.09-.33-.69.34-1.22.86-1.65.16-.14.32-.27.49-.38.29-.21.58-.4.87-.55.12-.07.23-.13.36-.19.03-.01.05-.03.08-.03.15-.07.3-.13.45-.19.17-.06.34-.12.51-.16.12-.03.24-.06.36-.08.08-.03.16-.04.24-.05.1-.02.19-.03.29-.04.07-.01.15-.02.23-.02.12,0,.25-.01.38-.01h.14c.22,0,.43.16.65.25-.1.18-.19.38-.32.54-.49.62-1.01,1.21-1.48,1.85-.64.87-1.47,1.29-2.6,1.37-.16-.06-.33-.11-.51-.16Zm3.88,4.11c-.78-.19-1.37-.27-1.92-.47-.67-.24-.82-1.17-.12-1.74.95-.76,2.03-1.36,3.14-1.89.72-.35,1.56-.47,2.36-.63.24-.05.62-.03.75.12.12.15.1.57-.03.75-.75,1.05-1.46,2.14-2.36,3.06-.47.47-1.29.59-1.82.82Zm8.64.62c-1.11.93-2.01,2.2-3.62,2.36-.11.01-.23.02-.34.03-.03.05-.05.1-.06.16-.69-.27-1.43-.49-2.07-.85-.79-.44-.8-.97-.07-1.5,1.33-.98,2.87-1.26,4.49-1.2.42.01.85.06,1.26.15.48.1.77.56.41.86Zm1.69-2.19c-.12.21-.57.24-.66.27-2.01-.07-3.82-1.54-4.33-3.31-.18-.62.21-.69.64-.65,1.67.16,2.84,1.11,3.82,2.38.1.14.21.28.27.43.12.3.37.7.27.88Zm-1.13-5.88c-.51.3-1.06.53-1.61.75-.67.26-.92.05-.84-.63.16-1.39,2.1-3.54,3.44-3.79.95-.18.56.58.67,1-.03,1.22-.67,2.07-1.66,2.68Zm3.57-.6c.19.05.37.43.45.71.1.34.1.73.15,1.09.05.03.11.05.17.07-.37,1.05-.7,2.12-1.13,3.15-.21.51-.63.54-.95,0-.86-1.51-.63-3.39.56-4.63.19-.2.54-.44.76-.39Zm-1.06-7.74c-1.48.06-2.46-.45-3.16-1.5-.41-.61-.77-1.25-1.14-1.89-.25-.44-.05-.76.4-.8,2.3-.2,4.04.3,4.78,2.65.42,1.33.29,1.52-.88,1.54Zm3.34-4.09c-.03.4-.34.78-.52,1.17-.34-.16-.69-.29-1-.49-.06-.04-.12-.08-.18-.12s-.11-.08-.17-.13c-.11-.08-.21-.17-.31-.27-.1-.1-.19-.19-.27-.3-.12-.13-.21-.27-.29-.4-.05-.06-.08-.13-.12-.2-.05-.08-.09-.16-.12-.25-.03-.06-.06-.14-.08-.2-.03-.09-.06-.18-.09-.28-.03-.09-.05-.19-.07-.29-.01-.05-.02-.1-.03-.16-.02-.08-.03-.15-.04-.23-.05-.31-.06-.63-.04-.96,0-.08,0-.16,0-.23,0-.03,0-.06,0-.08,0-.09,0-.17.03-.25.11-.4.24-.8.36-1.21.36.23.78.41,1.09.69,1.21,1.12,1.96,2.48,1.84,4.18Zm1.89-3.93c-.24.57-.66.63-1.21.17-1.52-1.29-1.87-2.81-1.17-4.65.25-.66.41-1.35.65-2.01.05-.16.21-.34.36-.4.08-.04.32.13.37.25.61,1.41,1.68,2.67,1.65,4.39-.21.75-.35,1.53-.65,2.24Zm60.08-.4c1.09-.04,2.2.07,3.29.14.19.01.38.16.56.24-.08.17-.12.38-.24.49-.95.83-3.96,1.86-5.31,1.84-.04.06-.07.14-.11.2-.52-.29-1.33-.45-1.51-.89-.31-.76.38-1.34,1.05-1.59.71-.27,1.5-.41,2.27-.44Zm-6.17,5.47c-.97-.36-.91-.75-.03-1.33,1.37-.91,2.76-.74,4.1-.04.75.38,1.39.96,2.07,1.48.14.1.19.32.29.48-.18.1-.36.27-.55.29-.53.06-1.07.06-1.61.09-.02.07-.05.14-.06.22-1.4-.39-2.84-.69-4.2-1.19Zm3.25,5.79c-.25.05-.57.21-.75.12-1.96-1.03-3.81-2.22-5.04-4.13-.47-.72-.15-1.19.89-1.2,1.57.18,2.73,1.19,3.54,2.69.35.63.78,1.22,1.15,1.85.12.19.14.45.21.67Zm-.58-14.33c.22-.2.59-.23.89-.33.03.29.11.59.06.87-.43,2.47-1.97,4.19-3.91,5.61-.18.13-.49.2-.69.15-.03,0-.05-.03-.07-.05-.05-.05-.08-.14-.1-.19,0-.01,0-.03,0-.04v-.02h0c-.07-1.71.75-2.79,1.6-3.8.67-.8,1.45-1.5,2.23-2.2Zm-6.04.89c.3-.82.65-1.61,1-2.42.1-.21.27-.38.41-.57.17.17.37.3.5.5,1.37,2.07.51,3.93-.63,5.73-.24.38-.54.73-.86,1.04-.14.14-.39.24-.58.22-.1-.01-.23-.29-.25-.47-.1-.55-.16-1.11-.26-1.92.17-.57.38-1.35.65-2.12Zm-6.1-4.57c.68.06,1.36.13,2.04.2-1.1,1.19-2.29,2.11-3.87,2.21-.71.05-.91-.4-.58-1.06.49-.95,1.35-1.44,2.42-1.35Zm-17.03,1.55c.21-.06.45-.05.52-.05,1.47,0,2.45.55,3.01,1.76.32.68.1.9-.65.89-1.35-.02-2.37-.63-3.18-1.67-.14-.19-.23-.42-.34-.63.22-.1.42-.24.65-.3Zm-6.13,1.02c.1-1.19.37-2.27,1.53-2.94.91-.52,1.75-1.14,2.64-1.69.17-.1.47-.19.6-.11.13.07.19.4.16.58-.44,1.94-1.34,3.6-3.04,4.72-.29.19-.66.28-.84.35-.79,0-1.09-.34-1.05-.91Zm-3.06,6.71c-.9.43-2.18.1-2.26-.37-.15-.88.32-1.58.95-2.14.83-.75,1.85-1.04,2.61-1.1,1.32,0,2.3-.01,3.28.01.19,0,.49.12.55.27.06.14-.06.48-.21.56-1.63.95-3.23,1.96-4.92,2.77Zm3.3,6.52c-.05.12-.33.24-.47.2-1.18-.29-2.4-.5-3.5-.98-1.38-.6-2.2-1.84-2.83-3.16-.08-.19.17-.71.41-.84.37-.21.86-.24,1.13-.3,2.04.11,3.24,1.13,4.04,2.75.3.63.73,1.2,1.08,1.8.09.16.21.38.16.52Zm-18.4-15.92c.1-.45.41-.51.76-.21.85.73,1.33,2.84.79,3.88-.2.38-.75.92-.97.86-.4-.12-.71-.62-.97-1.02-.14-.21-.08-.55-.12-.97.15-.76.31-1.65.52-2.53Zm-2.09,8.62c.3-.74.84-1.46,1.46-1.96.73-.59,1.65-.95,2.49-1.4.14-.07.31-.07.59-.14-.03.32.03.6-.07.78-.8,1.32-1.57,2.66-2.46,3.91-.41.57-1.19,1.09-1.81.56-.34-.29-.41-1.25-.21-1.76Zm2.46,10.9c-.32.16-.97-.05-1.33-.3-1.42-.97-1.81-2.53-1.11-4.1.2-.47.34-.96.54-1.42.08-.18.27-.4.44-.43.17-.03.48.12.54.27.61,1.51,1.18,3.03,1.79,4.64-.32.53-.49,1.15-.87,1.33Zm3.29-6.28c-.36.06-.73.05-1.09.08-1.21.05-2.28-.32-3.24-1.04-.49-.37-.57-.69.07-1.07.99-.6,1.93-.54,2.86.03.58.36,1.11.76,1.65,1.18.14.1.3.38.25.47-.08.16-.31.3-.5.34Zm4.41-4.17c-.95,1.11-2.2,1.3-3.54,1.06-.52-.1-1.04-.27-1.55-.44-.65-.21-.75-.56-.24-1.04.79-.75,1.66-1.38,2.92-1.39.75.28,1.51.54,2.25.86.51.21.49.58.17.95Zm-.23-2.69c-1.63-.19-2.85-1.06-3.65-2.45-.52-.89-.88-1.89-1.28-2.86-.07-.17-.02-.43.06-.62.03-.07.34-.11.45-.05,2,1.16,4.17,2.13,5.16,4.44.06.13.12.26.16.4.32.9.08,1.19-.89,1.13Zm2.64-2.91c-.18.05-.63-.4-.77-.71-.32-.74-.51-1.53-.75-2.26.18-.62.28-1.15.5-1.62.31-.66.7-1.28,1.08-1.91.09-.15.29-.32.43-.32.14,0,.37.18.41.33.51,1.9.92,3.81-.04,5.68-.17.35-.52.72-.87.82Zm.84,2.18c.36-.71.55-1.65,1.12-2.11,1.22-.98,2.62-1.73,3.97-2.54.12-.08.42-.03.53.07.1.1.13.38.06.52-.94,2.05-2.2,3.82-4.35,4.77-.73.32-1.18.05-1.34-.72Zm-2.86,11.01c.1-.99.76-1.96,1.3-2.86.29-.45.92-.27,1.15.16.47.87.88,1.79,1.21,2.73.17.49.1,1.06.14,1.6.03,0,.05,0,.07,0-.12,1.18-.22,2.36-.39,3.54-.09.62-.69.82-1.04.34-1.21-1.67-2.67-3.3-2.44-5.52Zm-3.28,4.63c.1-.84.67-1.11,1.39-.63,1.16.78,1.76,1.97,2.22,3.23.4,1.08.71,2.2,1.05,3.31.17.55-.16.94-.68.82-1.7-.4-3.81-2.7-4.08-4.44-.03-.23-.03-.45-.04-.51.05-.71.08-1.24.14-1.78Zm-3.64,2.48c.78-.82,1.61-.76,2.04.3.32.79.4,1.68.57,2.47-.21,1.33-.4,2.56-.63,3.78-.04.2-.27.44-.46.51-.12.05-.42-.16-.51-.32-.55-.98-1.08-1.98-1.58-2.99-.67-1.37-.49-2.62.57-3.74Zm4.47,11.88c-.47.07-.96.02-1.44.02-.01.1-.03.2-.04.3-1.49-.29-3.04-.4-4.44-.92-.82-.3-1.52-1.15-2.04-1.9-.59-.87.05-1.74,1.11-1.61,2.08.25,4,.96,5.77,2.08.48.3.96.61,1.4.97.19.15.28.43.41.65-.25.15-.48.38-.74.42Zm4.78-3.64c-.1.03-.22,0-.58,0-1.32-.21-2.93-.21-4.24-1.28-.23-.19-.54-.45-.56-.71-.06-.48-.1-1.11.16-1.43.25-.3.91-.42,1.36-.36.47.05.92.38,1.35.63.95.55,1.91,1.09,2.81,1.72.35.24.56.69.84,1.04-.38.12-.76.25-1.15.37Zm3.38-3.68c-2.05-.63-3.28-2.13-4.01-4.05-.07-.19.24-.73.45-.77,1.74-.38,4.68,2.29,4.57,4.39-.03.37-.38.63-1,.43Zm-.34-9.75c0-1.14.54-1.46,1.57-.97,1.35.64,1.79,1.81,1.94,3.16.07.7.12,1.41.17,2.11.05.51-.14.7-.65.46-1.42-.66-3.03-3.17-3.04-4.76Zm8.28,16.34c-1.67.29-2.97-.47-4.12-1.55-.56-.52-1.04-1.11-1.53-1.7-.16-.19-.22-.48-.32-.72.23-.06.46-.14.7-.17.25-.03.51,0,.76,0,2.28.03,4.17.71,5.09,3.04.29.73.21.98-.58,1.11Zm1.16-6.24c-1.26.63-2.59.46-3.78-.36-.82-.56-1.61-1.14-2.4-1.72-.12-.09-.18-.26-.34-.49,2.12-.58,4.12-.75,6.16-.41.08.01.18.03.25.06.58.4,1.17.81,1.75,1.21-.54.58-.98,1.37-1.64,1.7Zm4.11-6.91c-.99,2.01-2.84,2.3-5.03,2.42-.29-.07-.8-.19-1.3-.3.24-.52.41-1.09.74-1.55,1.17-1.61,3.23-2.37,4.99-1.9.87.23,1,.52.6,1.33Zm.45-4.86c-1.16,1.78-2.79,2.08-4.72,1.54-.6-.17-1.24-.2-1.87-.29-.03-.11-.06-.22-.09-.33.58-.35,1.15-.73,1.76-1.05,1.39-.73,2.83-1.3,4.44-1.03.28.05.66.18.76.39.08.18-.12.54-.28.78Zm1.03-4.5c-1.04,1.72-2.82,2.87-4.99,2.19-.8-.25-1.63-.47-2.43-.72-.17-.05-.35-.17-.45-.32-.04-.06.09-.33.2-.39,1.71-.91,3.32-2.1,5.43-1.94.58.08,1.17.15,1.76.23.6.09.8.41.48.95Zm1.46-5.79c-.89,1.35-2.16,1.92-3.74,1.85-.78-.04-1.57-.08-2.36-.12-.43-.02-.62-.26-.29-.59,1.59-1.61,3.35-2.86,5.81-2.44,1.04.17,1.16.45.59,1.31Zm1.52-2.57c-.4.07-.89.12-1.23-.05-1.47-.72-1.96-2.3-2.99-3.43,1.51-.32,4.21,1.19,4.72,2.45.21.51.08.93-.5,1.02Zm-.23-3.91c-.94-.34-1.37-.98-1.41-1.99-.03-.62-.17-1.22-.23-1.84-.02-.23.07-.47.11-.71.22.05.49.04.66.16,1.15.86,2.22,1.79,2.27,3.33,0,.97-.54,1.35-1.4,1.04Zm2.27,2.36c-.27-1.11-.01-1.97.95-2.55.45-.28.95-.49,1.46-.66.95-.34,1.92-.63,2.88-.93.17-.05.37-.03.83-.06-1.3,2.18-2.68,3.92-4.85,4.86-.57.25-1.08.12-1.27-.65Zm4.66,10.12c-.12,1.02-1.11,1.35-1.98.8-1.32-.85-2.31-1.9-2.27-3.6.05-.89.08-1.79.15-2.69.01-.16.08-.37.19-.42.1-.05.34.02.44.12,1.13,1.13,2.52,2.05,3.13,3.6.27.67.43,1.47.34,2.18Zm-2.47-6.68c-.33-.1-.78-.46-.8-.73-.03-.28.35-.67.64-.89,1.39-1.07,3.33-1.12,4.87-.26.73.41,1.54.69,2.29,1.07.23.12.38.36.57.54-.2.17-.38.44-.6.49-1.1.25-2.21.44-3.41.67-1.16-.29-2.37-.55-3.56-.9Zm9.96,5.16c-1.11.82-2.4,1.09-4.04,1.18-.4-.1-1.09-.23-1.76-.46-.51-.17-.58-.6-.1-.87,1.08-.6,2.16-1.22,3.31-1.67.91-.35,1.89-.29,2.68.49.5.5.47.92-.09,1.33Zm-4.31,6.78c.41-.41.94-.19,1.14.25.32.69.49,1.46.72,2.2-.12,1.43-.53,2.68-1.26,3.83-.12.18-.36.36-.56.39-.1.02-.31-.27-.39-.46-.35-.83-.72-1.66-.99-2.52-.49-1.55.34-2.68,1.34-3.69Zm-1.98,15c-1.84.1-3.39-.41-4.5-1.98-.41-.57-.86-1.12-1.27-1.68-.38-.52-.27-.84.37-.92.3-.05.62,0,.93,0,2.09-.03,3.84.6,4.87,2.55.18.34.29.74.37,1.12.12.59-.13.87-.76.91Zm3.85-1.24c-.34.79-.79.86-1.46.34-1.07-.83-1.51-2.02-1.02-3.3.43-1.13,1.04-2.18,1.59-3.26.08-.14.38-.32.45-.27.19.12.41.33.45.53.21,1.28.38,2.57.59,4.03-.17.56-.32,1.28-.61,1.93Zm3.5-10.02c-.03.15-.23.3-.4.35-.08.03-.27-.16-.34-.29-.33-.62-.66-1.24-.95-1.87-.78-1.72-.63-3.36.47-4.9.45-.62,1.04-.58,1.26.14.31.99.47,2.03.67,2.95-.25,1.3-.47,2.46-.72,3.62Zm5.64,4.53c-.11.03-.23.03-.44.05-.89.16-1.74-.16-2.47-.82-.64-.59-1.27-1.21-1.86-1.85-.41-.46-.25-.89.35-.93,2.02-.14,3.82.39,5.1,2.06.24.32.27.8.39,1.21-.36.1-.71.19-1.07.29Zm5.37-2.2c-.34.29-1.11.22-1.63.07-1.81-.52-3.1-1.81-4.31-3.17-.4-.45-.25-.78.35-.87.28-.04.56-.06.58-.06,1.85,0,3.26.47,4.39,1.65.17.18.34.38.45.6.31.58.75,1.28.17,1.78Zm2.65-2.47c-.17.5-.57.55-1,.16-1.14-1.03-1.63-2.33-1.71-3.89.2-1.13.4-2.33.63-3.51.1-.45.44-.57.71-.14.89,1.46,2.11,2.81,2.03,4.65-.04.92-.36,1.85-.66,2.74Zm-31.5,34.45c-1.73-.06-2.92-1.13-3.33-3.03-.19-.87-.37-1.75-.52-2.64-.08-.49.17-.72.64-.54,1.67.64,4.11,3.3,4.32,5.22.08.82-.14,1.01-1.11.98Zm2.79-4.44c-1.17-.11-2.05-.76-2.82-1.57-1.04-1.09-1.51-2.43-1.57-3.93,0-.47.17-.99.71-.62,1.53,1.08,3.28,1.94,4.05,3.83.19.47.34.96.43,1.45.13.63-.17.9-.8.84Zm11.28-13.75c1.54.09,2.74.84,3.53,2.16.42.71-.03,1.24-1.37,1.24-.3-.19-.95-.51-1.47-.98-.47-.43-.81-1.01-1.17-1.54-.34-.51-.14-.9.49-.87Zm-2.37,3.81c1.31.14,2.71-.05,3.82.88.69.57,1.35,1.19,1.9,1.89.59.75.32,1.25-.62,1.41-.3.05-.62.06-.89.09-1.19-.04-2.2-.4-3.01-1.24-.59-.61-1.19-1.22-1.74-1.87-.19-.23-.23-.59-.33-.89.29-.1.6-.3.88-.27Zm-6.56,1c-.05-.17.19-.62.26-.62,1.68.16,3.43.2,4.61,1.67.29.35.63.99.49,1.26-.19.38-.82.53-1.26.78-1.66-.17-3.64-1.6-4.09-3.1Zm1.6,5.7c1.07-.51,2.13-1.09,3.26-1.39.74-.19,1.63-.07,2.38.14.77.21.84.96.25,1.52-1.04.98-2.34,1.33-4.09,1.43-.4-.12-1.15-.25-1.83-.56-.69-.31-.65-.82.03-1.13Zm4.66,7.81c-.98,1.32-2.31,2.24-3.89,2.73-.76.23-1.07-.1-.86-.87.23-.84.44-1.69.71-2.53.36-1.16,1.14-2.01,2.16-2.62,1.15-.68,2.57.12,2.57,1.73-.15.34-.3,1.04-.69,1.56Zm2.16,4.25c-.49.34-.76.05-.82-.42-.06-.48-.01-.97-.01-1.44-.11-2.17.73-3.84,2.73-4.82,1.21-.6,1.78-.23,1.74,1.09-.1,2.58-1.65,4.24-3.63,5.59Zm4.11-10.92c-.53,1.64-1.99,2.51-4.18,2.71-.47-.12-.93-.23-1.4-.34.22-.43.4-.89.67-1.28.86-1.25,2-2.16,3.48-2.55.44-.11,1.08-.08,1.39.17.23.18.17.89.04,1.29Zm3.14-8.76c.15-1.03.86-2,2.07-2.65.77-.41,1.5-.89,2.26-1.32.19-.11.45-.13.68-.19.06.25.2.52.16.76-.3,1.78-1.32,3.17-2.57,4.39-.23.23-.56.39-.87.51-1.15.48-1.75.06-1.72-1.51Zm6.47,2.75c-1.06,1.64-2.2,3.24-4.1,4.04-.25.1-.56.06-.61.07-1.43,0-1.61-.23-1.35-1.43.3-1.4,1.11-2.33,2.53-2.66.98-.23,1.97-.46,2.96-.65.48-.09.82.26.57.63Zm1.07-3.38c.11-1.83.3-3.66,2.04-4.79.45-.3.98-.49,1.48-.73.72.08.89.49.88,1.03-.01,1.18-.6,2.13-1.33,2.95-.64.71-1.4,1.32-2.14,1.92-.49.4-.95.2-.92-.39Zm3.91,7.64c-.27.13-.76-.11-1.11-.27-2.07-.97-2.52-2.8-2.51-4.85,0-.46.1-.98.71-.65,1.66.91,2.97,2.13,3.34,4.11.04.19.05.39.1.79-.11.21-.23.74-.52.88Zm6.7-12.8c-.26,1.74-.91,3.32-2.21,4.57-.29.28-.57.56-.9.78-.23.16-.63.37-.8.27-.23-.14-.33-.52-.42-.82-.06-.21-.01-.45-.01-.67.13-2.24.73-4.18,3.09-5.08.89-.34,1.39-.03,1.25.95Zm-9.72,25.81c-.47-.3-1.06-.51-1.39-.93-.78-.97-1.2-2.11-1.21-3.38,0-.36-.12-.73-.1-1.09.02-.32.09-.84.29-.92.25-.1.71.06.97.25,1.04.82,1.61,1.95,1.89,3.23.08.39.16.78.23,1.17.05.03.09.06.14.08-.27.52-.54,1.06-.82,1.58Zm-3.46,16.61c-.59,0-1.19.05-1.78-.02-.3-.04-.68-.21-.82-.44-.1-.19,0-.65.18-.83,1.48-1.48,4.18-3.06,6.72-2.07.26.1.52.23.75.4.66.49.63.84.06,1.41-1.44,1.45-3.28,1.46-5.12,1.55Zm12.85,9.1c-1.18-.41-2.38-.78-3.53-1.27-.69-.3-1.3-.79-1.92-1.22-.14-.1-.3-.32-.28-.45.03-.14.25-.34.4-.36,2.16-.23,4.32-.59,6.47-.56,1.05.01,2.13.69,3.13,1.19.52.26.3.72-.1,1.01-1.22.86-2.53,1.5-4.09,1.4-.03.09-.05.17-.07.27Zm2.45,4.84c-.58.11-1.13.3-1.71.42-.19.04-.56,0-.6-.09-.07-.19-.06-.52.06-.68.89-1.19,1.85-2.35,2.73-3.55.93-1.25,2.33-1.54,3.69-1.89.23-.06.61.49.92.76-.05.06-.1.12-.16.19-.04.19-.03.41-.12.58-1.02,2.08-2.36,3.79-4.82,4.26Zm21.1-42.95c-.62,1.56-1.48,2.98-3.03,3.82-.34.18-.75.21-.95.27-.98.01-1.33-.34-1.29-1.14.05-.93.56-1.61,1.36-1.99,1.09-.52,2.24-.93,3.37-1.36.34-.13.73-.05.54.41Zm-9.93,26.69c.71-1.37,1.94-1.97,2.97-2.07,1.46.09,2.44.14,3.43.22.19.02.49.17.52.3.05.21-.02.56-.17.67-1.7,1.22-3.41,2.47-5.57,2.68-.41.04-.98-.3-1.27-.64-.18-.22-.07-.82.1-1.16Zm-2.22-6.21c-.43-.4-.46-.69.02-.99,2.05-1.25,4.2-1.81,6.55-.83.36.15.76.23,1.11.41.25.13.54.35.6.58.04.16-.26.52-.47.59-1.61.5-3.24.95-4.86,1.42-.02-.07-.03-.14-.05-.21-1.1.09-2.05-.2-2.89-.97Zm7.98-11.53c-.99-.38-1.99-.63-2.86-1.11-1.01-.56-.9-1.44.1-2,1.63-.89,3.14-.69,4.6.37.41.3.87.53,1.3.78.49.29.65.66.03.91-1.02.4-2.07.69-3.17,1.05Zm-1.72-21.24c.17,0,.41.12.48.26.06.12-.03.41-.14.51-1.66,1.39-3.34,2.74-5.51,2.64-.33,0-.49.04-.61,0-.38-.14-.74-.32-1.11-.47.19-.31.36-.63.57-.93,1.59-2.28,4.02-1.96,6.32-1.99Zm-4.96-3.43c.27.16.49.4.73.61-.26.17-.49.43-.77.5-.8.19-1.61.32-2.42.45-.22.04-.45,0-.68,0-.02.07-.05.14-.06.21-.84-.29-1.74-.48-2.49-.91-.86-.49-.8-1.4-.01-2.01,1.17-.91,2.29-.87,3.49-.03.69.48,1.5.77,2.23,1.19Zm-7.51-1.54c-.74.58-1.74.83-2.64,1.22-.69-.3-1.46-.4-1.73-.82-.43-.67.04-1.43.62-1.84.79-.56,1.67-1.06,2.57-1.4.95-.35,1.96-.51,2.96-.71.3-.06.63.04.95.06-.1.3-.12.67-.3.89-.77.89-1.5,1.87-2.42,2.58Zm1.85,4.7c.17.38.45.71.65,1.09.1.18.2.46.13.6-.08.15-.38.29-.56.26-1.57-.24-3.16-.43-4.45-1.48-.17-.14-.34-.29-.51-.45-.55-.51-.81-1.21-.49-1.83.17-.34.86-.42,1.32-.62,1.79.14,3.14.78,3.91,2.42Zm-5.53,6.04c1.31.28,2.27,1.11,2.88,2.2.58,1.05.93,2.23,1.33,3.38.08.24,0,.65-.17.83-.14.14-.55.12-.78.03-2.08-.77-4.08-3.64-4.09-5.83,0-.59.36-.71.85-.61Zm2.07-.44c-.44-.16-1.06-.8-1.01-1.13.06-.44.63-1.02,1.1-1.17,1.34-.43,2.72-.41,4.06.17.75.32,1.53.58,2.27.91.22.1.38.36.56.54-.19.18-.35.48-.57.52-1.24.26-2.49.46-3.8.69-.86-.16-1.78-.22-2.6-.53Zm1.72-17.47c.62-.3,1.41-.27,2.13-.38,0,.07.02.14.03.21.69-.1,1.38-.23,2.07-.29.3-.02.61.12.91.18-.08.28-.08.61-.25.83-.99,1.34-3.17,2.12-4.76,1.65-.41-.12-1.08-.63-1.03-.86.09-.5.46-1.14.89-1.35Zm-1.08-1.11c-.87.21-1.76.34-2.9.55-.92-.25-2.05-.47-3.11-.87-.86-.33-.84-.85-.13-1.43,1.15-.95,2.4-1.04,3.73-.49.86.36,1.69.77,2.52,1.19.2.1.49.41.45.52-.07.21-.33.46-.56.52Zm-4.46-4.59c.3-1.09.98-1.81,2.06-2.16.92-.3,1.85-.58,2.86-.91-.02.3.03.5-.05.62-.82,1.24-1.57,2.56-2.96,3.28-.34.17-.75.29-1.12.29-.72.01-.98-.42-.8-1.11Zm-4.14,2.93c-.23-.49-.45-.97-.68-1.45.17-1.84.87-3.3,2.11-4.53.52-.51,1.06-1.01,1.62-1.49.13-.11.39-.19.52-.13.13.06.28.32.25.47-.39,2.29-.8,4.59-2.42,6.39-.33.38-.93.51-1.41.75Zm-2.86,8.2c-.68.03-1.05-.36-.95-1.06.12-.93.71-1.65,1.5-1.9,1.15-.36,2.38-.41,3.74-.63-.51,1.52-3.05,3.52-4.3,3.58Zm4.55-4.52c-.23-.25-.29-.71-.3-1.08,0-.1.45-.21.52-.23,1.29.04,2.16.52,2.94,1.22.65.58,1.35,1.11,2,1.7.18.17.26.45.38.68-.27.1-.55.34-.78.29-1.87-.34-3.46-1.23-4.76-2.59Zm-.51,38.06c-.65-.21-1.33-.52-1.86-.95-1.28-1.04-2.25-2.29-2.33-3.91.03-.28.04-.42.05-.56.1-.97.56-1.21,1.33-.62,1.38,1.05,2.4,2.4,3.1,3.97.17.39.33.78.47,1.19.21.61-.15,1.08-.76.89Zm.96-5.79c-.12.52-.49.56-.92.36-1.6-.71-2.79-3.15-2.4-4.88.03-.14.05-.28.07-.42.13-.87.51-1.05,1.26-.57,1.41.89,2.22,2.14,2.22,4.07-.05.34-.1.9-.23,1.44Zm3.17-4.15c-2-.75-2.7-2.42-3.07-4.33-.05-.27-.05-.56-.08-.99.06-.36.1-.87.27-1.35.12-.34.35-.8.62-.87.29-.07.74.18,1.01.42.94.8,1.41,1.89,1.7,3.05.27,1.07.46,2.15.65,3.23.13.75-.35,1.11-1.09.84Zm5.53,4.96c-1.46-.27-3.01-.79-4.08-2.24-.36-.49-.28-.81.3-1.04,1.71-.67,4.31.22,5.23,1.81.48.84-.03,1.44-1.45,1.46Zm3.82-2c-1.97-.62-3.61-2.7-3.71-4.75-.02-.45.13-.74.63-.63,1.54.32,3.91,3.19,3.94,4.85-.02.48-.25.73-.87.53Zm-.06-6.56c-.65-.33-1.25-.84-1.76-1.39-.97-1.04-1.68-2.27-2-3.68-.19-.8,0-1.14.8-1.02.69.11,1.42.39,2.01.78,1.57,1.03,2.2,2.58,2.2,4.43.04,1.04-.33,1.35-1.26.88Zm1.66-4.65c.44-1.43,1.43-2.37,2.88-2.67,1-.21,2.07-.17,3.1-.23.59-.03,1.19-.06,1.78-.04.19.01.47.14.55.29.08.16.03.51-.09.6-1.97,1.5-3.87,3.16-6.71,3.42-.29-.12-.8-.25-1.2-.52-.21-.15-.39-.61-.32-.85Zm1.44,9.41c-.38-.11-.78-.95-.76-1.44.04-.86.23-1.81.65-2.55.58-1.02,1.4-1.9,2.17-2.79.47-.54.86-.45,1.15.21.23.51.34,1.06.46,1.45-.25,1.85-.79,3.38-2.03,4.55-.4.38-1.17.71-1.63.58Zm1.65,4.02c1.47-.05,2.86.48,3.72,2.08.22.41.61.74.87,1.14.3.46.14,1-.38.89-1.87-.41-3.94-.38-5.22-2.2-.08-.12-.16-.24-.22-.36-.72-1.37-.58-1.6,1.22-1.55Zm-5.12,3.3c.63-.4,1.06-.37,1.33.34.17.47.29,1,.26,1.49-.12,1.86-.89,3.43-2.3,4.66-.19.16-.55.3-.74.22s-.33-.42-.38-.67c-.1-.52-.12-1.07-.16-1.59.07-1.76.34-3.4,1.99-4.45Zm-5.72,16.09c-.5.97-1.26.93-1.89,0-.64-.95-.69-2.03-.53-3.1.12-.89.41-1.76.66-2.62.05-.17.32-.44.45-.41.27.05.61.19.76.41.67.99,1.26,2.03,1.06,3.32.08.01.15.02.23.03-.23.8-.35,1.65-.73,2.38Zm.53-7.69c-.08.16-.39.34-.52.29-.19-.06-.43-.3-.48-.49-.23-1.04-.52-2.1-.56-3.16-.02-.67.29-1.4.61-2.02.27-.51.76-.89,1.17-1.32.58-.61,1.22-.45,1.43.38.1.38.11.78.16,1.21-.23,1.83-.9,3.51-1.81,5.12Zm2.56,10.55c-.21-.06-.32-.57-.41-.89-.07-.24-.04-.51-.06-.76-.04-1.97.75-3.63,1.96-5.09.64-.78,1.43-1.44,2.21-2.09.26-.22.73-.38,1.02-.29.2.06.36.6.35.92-.07,3.28-1.39,5.95-4.03,7.92-.28.21-.75.36-1.04.28Zm1.62,1.37c-.14-.7.4-1.32,1.07-1.68,1.74-.92,3.56-1.61,5.58-1.61.79.06,1.58.1,2.36.21.25.03.59.22.66.41.06.17-.13.52-.3.69-2.14,2-4.65,3.09-7.62,2.87-.69-.05-1.59-.1-1.75-.9Zm4.26,13.13c-1.89-.66-4.2-4.17-4.15-6.25.1-.61.19-1.22.3-1.83.12-.66.56-.75,1.06-.51,1.88.93,2.84,2.52,3.14,4.54.17,1.11.3,2.24.43,3.36.07.6-.26.88-.79.69Zm7.46-5.58c-.21.06-.45,0-.67,0-2.62-.13-5.06-.89-7.24-2.36-.5-.33-.89-.87-1.23-1.37-.34-.51-.18-1.06.41-1.23.72-.2,1.5-.41,2.22-.31,2.83.38,5.11,1.9,7.11,3.85.25.25.36.65.52.99-.37.14-.73.31-1.11.42Zm3.01-5.8c-.97.41-1.97.84-3,1.04-1.26.25-2.3-.41-3.2-1.22-.71-.64-.56-1.28.34-1.56.69-.21,1.4-.37,2.1-.55,1.45.02,2.58.71,3.7,1.45.36.24.56.63.06.85Z"/><path class="cls-1" d="m171.83,68.62c1.41,1.14,2.99,2.01,4.74,2.6,1.75.6,3.56.89,5.42.89,1.27,0,2.39-.11,3.36-.33s1.83-.45,2.59-.68c.62-.21,1.2-.38,1.73-.52.53-.14,1.03-.21,1.5-.21.44,0,.76.02.95.06.19.04.46.1.8.17l.12-.08v-7.35c0-.83.13-1.39.39-1.67.26-.28.83-.52,1.71-.7l1.32-.27v-.86h-12.94v.86l1.98.43c.91.18,1.48.4,1.73.66.25.26.37.8.37,1.63v5.83c-.88.78-1.79,1.25-2.72,1.42-.93.17-1.7.25-2.29.25-1.71,0-3.17-.31-4.37-.93s-2.17-1.49-2.9-2.6c-.73-1.11-1.26-2.4-1.59-3.87-.34-1.46-.51-3.03-.51-4.68s.2-3.27.6-4.74c.4-1.48.98-2.77,1.73-3.89.75-1.11,1.68-1.99,2.78-2.62,1.1-.63,2.35-.95,3.75-.95,1.48,0,2.81.27,3.98.82,1.18.54,2.21,1.34,3.09,2.39.88,1.05,1.59,2.33,2.14,3.83h1.36c-.23-.96-.41-1.81-.53-2.57-.12-.75-.17-1.53-.17-2.33,0-.28.03-.57.1-.86.06-.29.12-.56.17-.82l-.16-.12c-.23.05-.45.1-.64.14-.19.04-.43.06-.72.06-.6,0-1.14-.1-1.63-.29-.49-.19-1.04-.41-1.63-.66-.6-.25-1.33-.46-2.22-.64-.88-.18-2.01-.27-3.38-.27-2.02,0-3.92.33-5.69.99-1.78.66-3.32,1.6-4.65,2.82-1.32,1.22-2.36,2.65-3.11,4.3-.75,1.65-1.13,3.45-1.13,5.42,0,2.15.41,4.06,1.22,5.73s1.93,3.08,3.34,4.22Z"/><path class="cls-1" d="m199,47.48c.25.26.37.8.37,1.63v19.01c0,.8-.12,1.33-.37,1.59-.25.26-.82.49-1.73.7l-1.98.43v.86h13.61v-.86l-1.98-.43c-.88-.21-1.45-.44-1.71-.7-.26-.26-.39-.79-.39-1.59v-7.85h.89c1.14,0,2.12.32,2.94.95.82.64,1.56,1.43,2.24,2.37.67.95,1.33,1.91,1.98,2.9.93,1.37,1.87,2.49,2.8,3.34.93.86,1.89,1.48,2.88,1.87.98.39,2.02.58,3.11.58l25.23-.58c0-1.19.1-2.37.29-3.54.19-1.17.42-2.32.68-3.46h-.86l-1.67,2.33c-.49.7-1.04,1.3-1.63,1.81-.6.51-1.26.89-1.98,1.17-.73.27-1.56.41-2.49.41h-2.88c-.88,0-1.51-.12-1.88-.35-.38-.23-.6-.6-.68-1.11s-.12-1.13-.12-1.89v-8.55h5.05c1.24,0,2.14.25,2.68.76.54.51.89,1.21,1.05,2.12l.35,1.87h.86v-10.77h-.86l-.31,1.79c-.16.93-.51,1.66-1.07,2.18-.56.52-1.48.78-2.78.78h-4.98v-10.42h5.17c1.17,0,2.2.25,3.11.76.91.51,1.7,1.18,2.37,2.02.67.84,1.22,1.78,1.63,2.82h.86c-.13-.83-.26-1.63-.39-2.39-.13-.76-.19-1.55-.19-2.35,0-.36.01-.72.04-1.07.03-.35.08-.71.16-1.07h-22.27v.86l1.98.43c.91.18,1.48.4,1.73.66.25.26.37.8.37,1.63v19.01c0,.8-.12,1.33-.37,1.59-.25.26-.82.49-1.73.7l-.7.15h0c-1.34.34-2.22,0-2.5-.12-.13-.08-.26-.15-.39-.24-.71-.51-1.41-1.17-2.08-2-.67-.83-1.35-1.72-2.02-2.68-.67-1.01-1.39-1.96-2.16-2.86-.76-.89-1.61-1.63-2.55-2.22-.93-.58-2-.9-3.19-.95v-.08c1.45-.16,2.79-.53,4-1.13,1.22-.6,2.2-1.38,2.94-2.35.74-.97,1.11-2.05,1.11-3.25,0-2.28-1.1-4.04-3.28-5.29-2.19-1.24-5.23-1.87-9.12-1.87h-10.88v.86l1.98.43c.91.18,1.48.4,1.73.66Zm5.81-.66h.86c2.36,0,4.18.53,5.46,1.59,1.28,1.06,1.92,2.62,1.92,4.66,0,1.35-.31,2.46-.93,3.32-.62.87-1.46,1.52-2.51,1.94-1.05.43-2.2.64-3.44.64h-1.36v-12.17Z"/><path class="cls-1" d="m271.27,68.16c.19-1.17.42-2.32.68-3.46h-.86l-1.67,2.33c-.49.7-1.04,1.3-1.63,1.81-.6.51-1.26.89-1.98,1.17-.73.27-1.56.41-2.49.41h-2.88c-.88,0-1.51-.12-1.88-.35-.38-.23-.6-.6-.68-1.11s-.12-1.13-.12-1.89v-8.55h5.05c1.24,0,2.14.25,2.68.76.54.51.89,1.21,1.05,2.12l.35,1.87h.86v-10.77h-.86l-.31,1.79c-.16.93-.51,1.66-1.07,2.18-.56.52-1.48.78-2.78.78h-4.98v-10.42h5.17c1.17,0,2.2.25,3.11.76.91.51,1.7,1.18,2.37,2.02.67.84,1.22,1.78,1.63,2.82h.86c-.13-.83-.26-1.63-.39-2.39-.13-.76-.19-1.55-.19-2.35,0-.36.01-.72.04-1.07.03-.35.08-.71.16-1.07h-22.27v.86l1.98.43c.91.18,1.48.4,1.73.66.25.26.37.8.37,1.63v19.01c0,.8-.12,1.33-.37,1.59-.25.26-.82.49-1.73.7l-1.98.43v.86h22.74c0-1.19.1-2.37.29-3.54Z"/><path class="cls-1" d="m317.66,72.28l6.69-18.97,7.23,18.97h1.87l8.71-23.79c.16-.44.41-.78.78-1.03.36-.25.79-.42,1.28-.52l2.45-.54v-.86h-10.85v.86l2.41.54c1.11.26,1.8.49,2.06.68.26.19.31.51.16.95l-5.99,16.91-5.6-16.75c-.13-.39-.15-.71-.06-.95.09-.25.25-.44.49-.58.23-.14.51-.24.82-.29l2.45-.51v-.86h-12.32v.86l2.72.51c.52.1.9.3,1.15.6.25.3.28.71.1,1.22l-5.6,16.52-5.4-16.17c-.26-.67-.26-1.17,0-1.5.26-.32.83-.58,1.71-.76l1.98-.43v-.86h-24.68v.86l2.84.58c.7.13,1.22.36,1.57.68.35.32.53.81.53,1.46v14.38l-16.29-17.96h-8.24v.86l1.98.43c.6.13,1.04.27,1.34.41.3.14.5.36.6.64.1.29.16.7.16,1.24v19.01c0,.7-.17,1.2-.52,1.52s-.87.54-1.57.7l-2.25.51v.86h10.69v-.86l-2.84-.58c-.7-.13-1.22-.36-1.57-.68-.35-.32-.53-.81-.53-1.46v-17.65l19.79,21.88h.66v-23.25c0-.7.17-1.21.52-1.52s.88-.54,1.57-.7l.12-.03c1.41-.32,2.86-.32,4.27-.01.49.1.84.25,1.05.45.21.19.38.46.5.8l9.21,24.18h1.87Z"/><path class="cls-1" d="m343.13,58.91c0,1.81.34,3.52,1.03,5.13.69,1.61,1.65,3.01,2.9,4.22s2.71,2.15,4.39,2.84c1.68.69,3.54,1.03,5.56,1.03s3.89-.34,5.6-1.03c1.71-.69,3.19-1.65,4.43-2.9s2.21-2.69,2.9-4.35c.69-1.66,1.03-3.47,1.03-5.44,0-1.84-.34-3.56-1.03-5.15-.69-1.59-1.65-3-2.9-4.22-1.24-1.22-2.72-2.17-4.43-2.86-1.71-.69-3.58-1.03-5.6-1.03s-3.87.34-5.56,1.03c-1.68.69-3.15,1.65-4.39,2.9s-2.21,2.7-2.9,4.37c-.69,1.67-1.03,3.49-1.03,5.46Zm6.94-6.59c.66-1.85,1.59-3.28,2.78-4.3,1.19-1.01,2.58-1.52,4.16-1.52s3.04.51,4.24,1.52c1.19,1.01,2.12,2.41,2.78,4.2.66,1.79.99,3.86.99,6.22,0,2.49-.33,4.66-.99,6.51-.66,1.85-1.59,3.28-2.78,4.3-1.19,1.01-2.6,1.52-4.24,1.52-1.19,0-2.27-.29-3.25-.86-.97-.57-1.81-1.39-2.51-2.45-.7-1.06-1.24-2.32-1.61-3.77-.38-1.45-.56-3.04-.56-4.78,0-2.54.33-4.74.99-6.59Z"/><path class="cls-1" d="m376.77,68.26c1.24,1.2,2.71,2.15,4.39,2.84,1.68.69,3.54,1.03,5.56,1.03s3.89-.34,5.6-1.03c1.71-.69,3.19-1.65,4.43-2.9s2.21-2.69,2.9-4.35c.69-1.66,1.03-3.47,1.03-5.44,0-1.84-.34-3.56-1.03-5.15-.69-1.59-1.65-3-2.9-4.22-1.24-1.22-2.72-2.17-4.43-2.86-1.71-.69-3.58-1.03-5.6-1.03s-3.87.34-5.56,1.03c-1.68.69-3.15,1.65-4.39,2.9s-2.21,2.7-2.9,4.37c-.69,1.67-1.03,3.49-1.03,5.46,0,1.81.34,3.52,1.03,5.13.69,1.61,1.65,3.01,2.9,4.22Zm3.01-15.94c.66-1.85,1.59-3.28,2.78-4.3,1.19-1.01,2.58-1.52,4.16-1.52s3.04.51,4.24,1.52c1.19,1.01,2.12,2.41,2.78,4.2.66,1.79.99,3.86.99,6.22,0,2.49-.33,4.66-.99,6.51-.66,1.85-1.59,3.28-2.78,4.3-1.19,1.01-2.6,1.52-4.24,1.52-1.19,0-2.27-.29-3.25-.86-.97-.57-1.81-1.39-2.51-2.45-.7-1.06-1.24-2.32-1.61-3.77-.38-1.45-.56-3.04-.56-4.78,0-2.54.33-4.74.99-6.59Z"/><path class="cls-1" d="m404.39,47.48c.25.26.37.8.37,1.63v19.01c0,.8-.12,1.33-.37,1.59-.25.26-.82.49-1.73.7l-1.98.43v.86h13.84c2.02,0,3.89-.33,5.6-.99,1.71-.66,3.19-1.59,4.43-2.8s2.21-2.61,2.9-4.22c.69-1.61,1.03-3.36,1.03-5.25,0-1.79-.36-3.46-1.07-5.01-.71-1.55-1.71-2.92-2.99-4.1-1.28-1.18-2.79-2.11-4.53-2.78-1.74-.67-3.62-1.01-5.64-1.01h-13.57v.86l1.98.43c.91.18,1.48.4,1.73.66Zm5.81-.74h3.5c1.79,0,3.34.49,4.65,1.48,1.31.99,2.33,2.35,3.05,4.1.73,1.75,1.09,3.78,1.09,6.08,0,2.44-.36,4.55-1.09,6.36-.73,1.8-1.74,3.19-3.05,4.18-1.31.99-2.86,1.48-4.65,1.48-1.14,0-2.01-.19-2.6-.58-.6-.39-.89-.96-.89-1.71v-21.38Z"/><path class="cls-1" d="m196.46,92.08h-12.94v.86l1.98.43c.91.18,1.48.4,1.73.66.25.26.37.8.37,1.63v5.83c-.88.78-1.79,1.25-2.72,1.42-.93.17-1.7.25-2.29.25-1.71,0-3.17-.31-4.37-.93s-2.17-1.49-2.9-2.6c-.73-1.11-1.26-2.4-1.59-3.87-.34-1.46-.51-3.03-.51-4.68s.2-3.27.6-4.74c.4-1.48.98-2.77,1.73-3.89.75-1.11,1.68-1.99,2.78-2.62,1.1-.63,2.35-.95,3.75-.95,1.48,0,2.81.27,3.98.82,1.18.54,2.21,1.34,3.09,2.39.88,1.05,1.59,2.33,2.14,3.83h1.36c-.23-.96-.41-1.81-.53-2.57-.12-.75-.17-1.53-.17-2.33,0-.28.03-.57.1-.86.06-.29.12-.56.17-.82l-.16-.12c-.23.05-.45.1-.64.14-.19.04-.43.06-.72.06-.6,0-1.14-.1-1.63-.29-.49-.19-1.04-.41-1.63-.66-.6-.25-1.33-.46-2.22-.64-.88-.18-2.01-.27-3.38-.27-2.02,0-3.92.33-5.69.99-1.78.66-3.32,1.6-4.65,2.82-1.32,1.22-2.36,2.65-3.11,4.3-.75,1.65-1.13,3.45-1.13,5.42,0,2.15.41,4.06,1.22,5.73s1.93,3.08,3.34,4.22c1.41,1.14,2.99,2.01,4.74,2.6,1.75.6,3.56.89,5.42.89,1.27,0,2.39-.11,3.36-.33s1.83-.45,2.59-.68c.62-.21,1.2-.38,1.73-.52.53-.14,1.03-.21,1.5-.21.44,0,.76.02.95.06.19.04.46.1.8.17l.12-.08v-7.35c0-.83.13-1.39.39-1.67.26-.28.83-.52,1.71-.7l1.32-.27v-.86Z"/><path class="cls-1" d="m220.44,100.59c-.67-.83-1.35-1.72-2.02-2.68-.67-1.01-1.39-1.96-2.16-2.86-.76-.89-1.61-1.63-2.55-2.22-.93-.58-2-.9-3.19-.95v-.08c1.45-.16,2.79-.53,4-1.13,1.22-.6,2.2-1.38,2.94-2.35.74-.97,1.11-2.05,1.11-3.25,0-2.28-1.1-4.04-3.28-5.29-2.19-1.24-5.23-1.87-9.12-1.87h-10.88v.86l1.98.43c.91.18,1.48.4,1.73.66.25.26.37.8.37,1.63v19.01c0,.8-.12,1.33-.37,1.59-.25.26-.82.49-1.73.7l-1.98.43v.86h13.61v-.86l-1.98-.43c-.88-.21-1.45-.44-1.71-.7-.26-.26-.39-.79-.39-1.59v-7.85h.89c1.14,0,2.12.32,2.94.95.82.64,1.56,1.43,2.24,2.37.67.95,1.33,1.91,1.98,2.9.93,1.37,1.87,2.49,2.8,3.34.93.86,1.89,1.48,2.88,1.87.98.39,2.02.58,3.11.58,1.01,0,2.03-.13,3.07-.39v-.93c-.75,0-1.48-.25-2.2-.76-.71-.51-1.41-1.17-2.08-2Zm-10.83-9.85c-1.05.43-2.2.64-3.44.64h-1.36v-12.17h.86c2.36,0,4.18.53,5.46,1.59,1.28,1.06,1.92,2.62,1.92,4.66,0,1.35-.31,2.46-.93,3.32-.62.87-1.46,1.52-2.51,1.94Z"/><path class="cls-1" d="m245.71,81.43c-1.24-1.22-2.72-2.17-4.43-2.86-1.71-.69-3.58-1.03-5.6-1.03s-3.87.34-5.56,1.03c-1.68.69-3.15,1.65-4.39,2.9s-2.21,2.7-2.9,4.37c-.69,1.67-1.03,3.49-1.03,5.46,0,1.81.34,3.52,1.03,5.13.69,1.61,1.65,3.01,2.9,4.22s2.71,2.15,4.39,2.84c1.68.69,3.54,1.03,5.56,1.03s3.89-.34,5.6-1.03c1.71-.69,3.19-1.65,4.43-2.9s2.21-2.69,2.9-4.35c.69-1.66,1.03-3.47,1.03-5.44,0-1.84-.34-3.56-1.03-5.15-.69-1.59-1.65-3-2.9-4.22Zm-3.01,15.92c-.66,1.85-1.59,3.28-2.78,4.3-1.19,1.01-2.6,1.52-4.24,1.52-1.19,0-2.27-.29-3.25-.86-.97-.57-1.81-1.39-2.51-2.45-.7-1.06-1.24-2.32-1.61-3.77-.38-1.45-.56-3.04-.56-4.78,0-2.54.33-4.74.99-6.59.66-1.85,1.59-3.28,2.78-4.3,1.19-1.01,2.58-1.52,4.16-1.52s3.04.51,4.24,1.52c1.19,1.01,2.12,2.41,2.78,4.2.66,1.79.99,3.86.99,6.22,0,2.49-.33,4.66-.99,6.51Z"/><path class="cls-1" d="m297.62,99.42c-.49.7-1.04,1.3-1.63,1.81-.6.51-1.26.89-1.98,1.17-.73.27-1.56.41-2.49.41h-2.88c-.88,0-1.51-.12-1.88-.35-.38-.23-.6-.6-.68-1.11s-.12-1.13-.12-1.89v-8.55h5.05c1.24,0,2.14.25,2.68.76.54.51.89,1.21,1.05,2.12l.35,1.87h.86v-10.77h-.86l-.31,1.79c-.16.93-.51,1.66-1.07,2.18-.56.52-1.48.78-2.78.78h-4.98v-10.42h5.17c1.17,0,2.2.25,3.11.76.91.51,1.7,1.18,2.37,2.02.67.84,1.22,1.78,1.63,2.82h.86c-.13-.83-.26-1.63-.39-2.39-.13-.76-.19-1.55-.19-2.35,0-.36.01-.72.04-1.07.03-.35.08-.71.16-1.07h-33.12v.86l2.92.66c.57.1,1,.25,1.28.45.28.19.43.46.43.8,0,.1-.01.21-.04.31-.03.1-.07.22-.12.35l-6.81,16.72-6.45-16.6c-.05-.16-.1-.31-.14-.47-.04-.16-.06-.28-.06-.39,0-.36.16-.65.47-.87.31-.22.79-.39,1.44-.52l1.98-.43v-.86h-13.99v.86l2.14.47c.31.05.6.16.88.31.27.16.46.38.56.66l10.3,24.45h1.87l9.72-23.98c.18-.44.44-.76.78-.95.34-.19.75-.34,1.24-.45l.46-.1c1.31-.27,2.66-.26,3.97.02.91.18,1.48.4,1.73.66.25.26.37.8.37,1.63v19.01c0,.8-.12,1.33-.37,1.59-.25.26-.82.49-1.73.7l-1.98.43v.86h22.74c0-1.19.1-2.37.29-3.54.19-1.17.42-2.32.68-3.46h-.86l-1.67,2.33Z"/><path class="cls-1" d="m342.42,102.51c-.29-.14-.48-.36-.58-.64-.1-.28-.17-.7-.19-1.24l-.78-19.01c-.03-.83.1-1.37.37-1.63.27-.26.85-.48,1.73-.66l1.98-.43v-.86h-9.41l-7.27,18.04-8.2-18-9.14-.04v.86l1.98.43c.91.18,1.5.4,1.77.66.27.26.38.8.33,1.63l-1.17,19.01c-.03.47-.12.84-.27,1.13-.16.29-.38.51-.68.68-.3.17-.68.3-1.15.41l-2.25.51v.85h10.69v-.85l-2.84-.58c-.7-.13-1.23-.36-1.59-.68-.36-.32-.53-.81-.51-1.46l1.13-17.26,9.56,21.07h.58l8.82-21.96.85,18.15c.05.8-.06,1.33-.33,1.59-.27.26-.86.49-1.77.7l-1.98.43v.85h13.61v-.85l-1.98-.43c-.6-.13-1.04-.27-1.32-.41Z"/><path class="cls-1" d="m371.35,85.81c-.69-1.59-1.65-3-2.9-4.22s-2.72-2.17-4.43-2.86c-1.71-.69-3.58-1.03-5.6-1.03s-3.87.34-5.56,1.03c-1.68.69-3.15,1.65-4.39,2.9s-2.21,2.7-2.9,4.37c-.69,1.67-1.03,3.49-1.03,5.46,0,1.81.34,3.52,1.03,5.13.69,1.61,1.65,3.01,2.9,4.22,1.24,1.2,2.71,2.15,4.39,2.84,1.68.69,3.54,1.03,5.56,1.03s3.89-.34,5.6-1.03,3.19-1.65,4.43-2.9,2.21-2.7,2.9-4.35c.69-1.66,1.03-3.47,1.03-5.44,0-1.84-.34-3.56-1.03-5.15Zm-5.91,11.7c-.66,1.85-1.59,3.28-2.78,4.3-1.19,1.01-2.6,1.52-4.24,1.52-1.19,0-2.27-.29-3.25-.86-.97-.57-1.81-1.39-2.51-2.45-.7-1.06-1.24-2.32-1.61-3.77-.38-1.45-.56-3.05-.56-4.78,0-2.54.33-4.74.99-6.59.66-1.85,1.59-3.28,2.78-4.3,1.19-1.01,2.58-1.52,4.16-1.52s3.04.51,4.24,1.52c1.19,1.01,2.12,2.41,2.78,4.2.66,1.79.99,3.86.99,6.22,0,2.49-.33,4.66-.99,6.51Z"/><path class="cls-1" d="m428.47,78.9l1.98.43c.91.18,1.48.4,1.73.66.25.26.37.8.37,1.63v19.01c0,.8-.12,1.33-.37,1.59-.25.26-.82.49-1.73.7l-1.98.43v.86h13.61v-.86l-1.98-.43c-.88-.21-1.45-.44-1.71-.7-.26-.26-.39-.79-.39-1.59v-7.85h.89c1.14,0,2.12.32,2.94.95.82.64,1.56,1.43,2.24,2.37.67.95,1.33,1.91,1.98,2.9.93,1.37,1.87,2.49,2.8,3.34.93.86,1.89,1.48,2.88,1.87.98.39,2.02.58,3.11.58l25.23-.58h0s10.08,0,10.08,0v-.85l-3.34-.58c-.42-.08-.71-.21-.89-.39-.18-.18-.27-.39-.27-.62,0-.05,0-.12.02-.19.01-.08.03-.16.06-.23l2.5-5.91h8.95l2.16,5.4c.05.16.1.3.14.43.04.13.06.26.06.39,0,.34-.14.6-.41.8s-.69.36-1.26.49l-1.98.43v.85h38.37c0-1.19.12-2.48.37-3.87.25-1.39.5-2.65.76-3.79h-.85l-1.83,2.99c-.44.75-.95,1.38-1.52,1.89-.57.51-1.23.88-1.98,1.13-.75.25-1.62.37-2.6.37h-4.9c-1.04,0-1.74-.21-2.12-.62-.38-.41-.56-.97-.56-1.67v-19.01c0-.83.13-1.37.39-1.63s.83-.48,1.71-.66l1.98-.43v-.86h-13.61v.86l1.98.43c.91.18,1.48.4,1.73.66.25.26.37.8.37,1.63v19.01c0,.8-.12,1.33-.37,1.59-.25.26-.82.49-1.73.7h0c-1.31.28-2.66.28-3.96,0h0c-.62-.13-1.08-.27-1.36-.43s-.49-.39-.62-.7l-10.18-24.72h-.54c0,.26-.14.58-.43.95-.29.38-.71.71-1.28,1.01s-1.27.46-2.1.49l1.2,2.99-7.93,18.77c-.18.42-.42.75-.72.99-.3.25-.73.43-1.3.56l-2.11.47c.04-.89.11-1.78.25-2.65.19-1.17.42-2.32.68-3.46h-.86l-1.67,2.33c-.49.7-1.04,1.3-1.63,1.81-.6.51-1.26.89-1.98,1.17-.73.27-1.56.41-2.49.41h-2.88c-.88,0-1.51-.12-1.88-.35-.38-.23-.6-.6-.68-1.11s-.12-1.13-.12-1.89v-8.55h5.05c1.24,0,2.14.25,2.68.76.54.51.89,1.21,1.05,2.12l.35,1.87h.86v-10.77h-.86l-.31,1.79c-.16.93-.51,1.66-1.07,2.18-.56.52-1.48.78-2.78.78h-4.98v-10.42h5.17c1.17,0,2.2.25,3.11.76.91.51,1.7,1.18,2.37,2.02.67.84,1.22,1.78,1.63,2.82h.86c-.13-.83-.26-1.63-.39-2.39-.13-.76-.19-1.55-.19-2.35,0-.36.01-.72.04-1.07.03-.35.08-.71.16-1.07h-22.27v.86l1.98.43c.91.18,1.48.4,1.73.66.25.26.37.8.37,1.63v19.01c0,.8-.12,1.33-.37,1.59-.25.26-.82.49-1.73.7l-.7.15h0c-1.34.34-2.22,0-2.5-.12-.13-.08-.26-.15-.39-.24-.71-.51-1.41-1.17-2.08-2-.67-.83-1.35-1.72-2.02-2.68-.67-1.01-1.39-1.96-2.16-2.86-.76-.89-1.61-1.63-2.55-2.22-.93-.58-2-.9-3.19-.95v-.08c1.45-.16,2.79-.53,4-1.13,1.22-.6,2.2-1.38,2.94-2.35.74-.97,1.11-2.05,1.11-3.25,0-2.28-1.1-4.04-3.28-5.29-2.19-1.24-5.23-1.87-9.12-1.87h-10.83s-25.59,0-25.59,0h-10.69v.86l2.84.58c.7.13,1.22.36,1.57.68.35.32.53.81.53,1.46v14.38l-16.29-17.96h-8.24v.86l1.98.43c.6.13,1.04.27,1.34.41s.5.36.6.64c.1.29.16.7.16,1.24v19.01c0,.7-.17,1.2-.52,1.52-.35.31-.87.54-1.57.7l-2.25.51v.85h10.69v-.85l-2.84-.58c-.7-.13-1.22-.36-1.57-.68s-.53-.81-.53-1.46v-17.65l19.79,21.89h.66v-23.25c0-.7.17-1.21.52-1.52.35-.31.88-.54,1.57-.7l2.25-.51.02.45c.05.98.05,1.97-.04,2.95-.03.34-.07.67-.11,1.01-.12.89-.25,1.69-.41,2.39h1.05c.29-1.14.74-2.2,1.36-3.17s1.39-1.75,2.29-2.33c.91-.58,1.92-.87,3.03-.87h2.84v21.3c0,.8-.12,1.33-.37,1.59-.25.26-.82.49-1.73.7l-1.98.43v.85h13.61v-.85l-1.98-.43c-.88-.21-1.45-.44-1.71-.7-.26-.26-.39-.79-.39-1.59v-21.3h2.84c1.14,0,2.16.29,3.05.87s1.65,1.36,2.27,2.33,1.07,2.03,1.36,3.17h1.05c-.13-.7-.26-1.5-.39-2.39v-.03c-.19-1.28-.24-2.57-.16-3.86l.03-.53Zm14.32,11.95c-1.05.43-2.2.64-3.44.64h-1.36v-12.17h.86c2.36,0,4.18.53,5.46,1.59,1.28,1.06,1.92,2.62,1.92,4.66,0,1.35-.31,2.46-.93,3.32-.62.87-1.46,1.52-2.51,1.94Zm45.95,3.28l4.06-9.61,3.84,9.61h-7.9Z"/></g></svg>