<?xml version="1.0" encoding="UTF-8"?><svg id="Layer_2" xmlns="http://www.w3.org/2000/svg" viewBox="0 0 566.37 159.83"><defs><style>.cls-1{fill:#fff;stroke-width:0px;}</style></defs><g id="Footer"><path class="cls-1" d="m65.68,157.6c-.75-2.48-.89-4.9.76-7.11.95-1.27.8-2.6.42-4.02-.35-1.27-.61-2.56-.81-3.87-.26-1.69.19-3.08,1.86-3.89.29-.14.53-.39.78-.6.78-.65,1.04-1.38.82-2.45-.51-2.52-.45-4.93,1.83-6.79.84-.68,1.28-1.71,1.07-2.97-.23.03-.36.04-.47.07-2.81.75-5.61,1.56-8.55,1.55-.29,0-.68.08-.84.27-.91,1.09-1.97,2.12-2.58,3.37-1.02,2.09-1.2,4.43-1.43,6.73-.18,1.92-.45,3.82-1.66,5.42-.32.42-.21.71.12,1.08,1.64,1.88,2.63,3.91,2.08,6.56-.32,1.52-.16,3.08.29,4.61l.03.08.51,1.66c.36.1.72.19,1.08.27,1.64.4,3.3.75,4.99,1.04l-.08-.13c-.1-.38-.15-.64-.23-.89Z"/><path class="cls-1" d="m110.52,145.37c-1.16-1.21-2.01-2.47-2.48-4.08-.19-.63-.67-1.29-1.21-1.67-.82-.58-1.76-1.1-2.73-1.34-1.28-.32-1.76-1.1-1.88-2.27-.05-.42-.12-.84-.1-1.25.04-1.51-.74-2.39-2.06-3.02-1.66-.8-3.1-1.57-2.72-4.18.1-.64.03-1.32-.07-1.97-.34-2.36-2.7-4.33-5.22-4,.03.15.04.3.1.43,1.01,2.17.59,4.17-.64,6.13-1.58,2.5-1.47,3.58.26,6.05.67.97,1.32,2,1.75,3.1.8,2.02,2.15,3.31,4.26,3.74,1.54.32,2.83.84,3.41,2.49.21.6.64,1.16,1.1,1.61.96.95,2.05,1.76,2.98,2.72.58.6,1.12,1.33,1.43,2.1.52,1.3.9,2.67,1.37,4.16h0s.16.54.16.54h0s.06-.02.1-.03c.04-.02.08-.03.12-.05,2.17-.82,4.28-1.74,6.35-2.75,0,0,.02,0,.03-.01.18-.08.36-.16.54-.23,0-.01.01-.03.01-.04.14-.05.27-.12.4-.19l-.26-.18c-1.66-1.95-3.24-3.97-5-5.81Z"/><path class="cls-1" d="m44.41,141.08c.78-.3,1.19-.98,1.2-1.84.01-1.08,0-2.16.04-3.24.08-1.94,1.14-3.33,2.82-4.04,1.49-.63,3.16-.88,4.74-1.3,1.56-.4,3.22-.51,4.43-1.79.75-.81,1.54-1.59,2.29-2.41,1.04-1.14,2.33-1.65,3.87-1.83,2.44-.27,4.86-.67,7.28-1.08.95-.16,1.54-.88,2.03-1.71-5.45.52-10.87,1.06-16.26,1.82-3.71.53-7.33,1.49-10.77,3.05-.83.37-1.17.88-1.03,1.82.26,1.71-.49,3.04-1.82,4.04-1.31,1-2.61,1.97-3.48,3.45-.64,1.1-1.69,1.78-2.8,2.43-2.15,1.27-4.18,2.71-6.47,4.24-.03.02-.08.04-.11.07.36.23.54.34.71.46.27.19.53.37.8.56.01,0,.02.01.03.03,1.68,1.27,3.41,2.47,5.2,3.6.01,0,.02.01.03.02.19.14.39.27.58.4.42.29.71.47.92.53,0,0,.01,0,.02.01.12.08.25.15.37.22l.27-.86.17-.53.16-.5h0c.84-2.49,2.1-4.59,4.76-5.61Z"/><path class="cls-1" d="m81.15,136.49c-.75-2.54.27-4.43,2.01-6.1.71-.69,1.47-1.33,2.18-2.02.67-.64.84-1.41.49-2.3-1.24-3.05-4.22-4.09-6.73-3.95-.58.03-1.02.28-1.22.88-.43,1.3-.93,2.59-1.32,3.91-.34,1.18-.84,2.21-1.88,2.96-1.4,1.01-1.44,1.26-.84,2.91.12.31.22.64.4.9.47.72.95,1.44,1.49,2.1,1.14,1.38,1.09,2.95,1,4.6-.11,2.08-.26,4.21.01,6.26.24,1.8-.04,3.2-1.26,4.52-.48.51-.71,1.28-.95,1.97-.47,1.35.02,2.67.27,3.98.08.42.15.77.22,1.07l.07.27.29,1.24h0c1.5.08,3.01.12,4.53.12.17,0,.34,0,.51,0l.08-.61c.03-.08.05-.18.05-.28,0-.1.01-.19.02-.29v-.05c.08-.84.12-1.67.19-2.5.06-.77.12-1.54.21-2.31.27-2.32.6-4.69-.16-6.94-.68-2.04-.77-3.93.07-5.94.6-1.41.71-2.94.27-4.41Z"/><path class="cls-1" d="m92.15,155.33c-2.1-4.57-2.95-9.22-.88-14.07.32-.76.21-1.6-.34-2.39-1.43-2.09-2.8-4.23-4.15-6.37-.51-.81-.77-.93-1.41-.23-1.47,1.6-2.05,3.63-2.08,5.69-.02,1.45-.02,2.84-.47,4.24-.39,1.19-.77,2.39-.22,3.67.61,1.43.55,2.92.34,4.43-.08.6-.16,1.31.05,1.84.88,2.17.72,4.34.21,6.53-.05.21-.08.44-.13.75l-.05.35s0,.04-.01.06h0c.26-.03.52-.05.78-.09.04,0,.08,0,.12,0,3.12-.16,6.2-.49,9.21-.99,0,0,.01,0,.02,0,.24-.02.49-.05.73-.08,0-.01-.01-.03-.03-.05-.65-1.26-1.21-2.26-1.69-3.29Z"/><path class="cls-1" d="m124.65,143.29c-1.78-1.96-3.88-3.11-6.62-2.98-.51.03-1.23-.29-1.54-.69-1.6-2.02-3.19-4.05-4.61-6.18-.8-1.19-1.77-1.99-3.08-2.45-.59-.2-1.18-.47-1.79-.58-1.89-.33-2.92-1.57-3.71-3.18-.35-.71-.93-1.31-1.49-2.09-.95,2.4-.85,2.93.84,4.23,1.26.96,1.85,2.19,1.93,3.76.08,1.73.6,3.21,2.45,3.91.8.3,1.53.81,2.25,1.3.4.28.84.64,1.03,1.07.62,1.36,1.12,2.77,1.7,4.15.21.49.44,1.02.8,1.38,1.61,1.6,3.26,3.16,4.93,4.69l.48.46c2.63-1.43,5.16-3.01,7.6-4.74,0,0,0,0,0,0,.06-.04.12-.08.16-.12.18-.12.36-.25.53-.37l-.64-.51c-.4-.36-.86-.66-1.22-1.06Z"/><path class="cls-1" d="m37.21,135.62c1.01-1.13,2.07-2.32,3.33-3.11,1.76-1.12,2.12-2.78,2.36-4.56.05-.45-.03-.92-.07-1.63-1.26.65-2.34,1.15-3.36,1.75-1.52.88-2.93,2.02-4.52,2.72-1.82.8-3.84,1.12-5.7,1.84-2.21.85-4.35,1.88-6.7,2.92-.05.03-.11.05-.16.08,1.79,1.63,3.56,3.24,5.31,4.87.14.13.27.22.4.26.1.09.2.17.29.25l.94-.58c1.23-.69,2.51-1.33,3.74-2.02,1.45-.82,2.99-1.48,4.15-2.78Z"/><path class="cls-1" d="m74.81,147.65c-.39-2.37-.76-4.73-.23-7.14.08-.37.08-.77.05-1.17-.02-.28-.09-.62-.27-.82-.64-.69-1.34-1.34-1.86-1.84-.65,1.02-1.24,2.11-1.99,3.06-.41.51-1.08.84-1.69,1.17-.97.52-1.25,1.31-1.04,2.33.23,1.06.44,2.11.71,3.15.58,2.17.57,4.25-1.02,6-1.3,1.43-1.31,2.91-.52,4.53.05.11.1.22.14.33.13.34.24.69.42.99,0,0,.01.02.01.03h0s.27.63.27.63c1.52.23,3.05.42,4.6.56l.03-.4v-.02c.02-.15.03-.27.02-.38-.21-1.51-.35-3.04-.66-4.52-.25-1.19-.17-2.17.79-3.02.66-.6,1.33-1.23,1.85-1.95.29-.4.46-1.06.38-1.54Z"/><path class="cls-1" d="m129.79,138.74c-1.07-.45-2.2-.75-3.3-1.14-1.14-.4-1.98-1.17-2.63-2.19-.26-.4-.64-.95-1.04-1.01-1.95-.35-3.48-1.56-5.23-2.3-1.51-.64-3.02-1.3-4.93-1.1.27.36.43.6.6.83,1.36,1.79,2.73,3.56,4.06,5.37.58.8,1.32,1.23,2.28,1.43,1.67.36,3.28.91,4.69,1.94,1.13.83,2.25,1.68,3.4,2.47l.64.48c1.28-.97,2.53-1.99,3.75-3.04.01-.01.03-.02.05-.04.11-.08.22-.18.34-.27,0,0,0,0-.01,0-1.01-.55-1.8-1.06-2.66-1.41Z"/><path class="cls-1" d="m57.1,155.38c-.36-1.92-.32-3.83,0-5.78.08-.49-.12-1.12-.39-1.58-.74-1.23-1.56-2.41-2.4-3.57-.51-.71-.49-1.36-.09-2.09.32-.58.64-1.18.78-1.81.58-2.55,1.1-5.13,1.67-7.89-.64.15-1.12.28-1.61.38-1.44.27-2.87.6-4.32.76-1.7.19-2.26.6-2.6,2.28-.26,1.29-.48,2.58-.72,3.88-.25,1.34-.86,2.32-2.21,2.92-.84.38-1.69,1.13-2.13,1.94-.56,1.01-.92,2.14-1.31,3.25v.03s-.7,1.67-.7,1.67c.12.08.25.14.38.21.1.1.23.18.39.27,1.02.53,2.05,1.06,3.09,1.54.31.15.62.29.93.44.44.21.88.4,1.32.6.38.17.75.34,1.13.49,3,1.3,6.09,2.42,9.26,3.34l-.47-1.28h0Z"/><path class="cls-1" d="m105.86,154.9c-.47-1.6-.98-3.19-1.54-4.77-.25-.73-.79-1.17-1.58-1.45-.74-.26-1.52-.74-2-1.34-.59-.75-.92-1.73-1.32-2.63-.24-.55-.6-.77-1.21-.88-1.37-.23-2.8-.4-3.77-1.63-.34-.42-.74-.8-1.21-1.3-.22,1.07-.32,1.99-.61,2.84-.72,2.08-.64,4.18-.34,6.29.39,2.73,2.08,4.76,3.68,6.82l.57.75.31.42c3.12-.67,6.18-1.53,9.14-2.56l-.12-.53v-.05Z"/><path class="cls-1" d="m136.54,135.27c-1.06-.71-2.13-1.41-3.19-2.11-.82-.55-1.71-1.03-2.43-1.69-2.06-1.88-4.5-2.89-7.2-3.39-1.63-.29-3.02-.88-4.19-2.18-2.09-2.32-4.78-3.61-7.94-3.55-2.56.05-5.12.38-7.68.59-.1,0-.21.09-.48.22.82.93,1.56,1.81,2.35,2.65,1.41,1.51,2.96,2.43,5.17,1.58,1.96-.75,3.83-.23,5.56.87.48.3.96.61,1.47.87,1.54.79,2.93,1.88,4.75,2.01,1.68.12,2.95.85,3.99,2.25.84,1.12,1.91,2.17,3.08,2.93,1.3.83,2.96,1.08,3.95,2.68,0,0,.01.02.02.03.12-.13.24-.25.36-.38,0,0,.01-.01.02-.02,1.03-.95,2.04-1.92,3-2.93l-.25-.05c-.08-.08-.18-.27-.34-.38Z"/><path class="cls-1" d="m159.82,78.25c-.01-.44-.03-.87-.04-1.31-.01-.4-.03-.8-.05-1.19-.15-2.75-.44-5.52-.86-8.3,0-.04-.01-.08-.02-.12-.06-.37-.12-.74-.18-1.1-.06-.37-.13-.73-.2-1.1-.03-.14-.05-.29-.08-.44-.05-.29-.12-.58-.17-.86,0-.05-.02-.09-.03-.14C151.09,29.32,121.95,3.02,86.2.25c-.02,0-.05,0-.07,0-.08-.01-.16-.02-.24-.02-.45-.03-.89-.06-1.34-.08-.27-.02-.53-.03-.8-.04-.12,0-.25-.01-.37-.02-.18,0-.36-.01-.53-.02-.12,0-.25,0-.37,0-.27-.01-.55-.02-.82-.03-.62-.01-1.23-.02-1.84-.02-14.23.02-27.59,3.76-39.16,10.29-.02.02-.04.03-.06.04-.86.56-1.72,1.13-2.65,1.57-.02,0-.04.02-.06.03h0C15.15,26.02,0,51.2,0,79.92c0,19.37,6.89,37.12,18.36,50.94.68.83,1.38,1.64,2.1,2.45.24.16.51.27.69.23.26-.07.53-.14.79-.22,1.38-.39,2.74-.82,4.08-1.34,2.09-.8,4.15-1.69,6.2-2.58,2.58-1.13,5.17-2.28,6.92-4.65.75-1.03,1.73-1.3,2.93-.98.55.15,1.1.3,1.66.38.47.07.97.16,1.41.04.95-.25,1.87-.61,2.8-.94,2.03-.73,4-1.71,6.09-2.14,4.13-.85,8.34-1.29,12.48-2.1,2.69-.52,5.36-1.28,7.97-2.12,1.98-.64,3.28-2.06,3.85-4.16,1.13-4.25,1.56-8.5.96-12.89-.55-4.07-1.88-7.84-3.68-11.48-.42-.86-.97-1.63-1.93-1.88-1.26-.34-2.54-.74-3.84-.81-2.69-.15-4.94-1.05-7-2.83-1.67-1.45-3.56-2.66-5.97-2.5-.29.02-.58-.14-.88-.18-1.93-.22-3.85-.55-5.78-.59-.81-.01-1.89.36-2.4.95-.69.8-1.44,1.29-2.35,1.69-.36.16-.72.44-.93.76-1.01,1.53-1.5,3.24-1.71,5.06-.12,1.1-.05,2.11.67,3.06.38.49.77,1.13.33,1.97-1.21-1.03-2.17-2.08-2.58-3.82-1.75,2.54-4.22,2.47-6.66,2.52-.42,0-.84.04-1.25.14-.4.1-.84.21-1.15.45-.98.74-1.89,1.56-2.86,2.32-.34.27-.75.59-1.15.61-.75.04-1.49.08-2.24.12-2.18.1-4.36.18-6.54.24-.4,0-.8-.25-1.2-.38.21-.31.39-.4.58-.45,2.49-.53,4.96-1.11,7.47-1.56.03,0,.06-.01.09-.02,1.55-.27,2.67-1.08,3.63-2.26.79-.99,1.79-1.64,3.11-1.75,1.67-.14,3.34-.36,5.01-.5.68-.05,1.06-.29,1.32-.96.38-.97.89-1.89,1.39-2.81.23-.42.56-.77.95-1.29-2.42.32-4.64.25-6.72-.62-1.63-.68-3.17-.79-4.77-.09-.55.24-1.1.48-1.68.64-.29.08-.63-.01-.95-.03h-.01s.01-.05.02-.08c.1-.32.17-.65.34-.94.1-.19.38-.28.59-.39,1.05-.55,2.1-1.08,3.15-1.62,0-.09.01-.17.02-.26-.98-.12-1.97-.34-2.95-.34-.22,0-.42-.01-.63-.03-1.92-.2-3.31-1.3-4.56-2.76-.23-.27-.58-.51-.93-.6-1.38-.39-2.78-.71-4.17-1.1-.29-.08-.54-.32-.82-.47.25-.25.41-.32.58-.32,2.73.15,5.47.47,7.98,1.58.76.34,1.54.64,2.31.9,1.5.53,3.03.93,4.6,1.26.9.19,1.73.76,2.57,1.21.49.27.95.63,1.39.98.57.45,1.1.47,1.72.06.77-.5,1.61-.68,2.56-.58,1.02.1,1.84-.46,2.49-1.21.34-.38.64-.8.93-1.21.53-.77,1.23-1.33,2.18-1.43,1.07-.1,2.15-.12,3.22-.16.6-.02,1.21,0,1.93,0-.14-.54-.21-.86-.29-1.17-.83-3.21-.98-3.39-4.25-3.3-1.95.06-3.52-.57-4.45-2.26-.71-1.3-1.76-1.73-3.08-1.98-3.36-.64-6.68-1.1-10.06-.32-.35.08-.69.17-1.04.28-1.47.46-3.06.52-4.61.69-.31.04-.66-.25-.99-.39.27-.16.53-.39.84-.49,1.08-.36,2.17-.66,3.26-.99-.32-.23-.61-.27-.9-.31-1.9-.24-3.8-.45-5.7-.73-.51-.07-1.14-.15-1.28-.94.24-.05.44-.12.63-.11,2.04.1,4.06.21,6.1.34,1.34.08,2.69.22,4.03.3.62.04,1.25.06,1.88.07,2.45.03,4.9-.11,7.35-.19.4-.01.8-.14,1.19-.21-.09-.42-.08-.9-.29-1.25-.88-1.41-2.19-2.36-3.64-3.11-.85-.45-1.72-.85-2.54-1.36-1.17-.73-1.9-1.77-2.19-3.15-.08-.37-.17-.73-.28-1.09-.18-.62-.38-1.23-.58-1.83-.13-.4-.36-.77-.54-1.14.57.33,1.02.73,1.38,1.19.58.75.91,1.63,1.1,2.58.18.93.61,1.67,1.38,2.1,1.72.95,3.49,1.81,5.36,2.76-.31-2.67.02-5.21.64-7.75.27.31.42.63.42.95.03,1.04.02,2.1,0,3.14-.08,3,.35,5.89,2.19,8.33,1.17,1.55,2.33,3.24,4.46,3.71,1.11.24,2.22.49,3.34.69.88.15,1.11-.1.77-.91-.54-1.32-1.1-2.65-1.8-3.89-.89-1.6-1.23-3.1-.21-4.82.39-.66.4-1.59.44-2.4.04-.77-.13-1.55-.19-2.32-.01-.23.05-.46.08-.69.1,0,.21-.01.31-.01.85,1.64,1.14,3.43,1.13,5.34.93-1.54,1.31-3.38,2.92-4.57.01,1.21-1.28,5.09-1.82,5.94-.56.88-.9,1.87-.39,2.87,1.85,3.61,3.54,7.27,4.33,11.29.08.4.54.86.94,1.04,1.51.66,2.97.1,4.5-.23-1.19-3.75-.69-7.3.58-10.8.14.07.2.14.2.22-.12,4.02.47,7.94,1.86,11.71.15.4.39.85.72,1.08,1.8,1.26,3.69,2.31,5.95,2.58,1.54.18,3.06.55,4.59.87.5.11.98.34,1.67.59-.12-.59-.22-.98-.29-1.38-.27-1.65-.66-3.28-.77-4.94-.14-2,.12-4.02-.05-6.02-.33-3.74-1.53-7.13-5.04-9.07-2.38-1.32-4.8-2.59-7.33-3.57-3.54-1.38-6.81-3.07-9.47-5.85-.51-.53-1.25-1-1.96-1.17-1.39-.34-2.84-.62-4.25-.58-1.99.05-3.95.03-5.89-.43-.7-.17-1.41-.28-2.11-.45-1.83-.43-3.65-.66-5.48.05-.38.15-.82.22-1.23.23-.29,0-.57-.18-.86-.27.22-.23.4-.56.68-.68.94-.44,1.91-.8,3.02-1.25-.23-.34-.38-.64-.6-.9-.8-.93-1.69-1.79-2.45-2.74-.21-.27-.42-.56-.6-.86-1.03-1.66-1.77-3.51-2.58-5.3-.11-.24.1-.63.16-.95.25.22.55.4.75.66.88,1.09,1.7,2.23,2.6,3.29.03.04.07.08.11.12.83.96,1.81,1.79,2.53,2.82.63.9,1.41,1.45,2.41,1.73,1.96.53,3.93,1.06,5.92,1.51,1.21.27,2.42.24,3.6-.31,1.54-.71,3.08-.63,4.6.11.16.08.36.1.72.19-.96-2.57-.58-4.96.19-7.34.16-.48.21-.99.25-1.5.12-1.37-.06-2.69-.79-3.89-.4-.66-.93-1.24-1.3-1.91-1.02-1.84-1.07-3.69.3-5.37,1.32-1.62,2.76-3.15,4.15-4.7.17-.19.45-.27.69-.4.08.06.14.13.22.2-.36.7-.71,1.4-1.09,2.09-.93,1.74-1.86,3.48-2.8,5.22-.33.6-.29,1.17.1,1.68.91,1.17,1.86,2.3,2.71,3.36,1.31-1.03,2.55-2.05,3.85-3,1.56-1.14,2.67-2.54,2.96-4.52.07-.47.21-.94.36-1.39.07-.21.27-.38.42-.56.08.03.17.05.26.08v2.82c.08.03.16.05.24.08.2-.23.43-.45.6-.71.84-1.28,1.66-2.56,2.47-3.86,1.08-1.73,2.12-3.47,3.24-5.17.15-.23.56-.29.86-.43.03.29.16.62.07.88-.29.82-.62,1.62-1.01,2.39-1.16,2.23-2.32,4.46-3.54,6.65-1.42,2.56-2.97,4.95-5.87,6.2-1.6.69-2.74,2.06-3.25,3.78-.55,1.86-1.03,3.76-1.43,5.65-.14.7-.26,1.64.08,2.17.89,1.39,1.9,2.78,3.11,3.89,3.37,3.07,7.29,5.33,11.34,7.35.58.29,1.18.58,1.77.86.05-.07.1-.14.16-.21-.26-.53-.55-1.04-.77-1.59-.61-1.52-1.36-3.02-1.72-4.61-.26-1.18-.05-2.49.07-3.73.08-.75.7-1.16,1.26-1.37,0,1.51-.06,2.99.01,4.47.1,1.75.8,3.53,1.44,4.02.42-2.71.45-5.57,2.67-7.68-.83,4.75-.99,9.37,1.8,13.75.86-1,1.69-1.86,2.42-2.81,1.75-2.26,3.76-4.39,4.12-7.43.14-1.21.56-2.44.47-3.63-.22-2.69.48-4.95,2.36-6.88,1.14-1.17,2.15-2.46,2.47-4.1.29-1.43.43-2.9.62-4.35.23-1.68.26-3.35,1.34-4.86.48-.66.45-1.75.51-2.65.04-.58-.17-1.19-.24-1.78-.36-3.04,1.02-5.83,3.65-7.11-.27.67-.62,1.3-.97,1.94-.77,1.41-1.6,2.85-.71,4.47.86,1.54.62,2.96-.02,4.47-.36.84-.64,1.75-.78,2.65-.32,2.04-.53,4.09-.77,6.15-.02.21.04.42.08.76,1.83-1.37,3.6-2.57,4.7-4.46.85-1.44,1.62-2.93,2.43-4.4.23-.42.49-.84.73-1.26.12.03.23.07.34.1-.12,1.01-.25,2.04-.37,3.03,1.24-.73,2.4-1.54,3.67-2.1,1.1-.49,2.01-1.11,2.84-1.97.57-.6,1.3-1.04,1.95-1.55.05.07.11.14.16.2-.45.63-.88,1.27-1.36,1.88-.77,1-1.61,1.88-2.75,2.52-2.15,1.21-4.03,2.78-5.7,4.62-1.23,1.36-2.05,3.12-3.82,3.98-.57.27-1.08.65-1.62.97-4.66,2.71-6,7.04-5.89,12.07,0,.06.1.12.19.24,1.25-1.13,2.69-1.8,4.35-1.99,2.17-.25,4.35-.45,6.5-.82,2.23-.39,4.44-.96,6.66-1.43,1.48-.32,2.55-1.21,3.5-2.33.36-.43.82-.78,1.25-1.14,2.97-2.44,6.48-3.65,10.18-4.48.59-.13,1.19-.52,1.62-.96.99-1.01,1.91-2.09,3.35-2.45.5-.13,1.03-.09,1.56-.13.01.09.03.18.04.27-.08.08-.16.19-.25.22-1.8.52-3.02,1.75-4.09,3.21-.26.36-.72.71-1.14.78-3.15.57-5.96,1.98-8.72,3.5-.73.4-1.36.99-2.04,1.49.26.19.41.2.54.16,2.22-.71,4.43-1.46,6.67-2.15,1.14-.34,2.31-.61,3.48-.83.34-.06.73.19,1.09.29-.25.29-.43.7-.75.84-1.45.65-2.93,1.23-4.39,1.84-.25.1-.49.24-.9.44.29.13.39.21.49.22,2.23.25,4.45.62,6.68.69,2.03.07,4.06-.2,6.1-.29.75-.03,1.5,0,2.26,0,.02.09.05.18.07.26-.51.18-1,.4-1.52.52-4.03.93-8.11,1.25-12.22.69-2.83-.38-5.61-.38-8.33.62-1.12.42-2.28.75-3.43,1.07-3.49.97-6.99,1.9-10.47,2.89-3.5,1-6.62,2.67-8.85,5.65-1.2,1.6-2.34,3.26-3.37,4.98-.87,1.47-1.69,3-2.24,4.6-.84,2.41-.62,4.77.74,7.07,1.1,1.88,1.91,3.95,2.86,5.96.4-.84,1.35-1.49,1.38-2.71.03-1.13.1-2.26.25-3.38.07-.51.08-.86-.32-1.28-.89-.92-1.11-2.09-.95-3.34.02-.16.18-.3.39-.62.17.47.3.73.36,1.01.2,1.06.6,1.98,1.43,2.73.25.23.29.8.28,1.2-.02.69-.16,1.38-.25,2.08,1.81-.99,3.54-1.91,4.27-3.89.33-.9.71-1.78,1.17-2.62.53-.97,1.14-1.91,2.16-2.43-.69,1.73-1.55,3.37-1.98,5.1-.58,2.28-1.62,4.15-3.4,5.66-.31.26-.53.64-.73,1-.47.83-.82,1.73-1.36,2.51-.8,1.17-1.08,2.43-.79,3.76.59,2.63,1.28,5.24,1.97,7.84.23.84.58,1.65.89,2.49.22-.12.31-.15.38-.2,2.91-2.21,6.2-3.26,9.84-3.39,1.97-.07,3.91-.34,5.05-2.31.27-.46.65-.86.98-1.28,1.23-1.62,2.37-3.32,3.7-4.85.99-1.14,1.56-2.34,1.45-3.82-.16-2.06-.42-4.11-.56-6.17-.1-1.51-.12-3.03-.12-4.55,0-1.54.23-3.11.04-4.63-.42-3.32-.7-6.61-.02-9.92.08-.34.25-.65.37-.97.1.01.2.03.29.05.03.24.08.49.11.73.24,2.5.39,5.02.75,7.51.33,2.3.93,4.56.51,6.93-.16.88-.03,1.82-.03,2.73.09.01.18.03.27.04.16-.3.29-.62.49-.91.65-.95,1.21-2.02,2.02-2.82,1.96-1.97,4.37-3.4,7.08-3.85,2.14-.36,3.08-1.35,3.7-3.3.78-2.41,2.54-4.17,4.75-5.42.25-.14.6-.09.91-.12-.05.29-.03.64-.18.87-.48.75-1.1,1.43-1.53,2.21-1.05,1.94-2.04,3.92-3.03,5.9-.53,1.06-1.24,1.8-2.53,1.83-.46.01-.94.19-1.38.36-2.69,1.05-4.88,2.83-6.68,5.02-2.05,2.49-2.4,5.44-1.8,8.56.14-.03.25-.03.3-.08,1.64-1.48,3.73-2.13,5.69-3.01.24-.1.56-.02.83-.03-.12.27-.16.64-.36.82-.7.6-1.44,1.17-2.2,1.69-1.46.99-3.02,1.82-4.08,3.32-.94,1.34-1.97,2.63-2.96,3.94-.08.11-.12.25-.22.49.49,0,.86.01,1.24,0,.99-.03,1.97-.13,2.96-.09.66.03,1.12-.17,1.41-.72.59-1.1,1.55-1.75,2.67-2.16.72-.27,1.49-.47,2.25-.56,3.92-.49,6.44-2.65,7.7-6.34.49-1.41.92-2.85,1.41-4.26.16-.45.45-.85.69-1.27.09.03.19.05.28.09.43,2.02-.18,4.01-.45,6.21.42-.36.67-.6.95-.81,1.9-1.45,3.87-2.82,6.41-2.59,1.04.09,1.73-.18,2.46-.89,1.08-1.06,2.28-2.02,3.46-2.97.26-.21.69-.23,1.03-.34.03.09.07.17.11.26-.26.36-.52.71-.77,1.07-1.75,2.53-3.72,4.56-6.94,5.41-3.25.86-5.87,3.02-8.01,5.68-1.33,1.64-2.93,2.89-5.12,3.21-.69.1-1.36.36-2.05.56.08.18.08.25.12.28.12.09.24.18.38.24,1.64.77,2.8,2.08,4.05,3.34,1.53,1.55,3.17,3.02,4.91,4.31,2.28,1.69,4.74,3.15,7.09,4.73.67.45,1.27,1,1.91,1.5-.06.11-.12.22-.17.33-.53-.13-1.1-.17-1.58-.39-4.37-1.99-8.57-4.27-12.34-7.29-.26-.21-.56-.38-.92-.64-.08.51-.12.87-.17,1.22-.22,1.67-.7,3.23-2.01,4.39-.33.29-.77.47-1.15.69.07-.41.05-.86.23-1.22.91-1.95,1.16-4.01,1.01-6.13-.06-.97-.46-1.71-1.42-2.1-1.17-.47-2.32-.96-3.47-1.46-.53-.23-.94-.16-1.41.19-1.24.94-2.59,1.49-4.21,1.58-1.78.09-3.32.76-3.91,2.73-.14.47-.44.92-.75,1.32-1.19,1.58-2.93,2.28-4.74,2.71-3.02.72-5.98,1.61-8.66,3.16-1.25.73-2.69,1.68-3.29,2.9-1.65,3.32-2.02,6.97-1.36,10.61.23,1.3.84,2.75,1.75,3.63,1.38,1.32,3.09,2.39,4.83,3.23,3.65,1.78,7.49,2.75,11.64,2.52,1.62-.1,3.34.28,4.92.75,2.71.8,5.02,2.35,7.06,4.32.99.96,2.14,1.64,3.59,1.86,1.56.25,3.11.66,4.58,1.22.95.36,1.75,1.12,2.6,1.71,1.8,1.23,3.61,2.45,5.37,3.74l.18.12h.03c.45.29.75.27,1.17-.14l.19-.2c.05-.05.1-.11.14-.16h0s0,0,0-.01c5.61-6.33,10.13-13.35,13.52-21.1,2.26-5.16,3.95-10.4,5.07-15.72.14-.66.27-1.33.39-1.99.1-.5.18-1,.26-1.5.05-.34.11-.66.15-.99.24-1.56.42-3.13.56-4.7.03-.34.05-.68.08-1.01.05-.63.09-1.25.12-1.89.04-.73.07-1.46.08-2.19.02-.81.03-1.62.02-2.42,0-.44,0-.88-.01-1.32Zm-107.26,3.05c2.49.48,4.24,1.1,4.59,3.96.07.56.25,1.11.32,1.67.07.52-.23.96-.71.65-1.42-.91-3.21-1.34-4.13-2.91-.46-.79-.75-1.67-1.12-2.51.14-.67.46-.99,1.05-.87Zm-4.63,1.01c.65-1.1,1.04-.99,1.85-.05.88,1.02,1.36,2.07,1.38,3.41-.2,1.21-.36,2.41-.6,3.61-.15.72-.71.85-1.27.39-2.03-1.67-2.67-5.13-1.35-7.35Zm-8.17,9.87c2.07,1.36,3.51,3.23,4,5.71.03.14-.53.6-.62.55-1.73-.99-3.9-1.42-4.66-3.63-.18-.51-.34-1.01-.42-1.27,0-1.27.86-1.91,1.7-1.36Zm-7.59,1.84c.34-.69.87-.77,1.45-.23,1.04.97,1.92,2.08,2.2,3.51.25,1.28.41,2.59.56,3.89.03.27-.14.71-.34.81-.19.09-.61-.11-.81-.3-.9-.86-1.87-1.69-2.6-2.7-.6-.83-.88-1.88-1.27-2.76.32-.89.51-1.58.82-2.21Zm-5,3.28c.55-.66,1.01-.71,1.49.01.58.86.97,1.84.65,2.88-.38,1.25-.88,2.47-1.37,3.69-.07.18-.38.44-.49.4-.25-.08-.56-.29-.64-.52-.34-1.01-.6-2.06-.76-2.65.06-1.69.31-2.84,1.12-3.82Zm2.93-12.63c.39-.37.82-.69,1.24-1.01.47-.36.93-.18.9.42-.11,2.16-.78,4.09-2.43,5.58-.47.42-.93.29-1.17-.25-.2-.45-.27-.97-.36-1.27.05-1.59.88-2.57,1.82-3.47Zm36.66-20.12c.65-.46,1.27-.97,1.92-1.43.18-.13.48-.29.62-.23.19.1.43.41.41.61-.28,2.5-.74,4.95-3.05,6.5-.34.22-.77.36-1.17.42-1.01.15-1.52-.33-1.52-1.62.26-1.66,1.22-3.14,2.8-4.25Zm-5.69-.87c.1.1.13.42.04.55-1.21,1.7-2.36,3.48-4.37,4.39-.21.1-.46.12-.56.14-1.1,0-1.62-.67-1.21-1.55.76-1.62,1.79-2.97,3.8-3.14.58-.05,1.14-.34,1.73-.48.18-.04.45-.03.57.08Zm-5.24-4.94c.72-.58,1.43-1.18,2.16-1.74.19-.14.54-.27.68-.19.16.11.26.46.23.69-.36,2.59-1.71,4.62-3.67,6.28-.57.49-1.07.3-1.28-.41-.08-.29-.09-.59-.13-.88,0-1.62.82-2.78,2.01-3.74Zm-11.8-7.18c.06-.12.45-.19.63-.11,2.06.84,3.52,2.3,4.29,4.41.04.11.04.23.05.3,0,.7-.24.98-.94.82-1.32-.29-2.25-1.1-2.93-2.2-.47-.75-.84-1.58-1.19-2.41-.1-.23-.04-.58.08-.82Zm-.58,5.11c1.47.3,3.08.45,4.17,1.82.47.59,1,1.17.57,2-.29.55-1.77,1.02-2.43.66-.69-.38-1.34-.89-1.84-1.48-.49-.58-.8-1.33-1.13-2.03-.27-.57-.02-.95.66-.97Zm-5.58-4.16c.13-.16.42-.4.53-.35.21.09.43.35.47.56.12.68.16,1.36.23,2.05.05.02.1.03.14.05-.27.78-.45,1.6-.82,2.32-.4.76-.91.73-1.48.07-.66-.79-.69-2.23-.04-3.3.3-.49.62-.96.96-1.41Zm-2.89-2.02c.5-.27.97-.6,1.46-.88.16-.09.41-.17.56-.11.14.06.19.32.27.49.05.05.11.1.17.14-.57,1.25-1.07,2.54-1.75,3.74-.2.35-1,.64-1.36.51-.34-.12-.58-.82-.66-1.3-.21-1.16.28-2.03,1.32-2.59Zm7.83-22.52c1.28-.94,2.4-2.25,4.26-2.31.97.29,1.94.56,2.89.9.5.18.57.52.16.97-1.82,1.97-4.73,2.54-7.08,1.36-.45-.23-.62-.64-.23-.92Zm-5.34-2.71c.38-.69.88-1.36,1.46-1.89.8-.71,1.71-1.29,2.61-1.88.21-.14.58-.17.8-.07.16.07.29.47.23.67-.57,1.96-1.62,3.57-3.47,4.56-.21.11-.45.14-.55.17-1-.03-1.52-.8-1.09-1.57Zm-3.93-2.35c.34-.28.62-.64.96-.93.27-.23.58-.41.86-.62.12.34.23.69.42,1.23-.41,1.25-.8,2.63-1.34,3.93-.19.44-.82.69-1.23,1.03-.32-.43-.8-.83-.9-1.31-.26-1.32.16-2.47,1.23-3.35Zm-10.31,2.54c1.11.25,3.55,3.16,3.66,4.32,0,.06,0,.12,0,.18,0,.08,0,.15-.02.23,0,.05-.01.1-.03.14,0,.05-.02.09-.04.13-.01.04-.03.08-.05.11,0,0,0,.01,0,.02-.02.03-.03.06-.06.09-.03.04-.06.08-.1.11-.03.03-.06.05-.1.07-.02.01-.04.02-.06.03-.03.01-.05.02-.08.03-.02,0-.05.01-.08,0-.08.01-.16.01-.25,0-.05,0-.1-.02-.15-.03-.1-.03-.22-.08-.34-.14-1.18-.65-1.99-1.58-2.34-2.91-.14-.55-.38-1.07-.53-1.62-.12-.45-.12-.9.56-.75Zm-.81,6.07c.05-.11.34-.2.46-.15,2.11.79,4.24,1.55,5.47,3.65.14.23.25.48.33.73.43,1.26.14,1.66-1.46,1.65-1.37-.04-2.45-.98-3.22-2.3-.58-.98-1.06-2-1.56-3.02-.08-.16-.09-.42-.01-.57Zm1.36,17.87c.34-.08.71-.06,1.07-.08.01-.06.03-.12.05-.19,1.08.29,2.18.56,3.25.89.32.1.67.36.83.64.23.41.45.95.36,1.37-.05.24-.71.45-1.11.51-1.34.2-2.54-.12-3.52-1.13-.35-.36-.82-.6-1.19-.94-.21-.18-.32-.46-.47-.7.25-.13.48-.32.74-.38Zm-.48-7.4c.05-.12.1-.49.3-.59.18-.1.58.02.77.18,1.45,1.17,2.53,2.6,3.12,4.37.24.72.27,1.47-.5,1.9-.86.49-1.42-.11-1.91-.69-1.2-1.44-1.5-3.21-1.78-5.17Zm-5.74-4.23c1.52-1.32,5.05-1.47,6.67-.29.71.52.73.88-.07,1.29-.86.44-1.76.78-2.6,1.14-1.45-.46-2.74-.83-4-1.29-.47-.18-.33-.57,0-.85Zm-5.59,8.27c1.09-1.03,2.67-1.15,3.92-.42.64.37.71.86.12,1.35-.96.79-2.08,1.15-3.38,1.27-.6-.2-1.19-.4-1.8-.6.38-.53.66-1.16,1.13-1.59Zm4.2,33.04c-1.13,1.28-2.54,2.16-4.24,2.52-.9.2-1.8.42-2.71.58-.25.05-.65-.03-.77-.21-.1-.14,0-.6.17-.76,1.5-1.49,2.95-3.04,4.6-4.36.73-.6,1.83-.82,2.8-1.02.8-.17,1.25.34,1.41,1.23-.41.68-.73,1.43-1.25,2.01Zm.36,3.92c-.42.65-.76,1.39-1.3,1.93-.6.58-1.37,1.04-2.12,1.43-.63.33-1.07-.02-.88-.66.47-1.58,1.4-2.83,2.89-3.57.77-.38,1.27-.05,1.41.88Zm-9.04-5.36c.41-.04.86.22,1.28.34-.14.48-.14,1.21-.46,1.41-1.21.73-2.52,1.32-3.82,1.88-.48.21-1.06.16-1.75.25-.13-.08-.54-.2-.56-.37-.03-.3.06-.76.28-.93,1.51-1.17,3.03-2.38,5.03-2.58Zm-.93-4.02c.12-.23.38-.45.63-.54,1.8-.67,3.64-.62,5.48-.23.63.14,1.28.35,1.83.69.75.45.66,1.17-.16,1.45-.95.34-1.93.58-3.11.92-1.41-.55-2.91-1.11-4.39-1.71-.15-.06-.34-.45-.27-.57Zm9.79-.51c-1.99-.74-3.51-2.02-4.37-4-.31-.73-.19-1.08.73-1.08.38.16,1.05.34,1.64.67,1.38.75,2.41,1.88,3.15,3.25.16.29.15.9-.05,1.12-.18.19-.77.17-1.1.05Zm-1.16-5.2c-1.32-.38-2.14-1.35-2.51-2.6-.42-1.46-.7-2.96-.99-4.46-.05-.21.09-.54.25-.69.12-.11.5-.11.64,0,2.12,1.69,3.58,3.83,4.3,6.46.01.05,0,.12.01.18,0,.9-.72,1.4-1.7,1.11Zm-3.87-13.08c-.31-1.04-.3-2.18-.39-3.28-.01-.23.09-.54.25-.69.1-.09.47,0,.63.12,1.86,1.39,3.1,3.19,3.53,5.5.03.17.03.36.04.53.05.04.11.08.17.13-.33.45-.59,1.19-.99,1.27-.54.1-1.43-.13-1.73-.53-.66-.91-1.2-1.98-1.52-3.06Zm-6.41,6.18c.11-.14.62-.16.79-.02,1.73,1.4,3.82,2.37,5.13,4.29.13.2.27.39.4.6.73,1.25.29,2.02-1.49,2.02-1.28-.21-2.38-1.23-3.2-2.48-.71-1.09-1.21-2.34-1.74-3.54-.1-.23-.05-.66.12-.86Zm.42,6.72c1.48.42,2.95.9,4.41,1.41.29.1.64.32.77.58.22.45.43.99.36,1.45-.03.21-.76.31-1.19.44-.14.04-.29,0-.48,0-1.2.21-2.17-.25-2.99-1.16-.44-.48-1.01-.85-1.43-1.34-.24-.27-.3-.7-.45-1.06.34-.12.72-.4,1-.33ZM.28,76.12c-.02-.26.15-.7.36-.8,1.21-.55,2.45-1.01,3.68-1.51.03.05.08.1.11.16.37.11.75.18,1.1.34.74.36.79,1.02.14,1.55-.8.64-1.72.95-2.75.85-.65-.05-1.31-.09-1.95-.19-.26-.05-.66-.25-.69-.4Zm1.36,9.64c0-.19.14-.49.31-.56.56-.27,1.14-.54,1.75-.67,1.05-.24,2.12-.41,3.19-.53.42-.05.91.04,1.3.21.86.38.92,1.21.08,1.62-.88.42-1.84.64-2.39.82-1.56-.21-2.68-.34-3.8-.52-.17-.03-.43-.24-.44-.37Zm2.31,4.35c.18-.25.3-.59.55-.73,2.04-1.12,4.15-2.15,6.5-2.41.45-.05,1.09.19,1.37.52.16.19-.14.9-.39,1.28-.96,1.43-2.36,2.03-4.06,2.02-1.04-.05-2.09-.07-3.13-.18-.3-.03-.57-.32-.85-.5Zm3.61,6.44c-.26-.06-.47-.38-.69-.59.21-.18.4-.45.64-.53,1.95-.64,3.89-1.41,6.01-1.06.27.04.6.02.77.17.43.36.98.77,1.09,1.25.05.26-.64.84-1.1,1.03-.79.32-1.66.43-2.45.63-1.48-.31-2.89-.58-4.28-.91Zm13.85,2.43c.25-.68.88-1.25,1.43-1.77.42-.39.86-.28,1.11.34,1.15,2.84-.24,4.7-2.38,6.51-.16.14-.65.17-.71.07-.21-.32-.3-.73-.48-1.21.32-1.3.56-2.67,1.03-3.95Zm-3.21-2.23c.69-.29,1.33.25,1.3.89-.11,2.57-2.05,5.11-4.47,5.82-.25.08-.68.09-.82-.06-.17-.2-.25-.62-.18-.88.47-1.61.96-3.24,2.2-4.45.56-.54,1.24-1.01,1.96-1.32Zm.84-4.35c-.1.3-.82.4-1.26.59-1.55-.14-2.51-.84-3.06-2.23-.27-.69-.69-1.32-.97-2-.11-.26-.15-.71,0-.87.15-.16.62-.16.86-.05,1.59.73,3.06,1.66,4.04,3.15.27.4.53,1.03.4,1.42Zm4.28-10.93h.01c0-.45-.03-.9.01-1.35.02-.21.13-.5.29-.58.15-.08.49,0,.62.14,1.51,1.51,2.5,3.28,2.45,5.48-.03,1.01-.64,1.34-1.51.86-1.24-.69-1.66-1.91-1.86-3.2-.07-.44-.01-.9-.01-1.34Zm-1.26,4.7c1.84.67,3.38,1.79,4.61,3.31.02.03.05.06.06.09.03.04.05.08.07.12.02.03.04.08.05.12.03.05.05.12.07.17.02.06.04.12.05.16.03.1.06.19.08.25,0,.13,0,.25-.01.37,0,.1-.02.19-.04.28-.01.08-.04.16-.07.23-.02.05-.05.11-.08.15-.04.07-.09.12-.15.17-.04.03-.08.06-.13.08-.03.01-.05.02-.08.03-.03.01-.05.02-.08.02-.16.05-.35.05-.58.02-1.84-.24-3.42-.88-4.05-2.88-.19-.56-.55-1.07-.72-1.64-.1-.3-.08-.75.1-.98.13-.16.62-.19.89-.08Zm-2.34-8.93c1.07-.62,1.5-.38,1.6.88.01.15.02.3.03.37-.12,2.26-1.27,3.76-3.09,4.81-.55.32-.8,0-.93-.54-.43-1.91.7-4.54,2.39-5.52Zm17.6-2.43c-.44.98-1.06,1.9-1.73,2.74-.25.32-.85.34-1.43.54-.4-.25-1.01-.42-1.16-.77-.14-.36.07-1,.35-1.34.82-.99,1.75-1.88,3.11-2.12.88-.15,1.22.14.86.95Zm5.43-4.59c.42,0,.77.24.7.82-.14,1.12-.57,2.07-1.72,2.51-.45.17-.88.42-1.34.51-.2.04-.64-.21-.67-.37-.2-1.13,1.82-3.48,3.03-3.47Zm-7.22,1.75c.88-1.61,1.99-3,3.89-3.44.73-.17,1.12.15,1.07.76-.23,1.02-.8,1.8-1.73,2.27-.8.4-1.62.76-2.45,1.09-.21.08-.53,0-.73-.12-.1-.05-.14-.41-.05-.56Zm-5.26-1.62c1.09-1.27,2.41-2.25,4.06-2.63.85-.19,1.31.51.91,1.29-.49.97-1.38,1.49-2.36,1.8-.67.22-1.41.27-2.24.41-.08-.04-.34-.09-.4-.23-.08-.19-.09-.51.03-.65Zm-1.1,2.32c.18-.07.36-.13.55-.17.08-.02.15-.03.23-.05.14-.03.28-.05.42-.08.32-.05.66-.05.98-.08.18-.01.36-.08.53-.04.3.05.59.16.88.24-.11.26-.16.57-.34.77-.73.85-1.41,1.8-2.3,2.44-.08.05-.15.1-.23.14-.13.07-.27.12-.42.16-.12.03-.24.05-.36.08-.07,0-.14.02-.21.02-.05,0-.09,0-.14.01-.03,0-.05,0-.08,0-.25.01-.51,0-.75-.01-1.12-.09-1.45-1.05-.76-1.95.08-.1.16-.2.25-.29.05-.06.11-.12.17-.18,0-.01,0,0,0,0,.08-.08.15-.16.23-.22.13-.12.27-.22.42-.32.08-.05.16-.1.24-.14,0,0,0-.01.01,0,.01-.01.03-.02.04-.03.12-.07.24-.13.36-.18.09-.04.18-.08.27-.11Zm-6.26.01c1.17-1.89,2.75-3.3,4.87-4.04.6-.21.99.05,1.03.76-.26,1.36-.98,2.5-2.26,3.12-.96.46-2.03.7-3.06.99-.18.05-.52-.04-.61-.18-.1-.15-.08-.49.03-.66Zm-1.27-1.58c.09.21.04.47.05.74,0,.18,0,.39-.03.6-.15.97-.88,1.29-1.69.75-1.47-.98-2.02-2.56-1.64-4.58.12-.66.14-1.35.25-2.02.03-.21.16-.45.32-.57.08-.06.44.08.5.21.77,1.61,1.51,3.24,2.23,4.87Zm-.4-8.58c-.06.67-.54.84-1.19.54-2.07-.94-2.83-2.18-2.71-4.63-.08-.65-.19-1.3-.23-1.95-.01-.23.09-.59.25-.68.16-.1.59-.02.71.13,1.06,1.32,2.19,2.61,3.03,4.07.38.65.22,1.67.14,2.51Zm1.42-8.41c-.32.47-.99.69-1.31.89-1.96-.24-3.06-1.16-3.8-2.55-.4-.77-.77-1.55-1.11-2.34-.1-.23-.16-.62-.05-.73.16-.17.55-.28.78-.21.68.21,1.41.4,1.97.8,1.06.75,2.05,1.62,3.03,2.49.49.43.88,1.08.48,1.66Zm-.89-6.08c-.7-.36-1.39-.54-1.86-.98-.75-.7-1.38-1.55-2.03-2.36-.14-.17-.12-.47-.16-.71.25-.05.51-.19.74-.14,1.53.25,2.92.88,4.08,1.89.36.32.71,1.02.59,1.39-.12.38-.82.59-1.35.92Zm4.21,14.17c-.02.32-.12.66-.28.94-.4.75-1.09.82-1.66.18-.75-.84-1.03-1.86-1.09-3.16.19-.9.37-1.99.64-3.06.14-.52.8-.57,1.01-.04.64,1.66,1.51,3.28,1.38,5.14Zm6.67-3.09c.52-.12.86.08.73.66-.01.08-.04.16-.08.25-.03.08-.08.16-.12.24-.45.82-1.55,1.91-2.6,2.67-.2.15-.4.29-.6.4-.12.08-.23.14-.34.2-.07.03-.13.07-.19.1-.06.03-.12.06-.18.08-.12.05-.23.09-.33.12-.07.02-.13.03-.19.04-.05,0-.12,0-.18.01-.81.02-1.14-.45-.88-1.22.27-.8.62-1.52,1.14-2.06.06-.07.12-.13.19-.19.06-.06.13-.12.2-.17.08-.05.14-.11.22-.16.1-.06.19-.12.29-.17.05-.03.1-.05.15-.08.14-.06.29-.12.45-.16.08-.03.15-.05.23-.06.06-.01.13-.03.2-.04.1-.02.2-.03.31-.05h.02c.53-.06,1.03-.29,1.56-.41Zm-1.95-4.24c.26.43.58.96.53,1.4-.03.32-.6.64-.99.84-.33.17-.75.16-1.12.23-.03.05-.06.1-.1.15-.74-.33-1.49-.64-2.22-.99-.53-.26-1.06-.53-1.56-.86-.2-.13-.38-.4-.41-.62-.02-.14.25-.4.43-.47,1.55-.53,3.11-.86,4.7-.14.27.12.62.23.75.45Zm-.45-13.56c.22-.04.64.38.78.69.34.72.56,1.49.87,2.39-.45,1.36-.88,2.78-1.41,4.16-.22.57-.7.59-.98.01-1.03-2.12-1.38-4.32-.27-6.53.17-.34.64-.66,1.01-.73Zm.27-7.55c-.17.29-.56.6-.86.63-.22.02-.55-.37-.72-.65-1.07-1.81-1.01-3.63.02-5.45.32-.58.53-1.21.84-1.78.16-.28.45-.48.69-.71.2.27.5.52.58.82.23.89.36,1.81.48,2.42-.05,1.86-.21,3.37-1.02,4.72Zm1.91.19c-.21-.1-.25-.52-.27-.56.12-1.95.77-3.34,2.12-4.37.43-.32.78-.75,1.21-1.08.03-.03.08-.05.12-.06h0s.07-.04.11-.05c.01,0,.03,0,.04-.01.03,0,.07-.02.1-.02.04,0,.09-.01.13-.01.05,0,.1,0,.14.01.12.03.28.34.25.5-.01.09-.03.17-.04.26-.01.09-.03.17-.04.26-.04.25-.09.51-.15.76-.05.25-.12.49-.2.73-.03.1-.05.18-.09.27-.03.12-.08.23-.13.34-.07.16-.14.32-.21.48,0,0,0,.01,0,.02-.08.15-.16.29-.25.44-.1.15-.19.29-.29.44h0c-.23.34-.51.65-.84.94l-.12.1c-.06.05-.13.11-.2.16-.15.12-.31.23-.47.33-.25.15-.67.23-.9.12Zm1.82,3.44c-.34-.1-.67-.19-.88-.34-.04-.03-.08-.06-.1-.1-.03-.03-.05-.06-.07-.1-.35-.73.36-1.3.91-1.75.17-.14.34-.28.52-.4.3-.22.61-.42.93-.58.12-.08.25-.14.38-.2.03-.01.05-.03.08-.03.16-.08.32-.14.48-.2.18-.07.36-.12.54-.16.13-.03.25-.06.38-.09.08-.03.16-.04.25-.05.1-.02.21-.03.31-.04.08-.01.16-.02.24-.02.13,0,.26-.01.4-.01h.14c.23,0,.46.17.69.27-.11.19-.21.4-.34.58-.51.66-1.07,1.28-1.56,1.95-.68.92-1.56,1.36-2.76,1.45-.16-.06-.35-.12-.54-.16Zm4.11,4.35c-.82-.2-1.45-.29-2.03-.5-.71-.25-.87-1.24-.12-1.84,1-.8,2.15-1.44,3.32-2,.76-.37,1.65-.49,2.49-.67.25-.05.66-.03.8.12.13.16.1.6-.03.8-.79,1.11-1.54,2.27-2.49,3.24-.49.5-1.36.62-1.93.86Zm9.14.66c-1.17.98-2.12,2.33-3.82,2.5-.12.01-.24.02-.36.03-.03.05-.05.11-.07.16-.73-.29-1.51-.51-2.19-.9-.84-.47-.84-1.02-.08-1.59,1.41-1.04,3.04-1.34,4.75-1.27.45.01.9.06,1.33.16.51.11.82.59.44.9Zm1.79-2.32c-.13.23-.6.25-.7.29-2.12-.08-4.04-1.63-4.59-3.5-.19-.66.22-.73.68-.69,1.76.16,3.01,1.18,4.04,2.52.11.14.22.29.29.45.12.32.39.74.28.93Zm-1.2-6.22c-.53.32-1.12.56-1.71.79-.71.27-.97.05-.88-.67.17-1.47,2.22-3.75,3.64-4.01,1-.19.6.61.71,1.06-.03,1.29-.71,2.19-1.75,2.83Zm3.78-.63c.21.05.39.46.47.75.11.36.11.77.16,1.15.05.03.12.05.18.08-.39,1.11-.74,2.24-1.2,3.33-.23.53-.67.58-1,0-.9-1.6-.67-3.58.59-4.9.21-.21.58-.47.8-.41Zm-1.12-8.19c-1.56.06-2.6-.48-3.34-1.59-.43-.64-.82-1.32-1.21-2-.27-.47-.05-.8.42-.84,2.43-.21,4.27.32,5.06,2.8.45,1.41.31,1.61-.93,1.63Zm3.53-4.32c-.03.42-.36.82-.55,1.23-.36-.17-.73-.31-1.06-.51-.07-.04-.13-.09-.19-.13s-.12-.09-.18-.14c-.12-.09-.23-.19-.33-.28-.1-.1-.21-.21-.29-.32-.12-.14-.23-.28-.31-.42-.05-.07-.09-.14-.12-.21-.05-.08-.1-.17-.13-.26-.03-.07-.06-.14-.09-.21-.03-.1-.07-.19-.1-.29-.03-.1-.05-.2-.08-.3-.01-.05-.02-.11-.03-.17-.02-.08-.03-.16-.04-.24-.05-.33-.06-.66-.04-1.01,0-.08,0-.16,0-.25,0-.03,0-.06,0-.09,0-.1,0-.19.03-.27.12-.42.25-.85.38-1.27.38.24.82.43,1.16.73,1.28,1.19,2.08,2.63,1.95,4.42Zm2-4.15c-.25.6-.7.66-1.27.18-1.6-1.36-1.97-2.97-1.24-4.91.26-.7.44-1.43.69-2.13.05-.17.22-.36.38-.42.08-.04.34.14.39.27.64,1.49,1.78,2.82,1.75,4.65-.23.8-.37,1.62-.69,2.37Zm63.57-.42c1.16-.04,2.32.08,3.48.15.2.01.4.17.6.25-.08.18-.12.4-.25.52-1,.88-4.19,1.97-5.62,1.95-.04.07-.08.14-.12.21-.56-.3-1.41-.48-1.6-.94-.33-.8.4-1.42,1.11-1.68.75-.28,1.59-.44,2.4-.47Zm-6.53,5.78c-1.03-.38-.97-.8-.03-1.41,1.45-.96,2.92-.78,4.34-.04.79.4,1.47,1.01,2.19,1.56.14.11.2.34.3.51-.19.11-.38.28-.58.3-.56.06-1.13.07-1.7.1-.02.08-.05.15-.07.23-1.48-.41-3-.73-4.44-1.25Zm3.43,6.12c-.27.05-.6.23-.8.12-2.07-1.09-4.03-2.35-5.33-4.37-.49-.76-.16-1.25.94-1.27,1.67.19,2.89,1.25,3.74,2.84.37.67.83,1.3,1.22,1.95.12.21.15.47.23.71Zm-.61-15.16c.23-.21.62-.24.94-.35.03.31.12.62.07.92-.45,2.62-2.08,4.43-4.14,5.94-.19.14-.51.21-.73.16-.03,0-.05-.03-.08-.05-.05-.05-.09-.14-.1-.21,0-.01,0-.03,0-.04v-.02h0c-.08-1.81.79-2.95,1.69-4.02.71-.84,1.54-1.59,2.36-2.32Zm-6.39.95c.32-.86.69-1.71,1.06-2.56.1-.22.29-.4.44-.6.18.18.39.32.53.53,1.45,2.19.54,4.15-.66,6.06-.25.4-.57.77-.9,1.1-.14.15-.41.25-.61.23-.11-.01-.24-.31-.27-.49-.1-.58-.16-1.18-.27-2.03.18-.6.4-1.43.69-2.24Zm-6.46-4.84c.72.07,1.44.14,2.16.21-1.17,1.26-2.42,2.23-4.1,2.34-.75.05-.97-.42-.62-1.12.51-1.01,1.43-1.53,2.56-1.43Zm-18.01,1.64c.23-.06.48-.05.55-.05,1.56,0,2.59.58,3.18,1.86.34.72.11.95-.69.95-1.43-.02-2.51-.67-3.37-1.76-.15-.2-.24-.45-.36-.67.23-.11.45-.25.69-.32Zm-6.48,1.08c.1-1.25.39-2.41,1.62-3.11.96-.55,1.85-1.21,2.79-1.79.18-.11.49-.2.64-.12.14.08.21.42.16.62-.47,2.05-1.42,3.8-3.21,4.99-.31.21-.7.29-.88.37-.84,0-1.16-.36-1.11-.96Zm-3.24,7.09c-.95.46-2.3.11-2.39-.39-.16-.93.34-1.67,1.01-2.27.88-.8,1.96-1.1,2.76-1.17,1.4,0,2.43-.01,3.47.01.21,0,.51.13.58.29.07.14-.07.51-.22.6-1.72,1.01-3.41,2.07-5.21,2.93Zm3.49,6.9c-.05.12-.35.25-.5.21-1.25-.31-2.54-.53-3.71-1.03-1.46-.63-2.33-1.95-3-3.34-.09-.2.19-.75.43-.88.39-.23.9-.25,1.2-.32,2.16.12,3.43,1.19,4.27,2.91.32.66.77,1.27,1.14,1.91.1.17.22.4.16.55Zm-19.47-16.84c.11-.47.43-.54.8-.23.9.77,1.41,3.01.84,4.11-.21.4-.79.97-1.03.9-.42-.12-.75-.66-1.03-1.08-.14-.23-.08-.58-.13-1.03.16-.8.33-1.74.55-2.67Zm-2.21,9.12c.32-.78.89-1.54,1.55-2.08.77-.62,1.75-1.01,2.64-1.48.14-.08.33-.08.62-.14-.03.34.03.63-.08.82-.84,1.4-1.67,2.81-2.6,4.14-.43.6-1.25,1.15-1.91.6-.36-.3-.43-1.32-.22-1.86Zm2.6,11.53c-.34.17-1.02-.05-1.41-.32-1.5-1.02-1.91-2.67-1.18-4.34.21-.49.36-1.01.58-1.5.09-.19.29-.42.47-.45.18-.03.51.13.57.29.64,1.6,1.25,3.21,1.9,4.91-.34.56-.52,1.21-.92,1.41Zm3.48-6.65c-.38.07-.77.05-1.16.08-1.27.05-2.41-.34-3.43-1.1-.52-.39-.6-.73.08-1.13,1.05-.63,2.04-.58,3.03.03.61.38,1.18.81,1.74,1.25.14.11.32.4.27.5-.09.16-.33.32-.53.36Zm4.66-4.41c-1.01,1.18-2.32,1.38-3.75,1.12-.56-.1-1.1-.29-1.64-.47-.69-.23-.79-.59-.25-1.1.84-.8,1.76-1.46,3.09-1.47.8.29,1.6.58,2.38.9.53.23.51.61.18,1.01Zm-.25-2.84c-1.72-.21-3.02-1.12-3.87-2.59-.55-.95-.93-2-1.36-3.02-.08-.19-.02-.46.06-.65.03-.08.36-.12.47-.05,2.12,1.23,4.41,2.26,5.46,4.7.06.14.12.27.17.42.34.95.09,1.26-.95,1.19Zm2.79-3.08c-.19.05-.67-.42-.82-.75-.34-.78-.54-1.62-.79-2.39.19-.65.29-1.21.53-1.71.33-.7.74-1.36,1.14-2.02.1-.16.3-.34.46-.34.14,0,.39.19.43.35.53,2.01.97,4.03-.04,6.01-.19.37-.56.76-.92.86Zm.88,2.31c.38-.75.58-1.74,1.19-2.23,1.29-1.04,2.78-1.83,4.2-2.69.13-.08.45-.03.56.08.1.1.14.4.07.56-.99,2.17-2.33,4.04-4.6,5.04-.77.34-1.25.05-1.42-.76Zm-3.03,11.65c.11-1.05.8-2.08,1.38-3.02.3-.48.97-.28,1.22.17.5.92.93,1.9,1.27,2.89.18.52.11,1.12.14,1.69.03,0,.05,0,.08,0-.13,1.25-.23,2.5-.41,3.74-.1.65-.73.87-1.1.36-1.28-1.76-2.82-3.5-2.58-5.84Zm-3.47,4.89c.11-.89.71-1.17,1.47-.67,1.23.82,1.86,2.08,2.35,3.42.42,1.14.75,2.33,1.11,3.5.19.58-.17.99-.72.86-1.8-.42-4.03-2.85-4.32-4.7-.03-.24-.03-.48-.04-.54.05-.75.08-1.32.15-1.88Zm-3.85,2.63c.82-.87,1.7-.81,2.16.32.34.84.42,1.78.6,2.61-.23,1.41-.42,2.71-.66,4-.04.21-.28.47-.49.53-.13.05-.45-.16-.54-.34-.58-1.04-1.14-2.1-1.67-3.17-.71-1.45-.52-2.77.6-3.95Zm4.73,12.57c-.49.08-1.01.02-1.52.02-.01.11-.03.21-.04.32-1.58-.3-3.21-.42-4.7-.97-.86-.32-1.61-1.21-2.16-2.02-.62-.93.05-1.84,1.17-1.71,2.2.27,4.24,1.01,6.11,2.2.51.32,1.01.64,1.48,1.02.2.16.29.45.44.69-.26.16-.51.4-.78.45Zm5.06-3.85c-.11.03-.23,0-.61,0-1.39-.23-3.1-.23-4.48-1.35-.25-.21-.57-.48-.6-.75-.06-.51-.1-1.18.17-1.51.27-.32.96-.45,1.44-.38.5.05.97.4,1.43.67,1.01.58,2.02,1.16,2.97,1.82.37.25.6.73.88,1.1-.4.13-.8.27-1.21.39Zm3.58-3.89c-2.17-.67-3.47-2.25-4.24-4.28-.08-.2.25-.77.47-.82,1.84-.4,4.95,2.43,4.83,4.64-.03.39-.4.66-1.06.46Zm-.36-10.32c0-1.21.57-1.54,1.67-1.03,1.43.68,1.9,1.91,2.06,3.34.08.74.12,1.49.18,2.23.05.54-.14.74-.69.49-1.5-.7-3.2-3.35-3.21-5.03Zm8.76,17.29c-1.76.3-3.15-.49-4.36-1.64-.59-.55-1.1-1.18-1.62-1.8-.17-.21-.23-.51-.34-.76.25-.06.49-.15.74-.19.26-.03.53,0,.8,0,2.41.03,4.41.75,5.39,3.21.3.77.23,1.03-.61,1.18Zm1.23-6.6c-1.33.66-2.74.49-4-.38-.86-.59-1.7-1.21-2.54-1.82-.13-.1-.19-.27-.36-.51,2.24-.61,4.36-.8,6.52-.44.09.01.19.03.26.07.62.42,1.23.86,1.85,1.28-.57.62-1.03,1.45-1.73,1.8Zm4.35-7.31c-1.05,2.13-3,2.43-5.32,2.56-.3-.08-.84-.2-1.38-.32.25-.55.43-1.16.78-1.64,1.24-1.71,3.42-2.51,5.28-2.01.92.24,1.06.56.64,1.41Zm.47-5.14c-1.23,1.88-2.95,2.2-5,1.62-.64-.18-1.32-.21-1.97-.31-.03-.12-.06-.23-.1-.35.62-.37,1.22-.77,1.86-1.11,1.47-.77,3-1.37,4.7-1.09.29.05.7.19.8.41.09.19-.13.58-.29.82Zm1.09-4.76c-1.1,1.82-2.98,3.04-5.28,2.32-.85-.27-1.72-.49-2.57-.76-.18-.05-.37-.19-.47-.34-.04-.07.1-.35.21-.41,1.81-.97,3.52-2.22,5.74-2.06.62.08,1.24.16,1.86.25.63.1.84.44.51,1Zm1.55-6.13c-.94,1.43-2.28,2.04-3.96,1.95-.83-.04-1.67-.08-2.5-.13-.45-.02-.65-.27-.31-.62,1.69-1.71,3.54-3.03,6.15-2.58,1.1.19,1.23.47.62,1.38Zm1.61-2.71c-.42.08-.94.12-1.3-.05-1.56-.76-2.07-2.43-3.16-3.63,1.6-.34,4.46,1.26,4.99,2.59.22.53.09.99-.53,1.08Zm-.25-4.14c-.99-.36-1.45-1.03-1.49-2.1-.03-.65-.19-1.3-.25-1.95-.02-.24.08-.5.12-.75.23.05.52.04.7.17,1.21.91,2.34,1.89,2.41,3.52,0,1.02-.58,1.43-1.48,1.1Zm2.4,2.49c-.28-1.17-.01-2.08,1-2.7.48-.29,1.01-.51,1.54-.7,1.01-.36,2.03-.67,3.05-.98.19-.05.39-.03.88-.07-1.38,2.31-2.84,4.15-5.13,5.14-.6.27-1.14.13-1.34-.69Zm4.93,10.71c-.13,1.08-1.18,1.43-2.1.84-1.39-.9-2.45-2.02-2.41-3.8.05-.95.09-1.9.16-2.84.01-.16.09-.39.21-.45.11-.05.36.02.47.13,1.19,1.19,2.67,2.17,3.31,3.81.28.71.45,1.56.36,2.31Zm-2.62-7.07c-.35-.11-.83-.49-.85-.77-.03-.29.37-.71.68-.94,1.47-1.13,3.52-1.19,5.15-.27.77.43,1.63.73,2.43,1.13.24.12.4.38.6.58-.21.18-.4.47-.63.52-1.17.27-2.34.47-3.61.71-1.23-.31-2.51-.58-3.76-.95Zm10.53,5.46c-1.18.86-2.54,1.15-4.28,1.25-.42-.11-1.16-.25-1.86-.49-.53-.19-.61-.63-.1-.92,1.14-.64,2.29-1.3,3.5-1.77.97-.37,1.99-.31,2.83.52.53.53.49.97-.1,1.41Zm-4.56,7.18c.44-.44.99-.21,1.21.26.34.73.51,1.55.76,2.33-.12,1.51-.56,2.83-1.33,4.05-.12.19-.38.38-.6.41-.11.02-.33-.29-.41-.49-.37-.88-.76-1.75-1.05-2.67-.51-1.64.36-2.83,1.42-3.9Zm-2.1,15.87c-1.95.11-3.59-.44-4.76-2.09-.43-.6-.9-1.19-1.34-1.78-.4-.55-.28-.88.39-.97.32-.05.66,0,.98,0,2.21-.03,4.06.64,5.15,2.7.19.36.3.78.39,1.19.13.62-.14.93-.81.97Zm4.07-1.31c-.36.84-.84.91-1.54.36-1.13-.88-1.6-2.14-1.08-3.5.45-1.19,1.1-2.31,1.69-3.45.08-.14.4-.34.48-.29.21.12.44.35.47.56.23,1.35.4,2.71.62,4.26-.19.59-.34,1.35-.64,2.04Zm3.7-10.6c-.03.16-.25.32-.42.37-.08.03-.28-.17-.36-.31-.35-.65-.7-1.31-1.01-1.98-.82-1.82-.67-3.56.49-5.18.47-.66,1.1-.62,1.34.15.33,1.05.5,2.15.71,3.12-.27,1.37-.49,2.6-.76,3.83Zm5.97,4.79c-.12.03-.24.03-.47.05-.95.16-1.84-.17-2.61-.87-.68-.62-1.34-1.27-1.97-1.95-.44-.49-.27-.95.37-.99,2.14-.14,4.04.41,5.39,2.18.25.34.28.85.41,1.27-.38.1-.75.21-1.13.3Zm5.68-2.33c-.36.3-1.18.23-1.72.08-1.92-.55-3.28-1.91-4.56-3.35-.42-.47-.27-.82.37-.92.29-.04.59-.06.62-.07,1.96,0,3.45.5,4.64,1.75.18.19.36.4.48.64.33.61.8,1.36.18,1.88Zm2.8-2.62c-.18.53-.6.58-1.06.16-1.21-1.09-1.73-2.47-1.81-4.12.21-1.2.42-2.46.67-3.71.1-.48.47-.6.75-.14.94,1.54,2.23,2.97,2.15,4.91-.04.97-.38,1.95-.7,2.9Zm-33.32,36.45c-1.83-.06-3.09-1.2-3.52-3.2-.21-.93-.39-1.85-.55-2.79-.09-.51.18-.76.68-.57,1.77.68,4.35,3.49,4.57,5.52.09.86-.15,1.07-1.18,1.03Zm2.95-4.7c-1.23-.12-2.17-.81-2.98-1.66-1.1-1.16-1.6-2.57-1.66-4.16,0-.5.18-1.05.75-.65,1.62,1.14,3.48,2.06,4.28,4.05.2.49.36,1.01.46,1.54.14.66-.19.95-.85.88Zm11.93-14.55c1.63.1,2.9.88,3.74,2.28.45.75-.03,1.32-1.45,1.31-.32-.21-1.01-.54-1.56-1.04-.5-.45-.86-1.07-1.24-1.63-.36-.54-.15-.95.51-.92Zm-2.51,4.03c1.38.14,2.87-.05,4.04.93.73.6,1.43,1.26,2.01,2,.62.8.34,1.32-.66,1.49-.32.05-.65.07-.95.1-1.25-.04-2.33-.42-3.19-1.31-.62-.64-1.26-1.29-1.84-1.97-.2-.24-.24-.62-.35-.95.31-.1.63-.32.93-.29Zm-6.94,1.06c-.05-.19.2-.66.27-.65,1.78.17,3.63.21,4.87,1.77.3.37.67,1.05.52,1.34-.21.4-.87.56-1.34.83-1.75-.19-3.85-1.69-4.33-3.28Zm1.69,6.03c1.13-.53,2.26-1.15,3.45-1.47.78-.21,1.72-.08,2.52.14.82.23.89,1.01.26,1.61-1.1,1.03-2.47,1.41-4.32,1.51-.42-.12-1.22-.26-1.94-.59-.73-.33-.69-.86.03-1.2Zm4.93,8.27c-1.04,1.4-2.44,2.37-4.11,2.89-.81.25-1.13-.1-.91-.93.24-.89.47-1.79.75-2.67.38-1.23,1.21-2.13,2.29-2.78,1.21-.72,2.71.13,2.72,1.83-.16.36-.32,1.1-.73,1.65Zm2.29,4.5c-.51.36-.81.05-.86-.45-.06-.51-.01-1.02-.01-1.53-.12-2.3.77-4.06,2.89-5.1,1.27-.63,1.88-.24,1.84,1.16-.1,2.73-1.75,4.48-3.85,5.92Zm4.35-11.56c-.56,1.73-2.1,2.65-4.42,2.87-.49-.12-.99-.25-1.48-.36.23-.45.42-.94.71-1.36.9-1.32,2.11-2.29,3.68-2.69.47-.12,1.14-.08,1.47.19.24.19.19.94.04,1.36Zm3.32-9.27c.16-1.09.9-2.12,2.19-2.8.82-.43,1.58-.94,2.39-1.39.21-.12.47-.14.72-.2.06.27.21.56.16.8-.32,1.88-1.39,3.35-2.72,4.65-.25.24-.59.41-.92.54-1.21.51-1.85.07-1.82-1.6Zm6.84,2.91c-1.12,1.73-2.32,3.43-4.34,4.27-.26.11-.59.07-.64.08-1.51,0-1.71-.24-1.43-1.51.32-1.48,1.17-2.47,2.68-2.82,1.04-.25,2.08-.49,3.13-.69.51-.1.86.27.6.67Zm1.13-3.58c.12-1.94.32-3.87,2.16-5.07.48-.32,1.04-.51,1.56-.77.76.08.94.51.93,1.09-.01,1.25-.63,2.26-1.41,3.13-.68.75-1.48,1.39-2.27,2.03-.52.42-1.01.21-.97-.41Zm4.13,8.09c-.28.14-.8-.12-1.18-.29-2.19-1.02-2.67-2.96-2.66-5.13,0-.49.1-1.04.75-.69,1.75.96,3.15,2.26,3.54,4.35.04.21.05.41.1.84-.12.23-.24.78-.55.93Zm7.09-13.54c-.27,1.84-.97,3.52-2.34,4.84-.3.29-.6.6-.95.82-.25.17-.67.39-.84.29-.24-.14-.35-.55-.45-.86-.07-.22-.01-.48-.01-.71.14-2.37.77-4.42,3.27-5.37.94-.36,1.47-.03,1.32,1Zm-10.28,27.31c-.5-.32-1.12-.54-1.47-.98-.82-1.02-1.27-2.23-1.27-3.57,0-.38-.13-.77-.1-1.16.02-.34.1-.88.3-.97.26-.11.75.06,1.02.27,1.1.87,1.71,2.06,1.99,3.42.09.41.16.82.25,1.23.05.03.1.06.14.09-.29.56-.58,1.12-.86,1.67Zm-3.66,17.57c-.62,0-1.26.05-1.88-.02-.32-.04-.72-.22-.86-.47-.11-.2,0-.69.19-.88,1.56-1.57,4.42-3.24,7.11-2.19.27.1.55.24.79.42.7.52.67.88.07,1.49-1.52,1.54-3.48,1.55-5.42,1.65Zm13.59,9.62c-1.25-.44-2.52-.82-3.74-1.34-.73-.32-1.37-.84-2.04-1.29-.14-.1-.32-.34-.29-.48.03-.15.26-.36.42-.38,2.28-.24,4.57-.62,6.85-.6,1.11.01,2.25.73,3.31,1.25.56.27.32.76-.11,1.07-1.29.91-2.67,1.58-4.32,1.48-.03.1-.05.19-.08.28Zm2.59,5.12c-.61.12-1.2.32-1.81.45-.21.04-.59,0-.63-.1-.08-.21-.06-.55.06-.72.95-1.26,1.95-2.48,2.89-3.76.98-1.32,2.47-1.63,3.9-1.99.24-.06.64.52.97.81-.05.07-.11.13-.16.2-.04.21-.03.43-.12.61-1.08,2.2-2.5,4.01-5.1,4.5Zm22.32-45.44c-.66,1.65-1.57,3.15-3.21,4.04-.36.19-.8.23-1,.28-1.04.01-1.41-.36-1.36-1.21.05-.99.6-1.71,1.44-2.1,1.16-.55,2.37-.98,3.56-1.44.36-.14.77-.05.57.43Zm-10.5,28.23c.75-1.45,2.05-2.08,3.14-2.19,1.54.1,2.58.14,3.63.23.21.02.52.18.56.32.05.22-.02.6-.19.71-1.8,1.3-3.61,2.61-5.89,2.83-.44.04-1.04-.32-1.34-.68-.19-.23-.08-.87.1-1.23Zm-2.35-6.57c-.46-.42-.49-.73.02-1.05,2.17-1.32,4.45-1.91,6.93-.88.38.16.81.24,1.17.43.26.14.57.37.63.62.04.16-.27.56-.5.62-1.71.53-3.43,1.01-5.14,1.5-.02-.08-.03-.15-.05-.23-1.17.1-2.17-.21-3.06-1.02Zm8.44-12.19c-1.05-.4-2.1-.67-3.03-1.18-1.07-.59-.95-1.52.11-2.11,1.72-.95,3.32-.73,4.87.39.43.32.92.56,1.38.83.52.31.69.7.03.96-1.08.42-2.19.73-3.35,1.11Zm-1.82-22.47c.18,0,.43.13.51.27.06.13-.03.43-.15.53-1.75,1.47-3.54,2.9-5.83,2.79-.35,0-.51.04-.64,0-.4-.15-.78-.34-1.17-.5.2-.33.38-.67.6-.99,1.69-2.41,4.25-2.08,6.68-2.1Zm-5.25-3.63c.29.16.51.42.77.64-.27.18-.52.45-.82.53-.84.21-1.71.34-2.56.48-.23.04-.48,0-.72,0-.02.08-.05.14-.07.22-.88-.31-1.84-.51-2.64-.97-.91-.52-.85-1.48-.01-2.13,1.23-.96,2.42-.92,3.69-.03.73.51,1.58.82,2.36,1.25Zm-7.94-1.62c-.78.62-1.84.88-2.79,1.3-.73-.32-1.55-.42-1.83-.87-.45-.71.04-1.51.66-1.95.84-.6,1.76-1.12,2.71-1.48,1-.37,2.08-.54,3.13-.75.32-.06.66.04,1,.07-.1.32-.12.71-.32.95-.82.95-1.58,1.98-2.56,2.73Zm1.95,4.98c.19.4.48.75.69,1.15.1.19.21.49.14.64-.08.16-.4.3-.59.27-1.66-.25-3.34-.45-4.71-1.56-.19-.15-.36-.31-.54-.47-.58-.53-.86-1.27-.51-1.93.19-.36.91-.45,1.39-.65,1.9.15,3.32.83,4.14,2.56Zm-5.85,6.39c1.38.29,2.4,1.17,3.04,2.33.62,1.11.99,2.36,1.41,3.57.08.25,0,.69-.19.88-.14.14-.58.12-.83.03-2.2-.82-4.32-3.85-4.33-6.17,0-.62.38-.75.9-.64Zm2.19-.47c-.47-.17-1.12-.84-1.07-1.2.07-.47.67-1.08,1.17-1.23,1.42-.46,2.88-.43,4.29.19.8.34,1.62.61,2.41.96.23.11.4.38.59.57-.2.19-.37.51-.6.56-1.31.27-2.63.49-4.02.73-.9-.17-1.88-.23-2.76-.56Zm1.82-18.49c.66-.32,1.49-.28,2.25-.4,0,.08.02.15.03.23.73-.11,1.46-.25,2.19-.3.32-.02.64.12.97.19-.08.29-.09.64-.26.88-1.05,1.42-3.35,2.25-5.04,1.74-.44-.13-1.14-.67-1.09-.91.1-.53.49-1.21.95-1.43Zm-1.14-1.18c-.92.22-1.86.36-3.06.58-.97-.27-2.17-.5-3.29-.93-.91-.35-.88-.9-.14-1.51,1.22-1.01,2.54-1.1,3.94-.51.9.38,1.79.82,2.67,1.26.21.11.51.43.47.56-.08.23-.35.49-.59.55Zm-4.72-4.86c.32-1.16,1.04-1.92,2.18-2.29.97-.32,1.95-.62,3.03-.96-.02.32.03.53-.05.65-.87,1.31-1.67,2.71-3.13,3.47-.36.19-.79.3-1.19.31-.76.01-1.04-.45-.84-1.18Zm-4.38,3.1c-.24-.51-.48-1.03-.72-1.54.18-1.95.93-3.5,2.23-4.79.56-.54,1.12-1.07,1.71-1.58.14-.12.41-.2.56-.14.14.06.29.34.27.49-.41,2.42-.85,4.85-2.56,6.76-.35.4-.99.53-1.49.79Zm-3.03,8.67c-.72.03-1.11-.38-1.01-1.12.13-.98.75-1.75,1.59-2.01,1.21-.38,2.52-.44,3.96-.66-.54,1.61-3.23,3.73-4.54,3.79Zm4.81-4.78c-.25-.26-.3-.75-.32-1.14,0-.1.48-.22.55-.25,1.36.04,2.28.56,3.11,1.3.69.62,1.43,1.18,2.11,1.8.19.18.27.47.4.72-.28.11-.58.36-.83.31-1.97-.36-3.66-1.3-5.03-2.74Zm-.53,40.26c-.69-.22-1.41-.55-1.97-1.01-1.35-1.1-2.39-2.43-2.46-4.14.03-.29.04-.45.05-.6.1-1.02.6-1.27,1.41-.66,1.46,1.11,2.54,2.54,3.28,4.2.19.41.35.83.49,1.25.22.64-.16,1.14-.81.95Zm1.01-6.13c-.12.56-.52.59-.97.38-1.69-.75-2.95-3.33-2.54-5.17.03-.15.05-.29.08-.45.14-.92.54-1.11,1.34-.6,1.49.95,2.34,2.26,2.34,4.3-.05.36-.11.95-.24,1.53Zm3.36-4.39c-2.11-.79-2.86-2.56-3.25-4.58-.05-.29-.05-.59-.09-1.05.07-.38.11-.93.28-1.43.12-.36.37-.85.66-.93.3-.08.78.19,1.07.45.99.84,1.49,2,1.8,3.23.28,1.13.49,2.28.69,3.42.14.79-.37,1.17-1.16.88Zm5.85,5.25c-1.54-.28-3.18-.84-4.32-2.36-.38-.52-.29-.86.32-1.1,1.81-.71,4.56.23,5.54,1.91.51.88-.03,1.53-1.54,1.55Zm4.04-2.11c-2.08-.65-3.82-2.86-3.92-5.02-.02-.48.14-.78.67-.67,1.63.34,4.14,3.38,4.17,5.13-.02.51-.27.77-.92.56Zm-.07-6.94c-.69-.35-1.32-.89-1.86-1.47-1.03-1.1-1.78-2.4-2.12-3.89-.2-.84,0-1.21.85-1.08.73.12,1.5.41,2.12.82,1.67,1.09,2.33,2.73,2.33,4.69.04,1.1-.35,1.43-1.33.93Zm1.75-4.91c.47-1.51,1.51-2.51,3.05-2.82,1.06-.22,2.19-.19,3.28-.25.62-.03,1.25-.06,1.88-.04.21.01.5.14.58.3.08.16.03.54-.1.64-2.08,1.59-4.09,3.34-7.09,3.62-.31-.13-.85-.26-1.27-.55-.23-.16-.41-.64-.34-.9Zm1.52,9.95c-.4-.12-.83-1-.81-1.53.04-.91.24-1.91.69-2.7.61-1.08,1.48-2.02,2.3-2.95.49-.57.9-.48,1.22.22.24.53.36,1.12.49,1.54-.26,1.95-.84,3.58-2.15,4.81-.42.4-1.23.75-1.73.62Zm1.75,4.26c1.56-.05,3.03.51,3.93,2.2.23.44.64.78.93,1.21.32.49.14,1.06-.4.95-1.97-.43-4.17-.4-5.52-2.32-.09-.12-.16-.25-.23-.38-.76-1.45-.61-1.69,1.29-1.65Zm-5.42,3.5c.66-.42,1.12-.39,1.41.36.18.5.31,1.06.27,1.58-.12,1.97-.94,3.63-2.43,4.94-.2.17-.58.32-.78.23s-.35-.45-.4-.71c-.1-.56-.12-1.13-.17-1.68.08-1.86.36-3.6,2.1-4.71Zm-6.05,17.02c-.53,1.03-1.34.99-2,0-.68-1-.73-2.15-.56-3.28.13-.94.43-1.86.7-2.78.05-.19.34-.47.47-.44.29.05.64.2.8.43.71,1.05,1.33,2.15,1.12,3.52.08.01.16.02.24.03-.25.84-.37,1.75-.77,2.52Zm.56-8.14c-.09.17-.41.36-.56.31-.21-.07-.46-.32-.51-.52-.24-1.1-.56-2.22-.59-3.34-.02-.71.3-1.48.64-2.14.28-.53.8-.94,1.23-1.4.61-.64,1.29-.47,1.51.4.1.4.12.83.17,1.27-.24,1.93-.95,3.71-1.91,5.41Zm2.71,11.17c-.22-.07-.34-.6-.44-.95-.08-.25-.04-.53-.06-.8-.04-2.08.8-3.85,2.08-5.39.68-.82,1.51-1.53,2.34-2.21.27-.23.77-.4,1.08-.3.21.06.38.64.37.97-.08,3.48-1.47,6.29-4.26,8.38-.29.22-.79.38-1.1.29Zm1.71,1.45c-.15-.74.42-1.4,1.13-1.78,1.84-.97,3.76-1.7,5.9-1.7.84.07,1.67.1,2.5.22.26.03.62.23.7.44.07.19-.14.56-.32.73-2.27,2.11-4.91,3.27-8.06,3.04-.73-.05-1.68-.11-1.85-.95Zm4.51,13.89c-1.99-.7-4.44-4.41-4.39-6.61.1-.64.21-1.3.32-1.94.12-.7.59-.8,1.12-.53,1.99.98,3,2.67,3.32,4.8.19,1.18.32,2.36.46,3.55.08.64-.27.93-.84.73Zm7.89-5.91c-.22.06-.47,0-.71,0-2.78-.14-5.35-.95-7.66-2.49-.53-.35-.94-.92-1.3-1.45-.36-.54-.19-1.12.43-1.3.76-.21,1.59-.43,2.35-.33,3,.4,5.4,2.01,7.52,4.08.27.26.38.69.56,1.05-.39.15-.77.33-1.18.45Zm3.18-6.14c-1.03.44-2.08.88-3.17,1.1-1.33.26-2.43-.43-3.39-1.3-.75-.68-.59-1.36.36-1.65.73-.23,1.48-.39,2.22-.58,1.54.02,2.73.75,3.91,1.54.38.25.59.67.06.9Z"/><path class="cls-1" d="m181.79,72.6c1.49,1.21,3.17,2.13,5.02,2.76,1.85.63,3.76.95,5.74.95,1.34,0,2.53-.12,3.56-.35,1.03-.23,1.94-.47,2.73-.72.66-.22,1.27-.4,1.83-.56.56-.15,1.09-.23,1.58-.23.47,0,.8.02,1.01.06.21.04.49.1.84.19l.12-.08v-7.77c0-.88.14-1.47.41-1.77.27-.3.88-.55,1.81-.74l1.4-.29v-.9h-13.69v.9l2.1.45c.96.19,1.57.43,1.83.7.26.27.39.85.39,1.73v6.17c-.93.82-1.89,1.32-2.88,1.5-.99.18-1.8.27-2.43.27-1.81,0-3.35-.33-4.63-.99-1.28-.66-2.3-1.58-3.06-2.76-.77-1.18-1.33-2.54-1.69-4.09-.36-1.55-.53-3.2-.53-4.96s.21-3.45.64-5.02c.43-1.56,1.03-2.93,1.83-4.11.8-1.18,1.78-2.1,2.94-2.78,1.17-.67,2.49-1.01,3.97-1.01,1.56,0,2.97.29,4.22.86,1.25.58,2.34,1.42,3.27,2.53.93,1.11,1.69,2.46,2.26,4.05h1.44c-.25-1.01-.43-1.92-.56-2.71-.12-.79-.18-1.62-.18-2.47,0-.3.03-.6.1-.9.07-.3.13-.59.18-.86l-.16-.12c-.25.06-.47.1-.68.14-.21.04-.46.06-.76.06-.63,0-1.21-.1-1.73-.31-.52-.21-1.1-.44-1.73-.7-.63-.26-1.41-.49-2.34-.68-.93-.19-2.13-.29-3.58-.29-2.14,0-4.15.35-6.02,1.05-1.88.7-3.52,1.69-4.91,2.98-1.4,1.29-2.5,2.8-3.29,4.54-.8,1.74-1.19,3.65-1.19,5.74,0,2.28.43,4.3,1.3,6.07s2.04,3.26,3.54,4.46Z"/><path class="cls-1" d="m210.54,50.23c.26.27.39.85.39,1.73v20.11c0,.85-.13,1.41-.39,1.69-.26.27-.87.52-1.83.74l-2.1.45v.9h14.39v-.9l-2.1-.45c-.93-.22-1.54-.47-1.81-.74-.27-.27-.41-.84-.41-1.69v-8.31h.95c1.21,0,2.24.34,3.11,1.01.86.67,1.65,1.51,2.36,2.51.71,1,1.41,2.02,2.1,3.06.99,1.45,1.97,2.63,2.96,3.54.99.9,2,1.56,3.04,1.97,1.04.41,2.14.62,3.29.62l26.69-.62c0-1.26.1-2.51.31-3.74.21-1.23.45-2.45.72-3.66h-.9l-1.77,2.47c-.52.74-1.1,1.38-1.73,1.91-.63.53-1.33.95-2.1,1.23-.77.29-1.65.43-2.63.43h-3.04c-.93,0-1.6-.12-1.99-.37-.4-.25-.64-.64-.72-1.17s-.12-1.2-.12-1.99v-9.05h5.35c1.32,0,2.26.27,2.84.8.58.53.95,1.28,1.11,2.24l.37,1.97h.9v-11.39h-.9l-.33,1.89c-.16.99-.54,1.75-1.13,2.3-.59.55-1.57.82-2.94.82h-5.26v-11.02h5.47c1.23,0,2.33.27,3.29.8.96.53,1.8,1.25,2.51,2.14.71.89,1.29,1.89,1.73,2.98h.9c-.14-.88-.27-1.72-.41-2.53-.14-.81-.21-1.64-.21-2.49,0-.38.01-.76.04-1.13.03-.37.08-.75.16-1.13h-23.56v.9l2.1.45c.96.19,1.57.43,1.83.7.26.27.39.85.39,1.73v20.11c0,.85-.13,1.41-.39,1.69-.26.27-.87.52-1.83.74l-.75.16h0c-1.41.36-2.35,0-2.64-.13-.14-.08-.28-.16-.42-.26-.75-.53-1.49-1.24-2.2-2.12-.71-.88-1.43-1.82-2.14-2.84-.71-1.07-1.47-2.08-2.28-3.02-.81-.95-1.71-1.73-2.69-2.34-.99-.62-2.11-.95-3.37-1.01v-.08c1.53-.16,2.95-.56,4.24-1.19,1.29-.63,2.32-1.46,3.11-2.49.78-1.03,1.17-2.17,1.17-3.43,0-2.41-1.16-4.28-3.48-5.59-2.32-1.32-5.53-1.97-9.64-1.97h-11.51v.9l2.1.45c.96.19,1.57.43,1.83.7Zm6.15-.7h.9c2.49,0,4.42.56,5.78,1.69,1.36,1.12,2.04,2.77,2.04,4.93,0,1.43-.33,2.6-.99,3.52-.66.92-1.54,1.6-2.65,2.06-1.11.45-2.32.68-3.64.68h-1.44v-12.87Z"/><path class="cls-1" d="m286.99,72.11c.21-1.23.45-2.45.72-3.66h-.9l-1.77,2.47c-.52.74-1.1,1.38-1.73,1.91-.63.53-1.33.95-2.1,1.23-.77.29-1.65.43-2.63.43h-3.04c-.93,0-1.6-.12-1.99-.37-.4-.25-.64-.64-.72-1.17s-.12-1.2-.12-1.99v-9.05h5.35c1.32,0,2.26.27,2.84.8.58.53.95,1.28,1.11,2.24l.37,1.97h.9v-11.39h-.9l-.33,1.89c-.16.99-.54,1.75-1.13,2.3-.59.55-1.57.82-2.94.82h-5.26v-11.02h5.47c1.23,0,2.33.27,3.29.8.96.53,1.8,1.25,2.51,2.14.71.89,1.29,1.89,1.73,2.98h.9c-.14-.88-.27-1.72-.41-2.53-.14-.81-.21-1.64-.21-2.49,0-.38.01-.76.04-1.13.03-.37.08-.75.16-1.13h-23.56v.9l2.1.45c.96.19,1.57.43,1.83.7.26.27.39.85.39,1.73v20.11c0,.85-.13,1.41-.39,1.69-.26.27-.87.52-1.83.74l-2.1.45v.9h24.06c0-1.26.1-2.51.31-3.74Z"/><path class="cls-1" d="m336.07,76.47l7.07-20.07,7.65,20.07h1.97l9.21-25.17c.16-.47.44-.83.82-1.09.38-.26.84-.45,1.36-.56l2.59-.58v-.9h-11.47v.9l2.55.58c1.18.27,1.91.51,2.18.72.27.21.33.54.16,1.01l-6.33,17.89-5.92-17.72c-.14-.41-.16-.75-.06-1.01.1-.26.27-.47.51-.62.25-.15.53-.25.86-.31l2.59-.53v-.9h-13.04v.9l2.88.53c.55.11.95.32,1.21.64.26.32.29.75.1,1.3l-5.92,17.48-5.72-17.11c-.27-.71-.27-1.24,0-1.58.27-.34.88-.61,1.81-.8l2.1-.45v-.9h-26.11v.9l3,.62c.74.14,1.3.38,1.67.72.37.34.56.86.56,1.54v15.22l-17.23-19h-8.72v.9l2.1.45c.63.14,1.1.28,1.42.43.32.15.53.38.64.68.11.3.16.74.16,1.32v20.11c0,.74-.18,1.27-.55,1.6s-.93.58-1.67.74l-2.39.53v.9h11.31v-.9l-3-.62c-.74-.14-1.3-.38-1.67-.72-.37-.34-.56-.86-.56-1.54v-18.67l20.93,23.15h.7v-24.59c0-.74.18-1.28.55-1.6s.93-.58,1.67-.74l.13-.03c1.49-.33,3.03-.34,4.52-.01.52.11.89.27,1.11.47.22.21.4.49.53.84l9.75,25.58h1.97Z"/><path class="cls-1" d="m363.02,62.32c0,1.92.36,3.73,1.09,5.43.73,1.7,1.75,3.19,3.06,4.46,1.32,1.27,2.86,2.28,4.65,3,1.78.73,3.74,1.09,5.88,1.09s4.11-.36,5.92-1.09c1.81-.73,3.37-1.75,4.69-3.06,1.32-1.32,2.34-2.85,3.06-4.61.73-1.75,1.09-3.67,1.09-5.76,0-1.95-.36-3.76-1.09-5.45-.73-1.69-1.75-3.17-3.06-4.46-1.32-1.29-2.88-2.3-4.69-3.02-1.81-.73-3.78-1.09-5.92-1.09s-4.1.36-5.88,1.09c-1.78.73-3.33,1.75-4.65,3.06s-2.34,2.86-3.06,4.63c-.73,1.77-1.09,3.69-1.09,5.78Zm7.34-6.97c.7-1.96,1.68-3.47,2.94-4.54,1.26-1.07,2.73-1.6,4.4-1.6s3.22.53,4.48,1.6c1.26,1.07,2.24,2.55,2.94,4.44.7,1.89,1.05,4.09,1.05,6.58,0,2.63-.35,4.93-1.05,6.89-.7,1.96-1.68,3.48-2.94,4.54-1.26,1.07-2.76,1.6-4.48,1.6-1.26,0-2.41-.3-3.43-.9-1.03-.6-1.91-1.47-2.65-2.59-.74-1.12-1.31-2.45-1.71-3.99-.4-1.54-.6-3.22-.6-5.06,0-2.69.35-5.01,1.05-6.97Z"/><path class="cls-1" d="m398.61,72.21c1.32,1.27,2.86,2.28,4.65,3,1.78.73,3.74,1.09,5.88,1.09s4.11-.36,5.92-1.09c1.81-.73,3.37-1.75,4.69-3.06,1.32-1.32,2.34-2.85,3.06-4.61.73-1.75,1.09-3.67,1.09-5.76,0-1.95-.36-3.76-1.09-5.45-.73-1.69-1.75-3.17-3.06-4.46-1.32-1.29-2.88-2.3-4.69-3.02-1.81-.73-3.78-1.09-5.92-1.09s-4.1.36-5.88,1.09c-1.78.73-3.33,1.75-4.65,3.06s-2.34,2.86-3.06,4.63c-.73,1.77-1.09,3.69-1.09,5.78,0,1.92.36,3.73,1.09,5.43.73,1.7,1.75,3.19,3.06,4.46Zm3.19-16.86c.7-1.96,1.68-3.47,2.94-4.54,1.26-1.07,2.73-1.6,4.4-1.6s3.22.53,4.48,1.6c1.26,1.07,2.24,2.55,2.94,4.44.7,1.89,1.05,4.09,1.05,6.58,0,2.63-.35,4.93-1.05,6.89-.7,1.96-1.68,3.48-2.94,4.54-1.26,1.07-2.76,1.6-4.48,1.6-1.26,0-2.41-.3-3.43-.9-1.03-.6-1.91-1.47-2.65-2.59-.74-1.12-1.31-2.45-1.71-3.99-.4-1.54-.6-3.22-.6-5.06,0-2.69.35-5.01,1.05-6.97Z"/><path class="cls-1" d="m427.83,50.23c.26.27.39.85.39,1.73v20.11c0,.85-.13,1.41-.39,1.69-.26.27-.87.52-1.83.74l-2.1.45v.9h14.64c2.14,0,4.11-.35,5.92-1.05,1.81-.7,3.37-1.69,4.69-2.96,1.32-1.27,2.34-2.76,3.06-4.46.73-1.7,1.09-3.55,1.09-5.55,0-1.89-.38-3.66-1.13-5.31-.75-1.64-1.81-3.09-3.17-4.34-1.36-1.25-2.95-2.23-4.79-2.94-1.84-.71-3.82-1.07-5.96-1.07h-14.35v.9l2.1.45c.96.19,1.57.43,1.83.7Zm6.15-.78h3.7c1.89,0,3.53.52,4.91,1.56,1.38,1.04,2.46,2.49,3.23,4.34.77,1.85,1.15,4,1.15,6.44,0,2.58-.38,4.82-1.15,6.72-.77,1.91-1.84,3.38-3.23,4.42-1.38,1.04-3.02,1.56-4.91,1.56-1.21,0-2.13-.21-2.76-.62-.63-.41-.95-1.01-.95-1.81v-22.62Z"/><path class="cls-1" d="m207.84,97.41h-13.69v.9l2.1.45c.96.19,1.57.43,1.83.7.26.27.39.85.39,1.73v6.17c-.93.82-1.89,1.32-2.88,1.5-.99.18-1.8.27-2.43.27-1.81,0-3.35-.33-4.63-.99-1.28-.66-2.3-1.58-3.06-2.76-.77-1.18-1.33-2.54-1.69-4.09-.36-1.55-.53-3.2-.53-4.96s.21-3.45.64-5.02c.43-1.56,1.03-2.93,1.83-4.11.8-1.18,1.78-2.1,2.94-2.78,1.17-.67,2.49-1.01,3.97-1.01,1.56,0,2.97.29,4.22.86,1.25.58,2.34,1.42,3.27,2.53.93,1.11,1.69,2.46,2.26,4.05h1.44c-.25-1.01-.43-1.92-.56-2.71-.12-.79-.18-1.62-.18-2.47,0-.3.03-.6.1-.9.07-.3.13-.59.18-.86l-.16-.12c-.25.06-.47.1-.68.14-.21.04-.46.06-.76.06-.63,0-1.21-.1-1.73-.31-.52-.21-1.1-.44-1.73-.7-.63-.26-1.41-.49-2.34-.68-.93-.19-2.13-.29-3.58-.29-2.14,0-4.15.35-6.02,1.05-1.88.7-3.52,1.69-4.91,2.98-1.4,1.29-2.5,2.8-3.29,4.54-.8,1.74-1.19,3.65-1.19,5.74,0,2.28.43,4.3,1.3,6.07.86,1.77,2.04,3.26,3.54,4.46,1.49,1.21,3.17,2.13,5.02,2.76,1.85.63,3.76.95,5.74.95,1.34,0,2.53-.12,3.56-.35,1.03-.23,1.94-.47,2.73-.72.66-.22,1.27-.4,1.83-.56.56-.15,1.09-.23,1.58-.23.47,0,.8.02,1.01.06.21.04.49.1.84.19l.12-.08v-7.77c0-.88.14-1.47.41-1.77.27-.3.88-.55,1.81-.74l1.4-.29v-.9Z"/><path class="cls-1" d="m233.22,106.42c-.71-.88-1.43-1.82-2.14-2.84-.71-1.07-1.47-2.08-2.28-3.02-.81-.95-1.71-1.73-2.69-2.34-.99-.62-2.11-.95-3.37-1.01v-.08c1.53-.16,2.95-.56,4.24-1.19,1.29-.63,2.32-1.46,3.11-2.49.78-1.03,1.17-2.17,1.17-3.43,0-2.41-1.16-4.28-3.48-5.59-2.32-1.32-5.53-1.97-9.64-1.97h-11.51v.9l2.1.45c.96.19,1.57.43,1.83.7.26.27.39.85.39,1.73v20.11c0,.85-.13,1.41-.39,1.69-.26.27-.87.52-1.83.74l-2.1.45v.9h14.39v-.9l-2.1-.45c-.93-.22-1.54-.47-1.81-.74-.27-.27-.41-.84-.41-1.69v-8.31h.95c1.21,0,2.24.34,3.11,1.01.86.67,1.65,1.51,2.36,2.51.71,1,1.41,2.02,2.1,3.06.99,1.45,1.97,2.63,2.96,3.54.99.9,2,1.56,3.04,1.97,1.04.41,2.14.62,3.29.62,1.07,0,2.15-.14,3.25-.41v-.99c-.8,0-1.57-.27-2.32-.8-.75-.53-1.49-1.24-2.2-2.12Zm-11.45-10.43c-1.11.45-2.32.68-3.64.68h-1.44v-12.87h.9c2.49,0,4.42.56,5.78,1.69,1.36,1.12,2.04,2.77,2.04,4.93,0,1.43-.33,2.6-.99,3.52-.66.92-1.54,1.6-2.65,2.06Z"/><path class="cls-1" d="m259.95,86.15c-1.32-1.29-2.88-2.3-4.69-3.02-1.81-.73-3.78-1.09-5.92-1.09s-4.1.36-5.88,1.09c-1.78.73-3.33,1.75-4.65,3.06s-2.34,2.86-3.06,4.63c-.73,1.77-1.09,3.69-1.09,5.78,0,1.92.36,3.73,1.09,5.43.73,1.7,1.75,3.19,3.06,4.46,1.32,1.27,2.86,2.28,4.65,3,1.78.73,3.74,1.09,5.88,1.09s4.11-.36,5.92-1.09c1.81-.73,3.37-1.75,4.69-3.06s2.34-2.85,3.06-4.61c.73-1.75,1.09-3.67,1.09-5.76,0-1.95-.36-3.76-1.09-5.45-.73-1.69-1.75-3.17-3.06-4.46Zm-3.19,16.84c-.7,1.96-1.68,3.48-2.94,4.54-1.26,1.07-2.76,1.6-4.48,1.6-1.26,0-2.41-.3-3.43-.9-1.03-.6-1.91-1.47-2.65-2.59-.74-1.12-1.31-2.45-1.71-3.99-.4-1.54-.6-3.22-.6-5.06,0-2.69.35-5.01,1.05-6.97.7-1.96,1.68-3.47,2.94-4.54,1.26-1.07,2.73-1.6,4.4-1.6s3.22.53,4.48,1.6c1.26,1.07,2.24,2.55,2.94,4.44.7,1.89,1.05,4.09,1.05,6.58,0,2.63-.35,4.93-1.05,6.89Z"/><path class="cls-1" d="m314.87,105.19c-.52.74-1.1,1.38-1.73,1.91-.63.53-1.33.95-2.1,1.23-.77.29-1.65.43-2.63.43h-3.04c-.93,0-1.6-.12-1.99-.37-.4-.25-.64-.64-.72-1.17s-.12-1.2-.12-1.99v-9.05h5.35c1.32,0,2.26.27,2.84.8.58.53.95,1.28,1.11,2.24l.37,1.97h.9v-11.39h-.9l-.33,1.89c-.16.99-.54,1.75-1.13,2.3-.59.55-1.57.82-2.94.82h-5.26v-11.02h5.47c1.23,0,2.33.27,3.29.8.96.53,1.8,1.25,2.51,2.14.71.89,1.29,1.89,1.73,2.98h.9c-.14-.88-.27-1.72-.41-2.53-.14-.81-.21-1.64-.21-2.49,0-.38.01-.76.04-1.13.03-.37.08-.75.16-1.13h-35.04v.9l3.08.7c.6.11,1.06.27,1.36.47.3.21.45.49.45.84,0,.11-.01.22-.04.33-.03.11-.07.23-.12.37l-7.2,17.69-6.82-17.56c-.06-.16-.1-.33-.14-.49-.04-.16-.06-.3-.06-.41,0-.38.16-.69.49-.93.33-.23.84-.42,1.52-.56l2.1-.45v-.9h-14.81v.9l2.26.49c.33.06.64.16.93.33.29.16.49.4.6.7l10.9,25.87h1.97l10.28-25.37c.19-.47.47-.8.82-1.01.36-.21.8-.36,1.32-.47l.49-.1c1.39-.29,2.82-.28,4.2.02.96.19,1.57.43,1.83.7.26.27.39.85.39,1.73v20.11c0,.85-.13,1.41-.39,1.69-.26.27-.87.52-1.83.74l-2.1.45v.9h24.06c0-1.26.1-2.51.31-3.74.21-1.23.45-2.45.72-3.66h-.9l-1.77,2.47Z"/><path class="cls-1" d="m362.27,108.46c-.3-.15-.51-.38-.62-.68-.11-.3-.18-.74-.21-1.32l-.82-20.11c-.03-.88.1-1.45.39-1.73.29-.27.9-.51,1.83-.7l2.1-.45v-.9h-9.95l-7.69,19.08-8.68-19.04-9.66-.04v.9l2.1.45c.96.19,1.58.43,1.87.7.29.27.4.85.35,1.73l-1.23,20.11c-.03.49-.12.89-.29,1.19-.16.3-.4.54-.72.72-.32.18-.72.32-1.21.43l-2.39.53v.9h11.31v-.9l-3-.62c-.74-.14-1.3-.38-1.69-.72-.38-.34-.56-.86-.53-1.54l1.19-18.26,10.12,22.29h.62l9.34-23.24.9,19.21c.05.85-.06,1.41-.35,1.69-.29.27-.91.52-1.87.74l-2.1.45v.9h14.39v-.9l-2.1-.45c-.63-.14-1.1-.28-1.4-.43Z"/><path class="cls-1" d="m392.87,90.78c-.73-1.69-1.75-3.17-3.06-4.46-1.32-1.29-2.88-2.3-4.69-3.02-1.81-.73-3.78-1.09-5.92-1.09s-4.1.36-5.88,1.09c-1.78.73-3.33,1.75-4.65,3.06s-2.34,2.86-3.06,4.63c-.73,1.77-1.09,3.69-1.09,5.78,0,1.92.36,3.73,1.09,5.43.73,1.7,1.75,3.19,3.06,4.46,1.32,1.27,2.86,2.28,4.65,3,1.78.73,3.74,1.09,5.88,1.09s4.11-.36,5.92-1.09,3.37-1.75,4.69-3.06,2.34-2.85,3.06-4.61c.73-1.75,1.09-3.67,1.09-5.76,0-1.95-.36-3.76-1.09-5.45Zm-6.25,12.38c-.7,1.96-1.68,3.48-2.94,4.54-1.26,1.07-2.76,1.6-4.48,1.6-1.26,0-2.41-.3-3.43-.9-1.03-.6-1.91-1.47-2.65-2.59-.74-1.12-1.31-2.45-1.71-3.99-.4-1.54-.6-3.22-.6-5.06,0-2.69.35-5.01,1.05-6.97.7-1.96,1.68-3.47,2.94-4.54,1.26-1.07,2.73-1.6,4.4-1.6s3.22.53,4.48,1.6c1.26,1.07,2.24,2.55,2.94,4.44.7,1.89,1.05,4.09,1.05,6.58,0,2.63-.35,4.93-1.05,6.89Z"/><path class="cls-1" d="m453.3,83.47l2.1.45c.96.19,1.57.43,1.83.7.26.27.39.85.39,1.73v20.11c0,.85-.13,1.41-.39,1.69-.26.27-.87.52-1.83.74l-2.1.45v.9h14.39v-.9l-2.1-.45c-.93-.22-1.54-.47-1.81-.74-.27-.27-.41-.84-.41-1.69v-8.31h.95c1.21,0,2.24.34,3.11,1.01.86.67,1.65,1.51,2.36,2.51.71,1,1.41,2.02,2.1,3.06.99,1.45,1.97,2.63,2.96,3.54.99.9,2,1.56,3.04,1.97,1.04.41,2.14.62,3.29.62l26.69-.62h0s10.66,0,10.66,0v-.9l-3.54-.62c-.44-.08-.75-.22-.95-.41-.19-.19-.29-.41-.29-.66,0-.05,0-.12.02-.21.01-.08.03-.16.06-.25l2.64-6.25h9.47l2.28,5.72c.05.16.1.32.14.45.04.14.06.27.06.41,0,.36-.14.64-.43.84s-.73.38-1.34.51l-2.1.45v.9h40.59c0-1.26.13-2.62.39-4.09.26-1.47.53-2.8.8-4.01h-.9l-1.93,3.17c-.47.8-1,1.46-1.6,1.99-.6.53-1.3.93-2.1,1.19-.8.26-1.71.39-2.76.39h-5.18c-1.1,0-1.84-.22-2.24-.66-.4-.44-.6-1.03-.6-1.77v-20.11c0-.88.14-1.45.41-1.73s.88-.51,1.81-.7l2.1-.45v-.9h-14.39v.9l2.1.45c.96.19,1.57.43,1.83.7.26.27.39.85.39,1.73v20.11c0,.85-.13,1.41-.39,1.69-.26.27-.87.52-1.83.74h0c-1.38.3-2.81.3-4.19,0h0c-.66-.14-1.14-.29-1.44-.45s-.52-.41-.66-.74l-10.77-26.16h-.58c0,.27-.15.61-.45,1.01-.3.4-.75.75-1.36,1.07s-1.34.49-2.22.51l1.27,3.17-8.39,19.86c-.19.44-.45.79-.76,1.05-.32.26-.78.46-1.38.6l-2.24.5c.04-.94.12-1.88.27-2.8.21-1.23.45-2.45.72-3.66h-.9l-1.77,2.47c-.52.74-1.1,1.38-1.73,1.91-.63.53-1.33.95-2.1,1.23-.77.29-1.65.43-2.63.43h-3.04c-.93,0-1.6-.12-1.99-.37-.4-.25-.64-.64-.72-1.17s-.12-1.2-.12-1.99v-9.05h5.35c1.32,0,2.26.27,2.84.8.58.53.95,1.28,1.11,2.24l.37,1.97h.9v-11.39h-.9l-.33,1.89c-.16.99-.54,1.75-1.13,2.3-.59.55-1.57.82-2.94.82h-5.26v-11.02h5.47c1.23,0,2.33.27,3.29.8.96.53,1.8,1.25,2.51,2.14.71.89,1.29,1.89,1.73,2.98h.9c-.14-.88-.27-1.72-.41-2.53-.14-.81-.21-1.64-.21-2.49,0-.38.01-.76.04-1.13.03-.37.08-.75.16-1.13h-23.56v.9l2.1.45c.96.19,1.57.43,1.83.7.26.27.39.85.39,1.73v20.11c0,.85-.13,1.41-.39,1.69-.26.27-.87.52-1.83.74l-.75.16h0c-1.41.36-2.35,0-2.64-.13-.14-.08-.28-.16-.42-.26-.75-.53-1.49-1.24-2.2-2.12-.71-.88-1.43-1.82-2.14-2.84-.71-1.07-1.47-2.08-2.28-3.02-.81-.95-1.71-1.73-2.69-2.34-.99-.62-2.11-.95-3.37-1.01v-.08c1.53-.16,2.95-.56,4.24-1.19,1.29-.63,2.32-1.46,3.11-2.49.78-1.03,1.17-2.17,1.17-3.43,0-2.41-1.16-4.28-3.48-5.59-2.32-1.32-5.53-1.97-9.64-1.97h-11.46s-27.07,0-27.07,0h-11.31v.9l3,.62c.74.14,1.3.38,1.67.72.37.34.56.86.56,1.54v15.22l-17.23-19h-8.72v.9l2.1.45c.63.14,1.1.28,1.42.43s.53.38.64.68c.11.3.16.74.16,1.32v20.11c0,.74-.18,1.27-.55,1.6-.37.33-.93.58-1.67.74l-2.39.53v.9h11.31v-.9l-3-.62c-.74-.14-1.3-.38-1.67-.72s-.56-.86-.56-1.54v-18.67l20.93,23.15h.7v-24.59c0-.74.18-1.28.55-1.6.37-.33.93-.58,1.67-.74l2.38-.53.02.48c.05,1.04.05,2.09-.04,3.12-.03.36-.07.71-.12,1.07-.12.95-.27,1.79-.43,2.53h1.11c.3-1.21.78-2.32,1.44-3.35s1.47-1.85,2.43-2.47c.96-.62,2.03-.93,3.21-.93h3v22.54c0,.85-.13,1.41-.39,1.69-.26.27-.87.52-1.83.74l-2.1.45v.9h14.39v-.9l-2.1-.45c-.93-.22-1.54-.47-1.81-.74-.27-.27-.41-.84-.41-1.69v-22.54h3c1.21,0,2.28.31,3.23.93s1.75,1.44,2.41,2.47,1.14,2.15,1.44,3.35h1.11c-.14-.74-.27-1.58-.41-2.53v-.03c-.2-1.35-.26-2.72-.17-4.08l.03-.56Zm15.15,12.65c-1.11.45-2.32.68-3.64.68h-1.44v-12.87h.9c2.49,0,4.42.56,5.78,1.69,1.36,1.12,2.04,2.77,2.04,4.93,0,1.43-.33,2.6-.99,3.52-.66.92-1.54,1.6-2.65,2.06Zm48.61,3.47l4.3-10.17,4.06,10.17h-8.35Z"/></g></svg>