<?xml version="1.0" encoding="UTF-8"?><svg id="Layer_2" xmlns="http://www.w3.org/2000/svg" viewBox="0 0 46.16 45.93"><defs><style>.cls-1{fill:#000;stroke-width:0px;}</style></defs><g id="Footer"><path class="cls-1" d="m46.16,22.15c-.06-.06-.03-.14-.04-.22-.01-.31-.02-.61-.05-.92-.08-.88-.2-1.76-.39-2.63-.14-.63-.3-1.26-.5-1.89-.23-.7-.44-1.41-.72-2.08-1.81-4.39-4.69-7.91-8.63-10.55C32.32,1.51,28.42.25,24.2.03c-1.65-.09-3.3.02-4.94.3-1.97.34-3.87.91-5.69,1.75-3.16,1.45-5.86,3.5-8.1,6.15-2.06,2.43-3.56,5.18-4.49,8.23-.51,1.68-.82,3.4-.93,5.15-.08,1.19-.06,2.37.05,3.56.02.22.02.44.08.65.03.42.1.83.17,1.25.27,1.62.73,3.19,1.34,4.71.41,1.04.92,2.04,1.49,3,2.12,3.56,4.97,6.37,8.55,8.43,2.29,1.32,4.74,2.21,7.34,2.71.27.05.34.02.34-.27,0-2.34,0-4.69,0-7.03,0-2.94,0-5.89,0-8.83,0-.24,0-.22-.22-.22-.03,0-.06,0-.09,0-1.73,0-3.46,0-5.18,0-.05,0-.11,0-.16,0-.08,0-.13-.03-.12-.12,0-.05,0-.11,0-.16,0-.92,0-1.85,0-2.77,0-.25,0-.5,0-.74,0-.08.01-.16.01-.25,0-.71,0-1.43,0-2.14,0-.31-.04-.28.27-.28,1.76,0,3.52,0,5.28,0,.22,0,.22,0,.22-.22,0-.04,0-.08,0-.11,0-1.44,0-2.87,0-4.31,0-.6.01-1.2.08-1.8.05-.41.12-.83.19-1.24.05-.31.17-.59.27-.88.63-1.86,1.76-3.32,3.47-4.31,1.26-.73,2.63-1.08,4.07-1.19.95-.08,1.89-.02,2.84.05,1.01.08,2.02.21,3.02.35.16.02.17.02.17.2,0,1.84,0,3.68,0,5.52,0,.18,0,.18-.19.19-.83,0-1.67,0-2.5,0-.35,0-.71,0-1.06.04-.57.05-1.1.21-1.59.51-.49.3-.79.77-.96,1.32-.14.44-.18.9-.18,1.36,0,1.41,0,2.83,0,4.24,0,.31-.03.28.28.28,1.86,0,3.71,0,5.57,0,.09,0,.18-.02.27.03-.08.5-.16.99-.24,1.49-.17,1.07-.35,2.15-.52,3.22-.09.53-.17,1.05-.25,1.58-.02.1-.05.15-.16.14-.05,0-.11,0-.16,0-1.52,0-3.04,0-4.55,0-.24,0-.24,0-.23.25,0,0,0,.01,0,.02h0c0,.09,0,.18,0,.27,0,5.15,0,10.29,0,15.44,0,.15.03.3-.17.37.11.06.19.03.27.01,1.01-.19,2.01-.44,2.98-.77,3.4-1.14,6.42-2.89,8.97-5.43.34-.34.7-.66,1.02-1.01,1.99-2.16,3.51-4.62,4.57-7.36.18-.47.36-.94.48-1.43.04-.04.04-.09.06-.14.54-1.82.89-3.67.94-5.57,0-.1-.02-.2.04-.29v-1.76Z"/></g></svg>