<?xml version="1.0" encoding="UTF-8"?><svg id="Layer_2" xmlns="http://www.w3.org/2000/svg" viewBox="0 0 69.73 77.48"><defs><style>.cls-1{fill:#71cc49;stroke-width:0px;}</style></defs><g id="Sections"><path class="cls-1" d="m44.55,61.98c-2.71,0-5-.94-6.88-2.81-1.87-1.87-2.81-4.16-2.81-6.88s.94-5,2.81-6.88c1.87-1.87,4.16-2.81,6.88-2.81s5,.94,6.88,2.81c1.87,1.87,2.81,4.16,2.81,6.88s-.94,5-2.81,6.88c-1.87,1.87-4.16,2.81-6.88,2.81Zm-36.8,15.5c-2.13,0-3.95-.76-5.47-2.28-1.52-1.52-2.28-3.34-2.28-5.47V15.5c0-2.13.76-3.95,2.28-5.47,1.52-1.52,3.34-2.28,5.47-2.28h3.87V0h7.75v7.75h30.99V0h7.75v7.75h3.87c2.13,0,3.95.76,5.47,2.28s2.28,3.34,2.28,5.47v54.23c0,2.13-.76,3.95-2.28,5.47s-3.34,2.28-5.47,2.28H7.75Zm0-7.75h54.23V30.99H7.75v38.74Zm0-46.49h54.23v-7.75H7.75v7.75Zm0,0v-7.75,7.75Z"/></g></svg>