<?xml version="1.0" encoding="UTF-8"?><svg id="Layer_2" xmlns="http://www.w3.org/2000/svg" viewBox="0 0 77.48 77.48"><defs><style>.cls-1{fill:#71cc49;stroke-width:0px;}</style></defs><g id="Sections"><path class="cls-1" d="m27.12,54.23c2.13,0,3.95-.76,5.47-2.28s2.28-3.34,2.28-5.47-.76-3.95-2.28-5.47-3.34-2.28-5.47-2.28-3.95.76-5.47,2.28-2.28,3.34-2.28,5.47.76,3.95,2.28,5.47,3.34,2.28,5.47,2.28Zm23.24,0c2.13,0,3.95-.76,5.47-2.28s2.28-3.34,2.28-5.47-.76-3.95-2.28-5.47-3.34-2.28-5.47-2.28-3.95.76-5.47,2.28-2.28,3.34-2.28,5.47.76,3.95,2.28,5.47,3.34,2.28,5.47,2.28Zm-11.62-19.37c2.13,0,3.95-.76,5.47-2.28s2.28-3.34,2.28-5.47-.76-3.95-2.28-5.47-3.34-2.28-5.47-2.28-3.95.76-5.47,2.28-2.28,3.34-2.28,5.47.76,3.95,2.28,5.47,3.34,2.28,5.47,2.28Zm0,42.61c-5.36,0-10.39-1.02-15.11-3.05-4.71-2.03-8.81-4.79-12.3-8.28-3.49-3.49-6.25-7.59-8.28-12.3s-3.05-9.75-3.05-15.11,1.02-10.39,3.05-15.11,4.79-8.81,8.28-12.3,7.59-6.25,12.3-8.28c4.71-2.03,9.75-3.05,15.11-3.05s10.39,1.02,15.11,3.05c4.71,2.03,8.81,4.79,12.3,8.28s6.25,7.59,8.28,12.3,3.05,9.75,3.05,15.11-1.02,10.39-3.05,15.11-4.79,8.81-8.28,12.3c-3.49,3.49-7.59,6.25-12.3,8.28-4.71,2.03-9.75,3.05-15.11,3.05Zm0-7.75c8.65,0,15.98-3,21.98-9.01,6-6,9.01-13.33,9.01-21.98s-3-15.98-9.01-21.98c-6-6-13.33-9.01-21.98-9.01s-15.98,3-21.98,9.01-9.01,13.33-9.01,21.98,3,15.98,9.01,21.98c6,6,13.33,9.01,21.98,9.01Z"/></g></svg>