<?xml version="1.0" encoding="UTF-8"?><svg id="Layer_2" xmlns="http://www.w3.org/2000/svg" viewBox="0 0 77.48 77.48"><defs><style>.cls-1{fill:#71cc49;stroke-width:0px;}</style></defs><g id="Sections"><path class="cls-1" d="m38.74,77.48c-4.71-.58-9.39-1.86-14.04-3.83-4.65-1.97-8.8-4.79-12.44-8.47-3.65-3.68-6.6-8.33-8.86-13.95-2.26-5.62-3.39-12.36-3.39-20.24v-3.87h3.87c3.29,0,6.68.42,10.17,1.26s6.75,2.1,9.78,3.78c.77-5.55,2.53-11.25,5.28-17.09,2.74-5.84,5.96-10.86,9.64-15.06,3.68,4.2,6.89,9.22,9.64,15.06,2.74,5.84,4.5,11.54,5.28,17.09,3.03-1.68,6.29-2.94,9.78-3.78s6.88-1.26,10.17-1.26h3.87v3.87c0,7.88-1.13,14.62-3.39,20.24-2.26,5.62-5.21,10.27-8.86,13.95-3.65,3.68-7.78,6.5-12.4,8.47-4.62,1.97-9.31,3.24-14.09,3.83Zm-.19-7.94c-.71-10.72-3.89-18.82-9.54-24.31-5.65-5.49-12.67-8.88-21.06-10.17.71,11.04,3.99,19.27,9.83,24.7,5.84,5.42,12.77,8.68,20.77,9.78Zm.19-24.6c.97-1.42,2.15-2.89,3.53-4.41,1.39-1.52,2.73-2.82,4.02-3.92-.13-3.68-.86-7.52-2.18-11.52-1.32-4-3.12-7.91-5.37-11.72-2.26,3.81-4.05,7.72-5.37,11.72s-2.05,7.84-2.18,11.52c1.29,1.1,2.65,2.4,4.07,3.92s2.58,2.99,3.49,4.41Zm7.55,22.86c2.39-.77,4.87-1.9,7.46-3.39,2.58-1.48,4.99-3.5,7.21-6.05,2.23-2.55,4.13-5.73,5.71-9.54s2.53-8.39,2.86-13.75c-6.07.9-11.4,2.92-15.98,6.05-4.58,3.13-8.1,7.12-10.56,11.96.77,2.07,1.44,4.33,1.99,6.78.55,2.45.98,5.1,1.31,7.94Z"/></g></svg>