<?xml version="1.0" encoding="UTF-8"?><svg id="Layer_2" xmlns="http://www.w3.org/2000/svg" viewBox="0 0 45.93 45.93"><defs><style>.cls-1{fill:#fff;stroke-width:0px;}</style></defs><g id="Footer"><path class="cls-1" d="m45.93,22.97c0,12.67-10.33,22.97-23.01,22.95C10.15,45.91-.21,35.37,0,22.57.22,10.01,10.64-.22,23.38,0c12.41.22,22.55,10.4,22.55,22.97Zm-8.06.11c0-2.1.01-4.2,0-6.3,0-.58-.06-1.17-.18-1.74-.84-4.06-4.32-6.88-8.47-6.88-4.16,0-8.33,0-12.49,0-.55,0-1.12.05-1.66.15-4.13.81-6.99,4.31-6.99,8.52,0,4.14,0,8.28,0,12.41,0,.38.02.76.07,1.13.5,4.3,4.17,7.56,8.51,7.57,4.22,0,8.44,0,12.65,0,.44,0,.88-.03,1.31-.1,4.2-.67,7.26-4.26,7.27-8.52,0-2.09,0-4.17,0-6.26Z"/><path class="cls-1" d="m35.11,23.13c0,2.13,0,4.26,0,6.4,0,2.79-1.9,5.11-4.63,5.65-.34.07-.7.1-1.05.1-4.31,0-8.62,0-12.93,0-3.13,0-5.69-2.56-5.69-5.68,0-4.31,0-8.62,0-12.93,0-3.11,2.56-5.67,5.68-5.67,4.32,0,8.63,0,12.95,0,3.1,0,5.67,2.56,5.67,5.66,0,2.16,0,4.32,0,6.48Zm-12.15,7.73c4.18.02,7.66-3.36,7.74-7.59.08-4.21-3.28-7.86-7.73-7.88-4.22-.02-7.71,3.46-7.74,7.63-.03,4.35,3.48,7.85,7.73,7.83Zm8-17.55c-1.01,0-1.81.8-1.81,1.8,0,1,.8,1.8,1.8,1.8,1.01,0,1.81-.8,1.81-1.8,0-1-.8-1.8-1.8-1.8Z"/><path class="cls-1" d="m27.97,23.15c0,2.76-2.25,5-5.02,5-2.76,0-5-2.26-4.99-5.03,0-2.78,2.26-4.99,5.09-4.98,2.69,0,4.92,2.27,4.92,5.01Z"/></g></svg>