<?xml version="1.0" encoding="UTF-8"?><svg id="Layer_2" xmlns="http://www.w3.org/2000/svg" viewBox="0 0 46.07 46.07"><defs><style>.cls-1{fill:#000;stroke-width:0px;}</style></defs><g id="Footer"><path class="cls-1" d="m23.03,46.07C10.3,46.07,0,35.72,0,22.93,0,10.33,10.43-.03,23.05,0c12.71.03,23.02,10.36,23.01,23.05,0,12.69-10.35,23.02-23.04,23.02Zm-.01-33.24c-3.2.13-6.42.22-9.62.41-2.55.15-3.8,1.23-4.29,3.47-.05.23-.1.46-.11.69-.1,1.66-.21,3.31-.27,4.97-.08,2.38,0,4.75.43,7.1.32,1.73,1.35,2.76,3.05,3.11.75.16,1.52.26,2.29.31,5.21.3,10.42.38,15.62.06,1.35-.08,2.71-.19,4.04-.46,1.45-.29,2.39-1.25,2.69-2.73.17-.84.3-1.7.38-2.55.27-2.86.14-5.72-.05-8.57-.06-.89-.19-1.79-.43-2.66-.35-1.28-1.23-2.1-2.51-2.46-.53-.15-1.07-.28-1.61-.3-3.2-.15-6.39-.27-9.6-.41Z"/><path class="cls-1" d="m20.16,27.27v-8.48c2.43,1.41,4.81,2.8,7.28,4.24-2.44,1.42-4.83,2.81-7.28,4.24Z"/></g></svg>